<svg width="14" height="28" viewBox="0 0 14 28" fill="none" xmlns="http://www.w3.org/2000/svg">
<path d="M9.2316 21.0118C9.2316 23.2258 9.22762 25.4404 9.23657 27.6544C9.23757 27.9111 9.18238 28.0029 8.91042 28.0004C7.0301 27.9821 5.14978 27.9796 3.26946 27.9801C3.05965 27.9801 3.00148 27.9065 3.00198 27.7006C3.00695 24.4467 3.00546 21.1934 3.00496 17.9395C3.00496 16.714 2.99601 15.4886 3.00496 14.2631C3.00645 14.0313 2.90105 13.9999 2.71859 14.0004C1.9067 14.0044 1.09481 13.9953 0.283414 14.006C0.0681366 14.0085 -0.00146815 13.9436 2.33828e-05 13.7184C0.00946974 12.3326 0.00847539 10.9464 0.00101774 9.5601C2.33827e-05 9.35264 0.0671422 9.26844 0.268996 9.26946C1.00631 9.2725 1.74313 9.27047 2.48044 9.26793C2.95872 9.26641 3.00595 9.21163 3.00894 8.73027C3.0159 7.42061 2.99203 6.10943 3.04473 4.80179C3.14069 2.38891 4.95588 0.408691 7.31896 0.198699C8.78514 0.0683409 10.2642 0.0800072 11.7374 0.0348639C12.3748 0.015082 13.0131 0.0171109 13.6505 0.000372377C13.8762 -0.00571436 13.9737 0.0612397 13.9717 0.317897C13.9602 1.75437 13.9617 3.19134 13.9712 4.62832C13.9727 4.84744 13.8971 4.90324 13.6987 4.90222C12.8123 4.89715 11.9263 4.90172 11.0398 4.90628C10.8663 4.9073 10.6918 4.91643 10.5193 4.9357C9.7949 5.01534 9.33253 5.42416 9.28977 6.16319C9.23458 7.12337 9.26491 8.08863 9.25994 9.05186C9.25894 9.24612 9.39219 9.2517 9.53538 9.2517C10.927 9.24967 12.3191 9.25576 13.7107 9.24359C13.9538 9.24156 14.0269 9.29279 13.9926 9.55198C13.8066 10.9499 13.6321 12.3499 13.4651 13.7503C13.4397 13.9623 13.3512 14.007 13.1618 14.006C11.9606 13.9988 10.7594 14.011 9.55874 13.9958C9.28629 13.9923 9.2311 14.0866 9.2321 14.3438C9.24105 16.5664 9.23707 18.7891 9.23707 21.0123C9.23558 21.0123 9.23409 21.0123 9.2326 21.0123L9.2316 21.0118Z" fill="white"/>
</svg>
