<svg width="26" height="26" viewBox="0 0 26 26" fill="none" xmlns="http://www.w3.org/2000/svg">
<path d="M0.0111925 13.2563C0.0111925 11.4519 -0.0205711 9.6467 0.0229206 7.84325C0.0495532 6.73611 0.19982 5.62432 0.632782 4.59392C1.46792 2.6062 2.89191 1.21237 4.9436 0.482101C5.8882 0.145803 6.85723 0.00380578 7.85534 0.00478339C11.2841 0.00820502 14.7131 -0.0152576 18.1416 0.0184699C19.2475 0.029468 20.3612 0.187596 21.3908 0.621166C23.4061 1.46997 24.8179 2.91464 25.5389 5.00648C25.849 5.90612 25.9934 6.82801 25.9931 7.77653C25.9924 11.2429 26.0163 14.7095 25.9792 18.1756C25.9675 19.2725 25.8055 20.3789 25.3725 21.4007C24.5757 23.2817 23.2588 24.6603 21.3263 25.4146C20.2913 25.8186 19.2253 25.9997 18.1165 25.997C14.6958 25.9889 11.2748 26.0182 7.85461 25.9801C6.74191 25.9676 5.62065 25.8071 4.58247 25.3674C2.60091 24.5284 1.21332 23.103 0.484715 21.0574C0.152907 20.1252 0.00630583 19.1676 0.00972653 18.181C0.0153462 16.5396 0.0111925 14.8979 0.0111925 13.2563ZM23.6248 13.311C23.6248 11.686 23.6113 10.0607 23.6299 8.43568C23.6411 7.45612 23.4696 6.50979 23.2324 5.56738C23.0042 4.66114 22.5446 3.90276 21.749 3.40711C20.681 2.7416 19.5199 2.36498 18.2384 2.3706C14.9892 2.38502 11.7398 2.38477 8.49062 2.36986C7.47027 2.36522 6.48413 2.53239 5.50386 2.78779C4.61838 3.01851 3.88782 3.48238 3.40672 4.25861C2.73969 5.33544 2.36463 6.50222 2.3727 7.79462C2.39273 11.0325 2.38907 14.2705 2.37343 17.5084C2.36879 18.475 2.52052 19.4108 2.74702 20.3432C2.94322 21.151 3.29506 21.8766 3.96625 22.3764C5.03376 23.1712 6.24493 23.6165 7.58755 23.6202C10.8695 23.6294 14.1514 23.6126 17.4331 23.6297C18.4488 23.6351 19.4325 23.4838 20.4113 23.2372C21.3212 23.0079 22.0877 22.556 22.5868 21.7561C23.2294 20.7259 23.6309 19.608 23.6262 18.3692C23.6199 16.683 23.6248 14.9969 23.6253 13.3105L23.6248 13.311Z" fill="white"/>
<path d="M13.0078 6.26997C16.7528 6.25335 19.7163 9.22137 19.7363 13.0089C19.7559 16.7279 16.7591 19.7263 13.0103 19.738C9.25971 19.7497 6.2666 16.7629 6.26563 12.9925C6.26465 9.19033 9.32055 6.22818 13.0076 6.26997H13.0078ZM12.9658 17.3668C15.2968 17.3849 17.3455 15.3764 17.3675 13.0516C17.3902 10.6255 15.4573 8.648 13.0447 8.62943C10.6136 8.61085 8.65083 10.5367 8.63299 12.9583C8.61516 15.3891 10.5405 17.348 12.9658 17.3668Z" fill="white"/>
<path d="M19.8719 4.54688C20.7481 4.54761 21.4583 5.2576 21.4564 6.1306C21.4544 6.98259 20.7393 7.69698 19.8902 7.69502C19.0072 7.69282 18.3125 6.99725 18.3086 6.11129C18.3049 5.26077 19.0191 4.54639 19.8719 4.54712V4.54688Z" fill="white"/>
</svg>
