<svg width="54" height="59" viewBox="0 0 54 59" fill="none" xmlns="http://www.w3.org/2000/svg">
<path d="M53.6716 16.4507C53.4819 16.3697 53.2708 16.3124 53.0653 16.2968C51.9861 16.2145 50.9065 16.1361 49.8256 16.0818C48.7056 16.0259 47.5929 16.0568 46.4799 16.2594C45.8019 16.3828 45.0981 16.429 44.4004 16.2934C43.828 16.1823 43.6649 16.0928 43.6182 15.7189C43.5083 14.8417 43.4156 13.9625 43.3157 13.084C43.214 12.1937 43.1153 11.303 43.0093 10.4136C42.9132 9.60932 42.8132 8.80551 42.7072 8.00212C42.6124 7.28521 42.5089 6.56915 42.406 5.8531C42.3116 5.19809 42.215 4.54308 42.1146 3.88892C42.0344 3.36873 41.9867 2.83922 41.8528 2.33217C41.652 1.57117 41.3538 1.3558 40.6132 1.25533C39.5057 1.10525 38.3909 0.995444 37.2752 0.918284C35.2404 0.777532 33.2034 0.660521 31.1661 0.557924C29.2527 0.461687 27.3372 0.401062 25.423 0.317119C24.0434 0.256918 22.6647 0.171279 21.2847 0.120829C19.7056 0.0627473 18.1252 -0.000421831 16.5457 2.12231e-06C15.5407 0.000426075 14.5311 0.0703785 13.533 0.186966C12.6756 0.287442 11.8251 0.472286 10.9837 0.669848C10.3752 0.813144 10.0083 1.21463 9.95167 1.86455C9.83581 3.19873 9.7058 4.53164 9.58307 5.86497C9.45391 7.27122 9.32776 8.6779 9.1986 10.0841C9.16041 10.5 9.11621 10.9155 9.07373 11.331C8.96216 12.418 8.85918 13.5059 8.73431 14.5912C8.66565 15.1877 8.56911 15.7817 8.4644 16.3735C8.40776 16.6944 8.33996 16.7296 8.00441 16.6673C7.28823 16.5337 6.57592 16.379 5.85847 16.2535C5.17491 16.134 4.4862 16.0398 3.80006 15.9355C3.11307 15.8313 2.42694 15.7193 1.73823 15.6286C1.29668 15.5705 0.849557 15.5023 0.407581 15.5175C0.0252512 15.5307 -0.111203 15.8953 0.0977694 16.22C0.137247 16.2815 0.187023 16.34 0.242806 16.3879C1.02248 17.0527 1.78843 17.734 2.58871 18.3737C3.68721 19.2521 5.05218 19.526 6.36009 19.9203C7.00975 20.1161 7.65855 20.3167 8.31551 20.4846C8.57254 20.5503 8.60472 20.6859 8.6133 20.9068C8.64034 21.6301 8.67981 22.3533 8.73173 23.0758C8.75533 23.4052 8.81841 23.732 8.86647 24.0593C8.8905 24.2221 8.83987 24.265 8.66265 24.2594C8.28289 24.2476 7.89627 24.2382 7.52252 24.2946C6.99387 24.3743 6.84755 24.7775 7.17109 25.2091C7.32557 25.4151 7.53454 25.5813 7.68773 25.7878C7.7817 25.9146 7.85551 26.0803 7.87138 26.2355C7.92331 26.7468 7.94562 27.2606 7.97609 27.774C7.97995 27.8406 7.96793 27.908 7.96321 27.975C7.90829 27.9309 7.83706 27.8965 7.80101 27.8406C7.47532 27.3352 7.15736 26.8252 6.83382 26.3186C6.55704 25.8849 6.24809 25.4664 6.22535 24.9242C6.22406 24.8962 6.19574 24.8458 6.17128 24.842C6.14682 24.8381 6.09061 24.8954 6.07302 24.9327C5.93013 25.2341 5.77951 25.5419 5.91682 25.8828C6.06229 26.2427 6.20861 26.6048 6.3927 26.946C6.57807 27.2894 6.70466 27.6294 6.68406 28.0284C6.66046 28.4824 6.67848 28.939 6.67848 29.3944C6.67805 29.3944 6.67762 29.3944 6.67719 29.3944C6.67719 29.9112 6.65874 30.4292 6.68449 30.9448C6.69908 31.2347 6.78018 31.5222 6.84626 31.8079C6.85999 31.8673 6.9029 31.9699 6.98658 31.9631C7.07025 31.9567 7.06424 31.8495 7.07025 31.7897C7.10501 31.4476 7.15307 31.1046 7.15221 30.762C7.15049 30.0858 7.11531 29.41 7.10458 28.7338C7.10243 28.5846 7.14491 28.435 7.1668 28.2853C7.32085 28.3726 7.48391 28.4481 7.62594 28.5515C7.70017 28.6058 7.76239 28.7016 7.78857 28.7907C7.91387 29.2125 8.04431 29.6339 8.13528 30.0638C8.23612 30.5407 8.05933 30.9753 7.87224 31.4103C7.59976 32.0441 7.71862 32.3319 8.31593 32.6406C8.47256 32.7215 8.59743 32.7343 8.68925 32.5609C8.78237 32.3858 8.87677 32.3497 8.97718 32.5541C9.32862 33.2718 9.88774 33.9112 9.83968 34.7811C9.8371 34.8286 9.86242 34.8769 9.86928 34.9253C9.94867 35.484 10.0379 36.0419 10.101 36.6028C10.137 36.9238 10.0293 37.2104 9.76887 37.4232C9.45692 37.678 9.11449 37.5627 8.9952 37.1777C8.9377 36.9924 8.88364 36.7911 8.76778 36.6427C8.53821 36.3476 8.47384 36.036 8.5292 35.679C8.54979 35.5468 8.52963 35.4086 8.53478 35.2733C8.55409 34.7285 8.14086 34.4581 7.74737 34.3432C7.62722 34.308 7.50794 34.3292 7.58904 34.5089C7.62937 34.5984 7.67057 34.6874 7.70704 34.7786C7.99754 35.5069 8.28032 36.2382 8.37772 37.0221C8.48972 37.9243 8.86647 38.6556 9.70322 39.1092C9.88731 39.2089 10.0426 39.3628 10.2302 39.4531C10.4589 39.5633 10.5563 39.7375 10.5923 39.9682C10.6949 40.6223 10.8052 41.2752 10.9017 41.9302C11.121 43.4179 11.5741 44.8343 12.2006 46.2011C12.9575 47.8528 14.1247 49.2159 15.3266 50.5556C15.3644 50.5975 15.3923 50.6611 15.4635 50.6611C15.5343 50.6611 15.5227 50.5 15.5141 50.4237C15.4081 49.4312 15.1545 48.4761 14.7323 47.5688C14.2629 46.5598 13.7784 45.558 13.3042 44.5515C12.8237 43.5315 12.3851 42.4882 12.1736 41.3833C11.98 40.3726 11.8977 39.3403 11.7865 38.3152C11.6882 37.4096 11.5055 36.5274 11.1579 35.6807C11.1098 35.5641 11.1021 35.431 11.0755 35.306C11.1991 35.3378 11.3291 35.3551 11.4454 35.4043C12.2233 35.7337 13.0129 36.0127 13.875 36.0144C15.7179 36.0178 17.5609 36.0288 19.4035 36.0169C19.7339 36.0148 20.0729 35.9525 20.3913 35.8609C21.2057 35.6273 21.8361 35.0787 22.4952 34.5878C22.8179 34.3474 23.0281 34.0121 23.1474 33.6271C23.2487 33.2998 23.3392 32.9696 23.4487 32.6452C23.4723 32.5749 23.577 32.4638 23.607 32.4744C23.6134 32.4765 23.619 32.4782 23.6246 32.4799C23.6074 32.7894 23.6336 33.2477 23.6302 33.2879C23.5697 33.9849 23.5705 34.4746 23.5169 35.1724C23.5117 35.2402 23.5164 35.3823 23.5795 35.3823C23.6426 35.3823 23.698 35.2462 23.7057 35.1728C23.767 34.6001 23.8679 34.308 23.8679 33.4516C23.8679 32.9306 23.8511 32.5804 23.81 32.3849C23.8147 32.3506 23.8147 32.3133 23.8168 32.2794C23.8391 31.936 23.8653 31.5917 23.8636 31.2479C23.8589 30.4453 24.1275 29.7429 24.618 29.1133C25.0878 28.51 25.7641 28.4515 26.27 29.0162C26.7819 29.5868 27.1462 30.2334 27.0445 31.0448C27.0295 31.1661 27.0411 31.2907 27.0377 31.4137C27.0033 32.7525 26.9639 34.0909 26.936 35.4298C26.9282 35.8037 27.0055 36.1577 27.29 36.4417C27.4556 36.6075 27.6075 36.7877 27.7551 36.9696C27.992 37.2617 28.1224 37.5792 27.9667 37.9578C27.9019 38.1151 27.8714 38.288 27.7955 38.439C27.0956 39.8236 25.9696 40.588 24.4214 39.9211C24.049 39.7609 23.6782 39.5951 23.3109 39.4238C23.1011 39.3259 22.953 39.169 22.9015 38.9358C22.8844 38.8574 22.9183 38.7336 22.8393 38.7031C22.7604 38.6721 22.7102 38.8426 22.6638 38.9227C22.6351 38.9719 22.6316 39.0418 22.6342 39.1016C22.6437 39.2941 22.5445 39.364 22.3626 39.364C21.446 39.3636 21.3705 39.4124 21.1538 38.5479C21.1448 38.5123 21.1315 38.4776 21.1199 38.4424C21.0791 38.3156 21.0869 38.082 20.9976 38.0625C20.9084 38.0434 20.8719 38.3487 20.8419 38.4979C20.8213 38.6009 20.8474 38.7179 20.8728 38.8239C20.9942 39.3305 21.4053 39.6324 21.7262 40C22.0223 40.3391 22.3879 40.4625 22.8247 40.4027C23.3658 40.329 23.9275 40.3442 24.3862 40.6054C25.0634 40.9907 25.6667 40.9657 26.2915 40.5592C26.4833 40.4341 26.6283 40.5185 26.7381 40.6664C26.8596 40.8296 26.9119 41.0425 27.2054 40.9975C27.4067 40.9666 27.6285 41.0565 27.8276 41.0204C28.1641 40.959 28.4846 40.8144 28.821 40.7512C29.3728 40.6478 29.9324 40.6126 30.4812 40.7817C30.8442 40.8932 31.2017 41.0209 31.563 41.1387C31.605 41.1523 31.6299 41.1752 31.6977 41.1527C31.7655 41.1302 31.6814 41.0399 31.6484 41.0145C31.4433 40.8564 31.2459 40.6796 31.018 40.5613C30.652 40.3718 30.6177 40.0229 30.5413 39.6951C30.5245 39.6235 30.5936 39.4963 30.661 39.4543C30.7052 39.4268 30.8378 39.4857 30.8966 39.5417C31.1841 39.8139 31.4578 40.0996 31.7419 40.3756C31.781 40.4133 31.8312 40.4595 31.9033 40.4447C31.9753 40.4299 31.9093 40.3031 31.8766 40.256C31.6196 39.8813 31.3716 39.4984 31.0867 39.1453C30.752 38.7302 30.4632 38.2995 30.2538 37.8047C30.1143 37.4745 29.8835 37.1798 29.6766 36.8805C29.6312 36.8144 29.481 36.7427 29.4295 36.7567C29.378 36.7707 29.4612 36.931 29.4956 37.0098C29.6852 37.4435 29.8993 37.8679 30.068 38.3092C30.1924 38.6348 30.0525 38.8994 29.7191 39.0092C29.5355 39.0698 29.3312 39.0927 29.1364 39.0919C28.7425 39.0897 28.6472 38.9566 28.7459 38.5814C28.9043 37.979 28.9798 37.3744 28.8137 36.7605C28.782 36.6431 28.7339 36.5286 28.7146 36.4095C28.6876 36.2421 28.7562 36.142 28.945 36.1827C29.175 36.2319 29.4119 36.2666 29.6312 36.3468C30.0972 36.5168 30.5765 36.5524 31.0618 36.513C31.2004 36.5015 31.4467 36.4341 31.4681 36.3629C31.4896 36.2921 31.2956 36.2437 31.2154 36.1772C31.1815 36.1492 31.1227 36.1301 31.1373 36.0644C31.1523 35.9991 31.2266 36.0271 31.266 36.0347C31.4729 36.0729 31.6775 36.1551 31.8839 36.1573C33.1395 36.1713 34.3959 36.2035 35.6502 36.1607C36.8654 36.1191 38.0763 35.9885 39.1894 35.4302C39.2289 35.4103 39.2971 35.3742 39.3267 35.4077C39.3559 35.4416 39.3276 35.5056 39.3057 35.5417C39.2619 35.615 39.2006 35.6773 39.1499 35.7469C38.4552 36.7016 37.7378 37.6415 37.0726 38.6162C36.1093 40.028 35.5167 41.5508 35.663 43.3064C35.7579 44.4438 35.7381 45.5902 35.8132 46.7298C35.8343 47.0452 36.0106 47.3513 36.1188 47.6604C36.1913 47.8668 36.2707 48.0712 36.3449 48.2772C36.3839 48.3853 36.3668 48.5731 36.4547 48.6037C36.5427 48.6342 36.6427 48.432 36.7204 48.334C36.7633 48.2798 36.7753 48.1996 36.7959 48.1297C37.1044 47.0673 37.1314 45.9726 37.1439 44.8814C37.1512 44.2196 37.0804 43.5561 37.028 42.8947C36.9993 42.5314 37.0555 42.2206 37.3717 41.9849C37.4644 41.9154 37.5292 41.795 37.5786 41.6856C37.7236 41.363 37.8502 41.0319 37.9939 40.7084C38.0347 40.6168 38.1269 40.4472 38.1669 40.4566C38.2068 40.4659 38.2008 40.6431 38.1887 40.7326C38.1385 41.1103 38.0519 41.4851 38.0278 41.8637C38.0055 42.2147 38.0107 42.5746 38.066 42.921C38.1664 43.548 38.3574 44.1632 38.4312 44.7923C38.5642 45.9243 38.299 47.0066 37.8974 48.0627C37.7541 48.4392 37.6408 48.8275 37.5249 49.2137C37.5035 49.2862 37.4674 49.3909 37.5451 49.4554C37.6228 49.5198 37.6987 49.3982 37.7704 49.36C37.8128 49.3375 37.8515 49.3007 37.8806 49.2616C38.2342 48.7911 38.632 48.3455 38.9285 47.8423C39.6387 46.6361 40.1746 45.3456 40.6376 44.0292C40.9745 43.0715 41.3182 42.11 41.4225 41.0904C41.4997 40.3332 41.5714 39.5756 41.6284 38.8167C41.6606 38.3902 41.643 38.4089 42.0575 38.4462C42.2704 38.4653 42.5222 38.4564 42.7025 38.361C43.1676 38.1147 43.4418 37.6839 43.6461 37.2142C43.7345 37.0107 43.6362 36.9445 43.4341 36.9772C43.2376 37.0086 43.041 37.051 42.8432 37.059C42.3819 37.0785 42.1721 36.9259 42.0768 36.4875C42.0275 36.2616 41.9987 36.025 42.0035 35.7944C42.0301 34.5649 42.0571 33.335 42.1124 32.1068C42.1343 31.621 42.2193 31.1368 42.2948 30.6552C42.4235 29.8323 42.6197 29.0158 42.6905 28.1886C42.7552 27.4332 43.0007 26.7786 43.3633 26.1189C43.6658 25.5686 44.2245 25.076 43.9825 24.315C43.9224 24.1255 43.8555 24.0161 43.6761 24.0309C43.4714 24.0479 43.2689 24.1068 43.0698 24.1624C42.9011 24.2094 42.8003 24.1912 42.817 23.9873C42.8372 23.7422 42.8574 23.4972 42.8732 23.2517C42.9217 22.5051 42.9792 21.759 43.0097 21.0115C43.0196 20.7712 43.0848 20.6664 43.3401 20.627C44.0129 20.524 44.6832 20.3985 45.35 20.2611C46.0405 20.1191 46.7257 19.95 47.414 19.7986C48.1611 19.6341 48.9197 19.5112 49.6548 19.306C50.655 19.0266 51.6278 18.6569 52.522 18.1227C52.9653 17.8578 53.4013 17.572 53.8025 17.249C54.1192 16.995 54.0402 16.6075 53.6716 16.4507ZM9.86285 16.6601C9.80535 16.6147 9.74613 16.5083 9.7633 16.4519C9.78046 16.3968 9.89031 16.3451 9.96455 16.3362C10.2718 16.3006 10.5816 16.287 10.8893 16.2552C11.1343 16.2302 11.2643 16.1077 11.3407 15.8525C11.4449 15.504 11.6831 15.1924 11.7698 14.8422C11.8715 14.4305 11.8994 13.9951 11.9092 13.569C11.9178 13.2121 12.0135 12.9361 12.31 12.7144C12.5816 12.5113 12.6524 12.2357 12.4739 12.0059C12.2461 11.7121 12.1813 11.3789 12.1723 11.0397C12.1573 10.4861 12.2379 9.94043 12.5005 9.43804C12.5254 9.39014 12.5799 9.35749 12.6207 9.31764C12.6477 9.36555 12.6683 9.41897 12.7031 9.46051C12.8554 9.64409 13 9.83656 13.1708 10.0019C13.2837 10.1109 13.4592 10.1583 13.5647 10.2715C13.6754 10.3902 13.8123 10.5586 13.8054 10.6989C13.7758 11.2721 13.7329 11.8499 13.6248 12.4129C13.4772 13.1811 13.2583 13.9353 13.0845 14.6989C12.9841 15.1402 12.8893 15.5854 12.8361 16.0339C12.7992 16.3464 12.8335 16.6677 12.8434 16.9848C12.8533 17.2918 13.0309 17.508 13.306 17.5936C14.1753 17.8645 15.0438 18.1499 15.9316 18.3474C16.5946 18.495 17.2855 18.5314 17.9664 18.5895C19.0812 18.6849 20.1969 18.7815 21.3147 18.8341C22.7685 18.9024 24.2245 18.9304 25.68 18.9702C26.0773 18.9812 26.4755 18.9719 26.8733 18.9719C26.8733 18.9685 26.8733 18.9651 26.8733 18.9613C27.9444 18.9613 29.0158 18.9677 30.0869 18.9583C30.4967 18.9549 30.906 18.9125 31.3158 18.896C31.3802 18.8935 31.4463 18.9325 31.5119 18.9524C31.4553 18.9821 31.4016 19.0274 31.3411 19.0397C30.0452 19.3009 28.7335 19.384 27.4136 19.4043C25.7092 19.4306 24.0048 19.5332 22.3017 19.5074C21.1126 19.4891 19.9253 19.3187 18.7393 19.2C18.0733 19.1334 17.412 19.0207 16.7461 18.9511C15.3807 18.8083 14.0788 18.4246 12.8061 17.94C11.9427 17.611 11.0939 17.2447 10.2417 16.8882C10.1066 16.8309 9.97742 16.7508 9.86285 16.6601ZM15.9969 27.8838C15.2863 27.8906 14.6285 28.1217 13.9968 28.4006C12.997 28.8424 12.4551 29.6441 12.2362 30.6984C12.0092 31.7931 12.1161 32.8687 12.3246 33.9463C12.3315 33.9824 12.3465 34.0188 12.3452 34.0545C12.3431 34.1125 12.3705 34.2173 12.322 34.2283C12.2735 34.2393 12.2113 34.1621 12.1912 34.1147C12.0157 33.6988 11.817 33.2884 11.6852 32.8589C11.3531 31.7774 11.2896 30.6675 11.4411 29.5495C11.4934 29.1637 11.5681 28.7737 11.6943 28.4066C11.838 27.989 12.2087 27.8223 12.6327 27.8113C13.2532 27.7956 14.2727 27.7465 14.4954 27.7456C14.7181 27.7448 15.2665 27.7426 15.6523 27.7473C15.7754 27.749 15.899 27.7655 16.0205 27.7859C16.0625 27.7931 16.1385 27.813 16.1385 27.8571C16.1389 27.9012 16.0445 27.8834 15.9969 27.8838ZM33.9599 27.8842C33.2356 27.9347 32.5478 28.1094 31.8994 28.4383C30.9734 28.9077 30.4486 29.6742 30.2405 30.6556C30.0075 31.7545 30.0826 32.8534 30.3242 33.9442C30.3349 33.9921 30.3499 34.0409 30.3499 34.0892C30.3499 34.1465 30.3898 34.2406 30.3276 34.2609C30.2654 34.2817 30.2104 34.1961 30.1928 34.1486C29.9736 33.5555 29.732 32.9679 29.5595 32.3616C29.4466 31.9644 29.4535 31.5357 29.3776 31.1262C29.26 30.4928 29.4016 29.8777 29.4818 29.2587C29.5114 29.031 29.5788 28.8059 29.6509 28.5867C29.8388 28.0144 30.0757 27.8266 30.7005 27.8084C31.3716 27.7884 32.7151 27.7465 32.7151 27.7465C32.7151 27.7465 33.5368 27.7422 33.9479 27.7507C34.0204 27.7524 34.1638 27.7863 34.1638 27.8385C34.1638 27.8906 34.0286 27.8792 33.9599 27.8842ZM40.1815 24.3107C40.2776 24.546 40.351 24.7949 40.3986 25.0446C40.4557 25.3452 40.378 25.4372 40.0794 25.5114C39.9588 25.5415 39.8386 25.5894 39.7168 25.594C39.5117 25.6017 39.3829 25.6492 39.4091 25.8912C39.4301 26.0892 39.2817 26.0969 39.1349 26.0913C38.638 26.0727 38.1415 26.0439 37.6446 26.0392C35.8896 26.0222 34.1342 26.0099 32.3791 26.0032C30.9223 25.9972 29.4651 26.0023 28.0083 26.001C27.4612 26.0006 26.9128 26.0205 26.3678 25.9896C25.3697 25.9324 24.3725 25.9985 23.3753 25.9714C23.0161 25.9616 23.0268 25.9654 23.008 25.5945C22.9844 25.1298 22.9432 24.6656 22.9037 24.2018C22.899 24.1479 22.8955 24.0407 22.8372 24.0449C22.7788 24.0496 22.7496 24.1615 22.7462 24.2221C22.7355 24.4061 22.7591 24.5922 22.7423 24.775C22.7248 24.9683 22.7097 25.1726 22.6342 25.3473C22.3716 25.9544 22.2725 25.996 21.6747 25.9811C20.4055 25.9502 19.1345 25.9718 17.8643 25.9718C17.8643 25.9676 17.8643 25.9633 17.8643 25.9591C16.5568 25.9591 15.2494 25.9612 13.9419 25.9565C13.769 25.9561 13.596 25.9124 13.4231 25.9082C13.1021 25.9006 12.7812 25.9048 12.4598 25.9095C11.8633 25.9184 11.2669 25.9353 10.6708 25.94C10.4563 25.9417 10.3761 25.7963 10.3464 25.6055C10.1903 24.5969 10.0684 23.5866 10.0903 22.5624C10.0997 22.1333 10.0607 21.703 10.0452 21.2735C10.0349 20.9916 10.0847 20.9424 10.3636 21.0031C10.8957 21.1184 11.4256 21.2451 11.9556 21.3689C12.437 21.4813 12.9181 21.5953 13.3991 21.7094C13.4592 21.7238 13.5214 21.7352 13.5767 21.7611C13.6184 21.7806 13.6505 21.8209 13.687 21.8518C13.6518 21.8789 13.6209 21.9158 13.581 21.9315C13.4089 21.9993 13.2326 22.0562 13.0618 22.1261C12.961 22.1677 12.8614 22.2177 12.7726 22.2804C12.7284 22.3114 12.6353 22.3334 12.6803 22.4292C12.7254 22.525 12.8082 22.4568 12.867 22.4449C13.315 22.3546 13.7647 22.2707 14.2075 22.16C14.7143 22.0333 15.2129 22.0481 15.7197 22.1575C15.9977 22.2177 16.2839 22.2457 16.5684 22.2707C18.0651 22.4042 19.5627 22.5306 21.0594 22.6641C21.2551 22.6815 21.4482 22.7277 21.643 22.7544C21.8537 22.7832 22.0579 22.8837 22.2751 22.7163C22.3652 22.6467 22.5372 22.6722 22.6724 22.6705C23.9421 22.6527 25.2123 22.6582 26.4807 22.6166C27.5616 22.5814 28.6425 22.5102 29.7208 22.4233C30.8223 22.3343 31.9208 22.2071 33.0206 22.0947C33.8608 22.0087 34.7014 21.9285 35.5399 21.8289C36.2299 21.7471 36.9173 21.6428 37.6052 21.5449C38.317 21.4435 39.0289 21.3397 39.7399 21.232C39.9236 21.2044 40.1047 21.1582 40.2871 21.1222C40.4407 21.0921 40.5252 21.1497 40.5303 21.3104C40.5479 21.8544 40.5518 22.4102 40.2476 22.8803C39.9339 23.3641 39.9807 23.8198 40.1815 24.3107ZM35.2331 52.5812C35.4034 53.187 35.0743 53.6602 34.7525 54.1265C34.6409 54.288 34.5233 54.4462 34.4122 54.6077C34.3852 54.6471 34.3787 54.7294 34.3508 54.7349C33.7608 54.8544 33.8668 55.4149 33.6836 55.782C33.5231 56.1034 33.5489 56.1348 33.2493 55.9605C33.0176 55.8261 32.9164 55.9554 32.8559 56.1246C32.7846 56.3243 32.7267 56.4998 32.4572 56.446C32.425 56.4396 32.3765 56.4544 32.3517 56.4769C31.7977 56.9772 30.9532 57.034 30.4889 57.6792C30.3662 57.8501 30.1787 57.9688 29.9332 57.8454C29.9084 57.8327 29.7878 57.9196 29.7826 57.9675C29.7397 58.3639 29.4582 58.4542 29.1295 58.4788C28.6562 58.514 28.1808 58.5131 27.7354 58.3283C27.55 58.2516 27.3831 58.2914 27.2998 58.4161C27.087 58.7332 26.815 58.6789 26.5446 58.5678C26.2597 58.4504 26.0842 58.5047 25.928 58.773C25.8705 58.8714 25.68 58.9693 25.571 58.9507C24.8492 58.8269 24.1305 58.832 23.419 58.9799C22.999 59.0673 22.7243 58.8587 22.5484 58.5678C22.251 58.0773 21.8099 57.8302 21.295 57.6555C21.1911 57.6203 21.0697 57.5847 21.0011 57.5097C20.7457 57.2294 20.4501 57.059 20.0652 56.9869C19.8682 56.95 19.7052 56.7563 19.5164 56.6511C19.4147 56.5943 19.2932 56.5511 19.1774 56.5426C18.862 56.5189 18.647 56.3853 18.5174 56.0907C18.3054 55.6095 18.0475 55.147 17.8626 54.6564C17.7939 54.4746 17.8231 54.216 17.9004 54.0303C18.0214 53.7394 18.2595 53.4961 18.378 53.2044C18.5419 52.8012 18.6148 52.3624 18.7732 51.9563C18.9474 51.5099 19.1623 51.077 19.667 50.8867C19.9592 50.7764 20.045 50.8188 20.0648 51.1343C20.0776 51.3428 20.0596 51.5531 20.0755 51.7613C20.0819 51.8461 20.1416 51.9275 20.1772 52.0101C20.257 51.9588 20.3475 51.9181 20.4136 51.8533C20.4634 51.8045 20.4728 51.7176 20.5162 51.6599C20.5823 51.573 20.6483 51.4704 20.7402 51.4217C20.8522 51.3623 20.9908 51.3517 21.1182 51.3204C21.1469 51.445 21.1761 51.5696 21.2036 51.6943C21.2062 51.7053 21.2032 51.7201 21.198 51.7303C20.923 52.2535 21.2624 52.51 21.6413 52.7665C21.7936 52.8695 21.8966 52.8665 22.0335 52.7533C22.3961 52.4532 22.4377 52.0763 22.3429 51.651C22.266 51.3064 22.1849 50.9604 22.1472 50.6107C22.1163 50.3215 22.218 50.0807 22.499 49.9061C22.6205 49.8306 22.7016 49.6296 22.7252 49.474C22.829 48.7957 23.6851 48.1505 24.3837 48.2467C24.7973 48.3035 25.2105 48.3599 25.6251 48.4108C25.683 48.418 25.7585 48.4108 25.8027 48.379C26.3687 47.9716 27.0029 48.2552 27.6028 48.2056C27.6624 48.2005 27.7289 48.2734 27.7916 48.3111C27.9551 48.4095 28.1362 48.4884 28.2756 48.6126C28.4031 48.7262 28.4893 48.8869 28.5871 49.0314C28.6863 49.1777 28.7429 49.3918 28.8789 49.4643C29.1188 49.5915 29.2278 49.795 29.2862 50.0082C29.4471 50.5941 29.7268 51.155 29.6908 51.7876C29.6852 51.8889 29.7307 52.0186 29.7994 52.0937C29.9268 52.2336 30.0882 52.3429 30.2353 52.465C30.2812 52.2955 30.3276 52.1259 30.3735 51.9567C30.2997 51.5154 30.4683 51.2402 30.8635 51.0834C30.918 51.0618 31.0193 51.0389 31.0386 51.063C31.248 51.3276 31.4291 51.1529 31.6557 51.0774C31.8518 51.0121 32.0981 51.0711 32.3178 51.1025C32.5894 51.1415 32.8001 51.0986 32.9473 50.8392C33.0893 50.589 33.0627 50.3783 32.8795 50.1664C32.8181 50.0956 32.7838 50.0019 32.737 49.9188C32.843 49.9073 32.9567 49.8658 33.0528 49.8908C33.2451 49.9408 33.3201 49.8692 33.3811 49.6996C33.4695 49.452 33.5905 49.4045 33.7394 49.5889C34.1642 50.1129 34.5564 50.6628 34.9602 51.2034C34.9743 51.222 34.9876 51.2517 34.9829 51.2716C34.8688 51.7464 35.1121 52.1505 35.2331 52.5812ZM36.0767 48.6291C36.3492 49.2112 36.4084 49.8128 36.2432 50.422C36.1196 50.8778 35.945 51.3212 35.7673 51.76C35.7244 51.8664 35.5811 51.933 35.4841 52.0182C35.4275 51.8736 35.358 51.7316 35.321 51.5824C35.3073 51.5273 35.3537 51.4331 35.4026 51.3916C35.6467 51.1843 35.4957 51.1071 35.3077 50.9825C35.1061 50.8489 34.9323 50.6679 34.7671 50.489C34.5761 50.2829 34.395 50.0655 34.2354 49.8357C34.1582 49.7246 34.1118 49.5771 34.099 49.4414C34.0556 48.978 34.0466 48.5112 33.9998 48.0479C33.9368 47.4234 33.6145 46.9515 33.0756 46.6217C32.9807 46.5636 32.8932 46.4945 32.7984 46.4356C32.4366 46.2109 32.4392 46.2151 32.1212 46.4945C32.0406 46.5653 31.938 46.6442 31.838 46.656C31.0614 46.7455 30.2864 46.8633 29.4986 46.7561C28.2104 46.5806 26.9252 46.5755 25.6319 46.7633C25.1106 46.8388 24.5617 46.7972 24.0327 46.7417C22.8818 46.6208 21.7348 46.4385 20.5801 46.6721C20.2544 46.7379 19.9347 46.8383 19.6181 46.9388C19.4709 46.9854 19.3675 47.0825 19.3863 47.2686C19.4035 47.4391 19.3773 47.6137 19.3928 47.7846C19.4361 48.2649 19.3348 48.7063 19.0958 49.1281C18.9341 49.4138 18.9735 49.4914 19.2503 49.6067C19.5232 49.7204 19.6078 49.8556 19.4992 50.1138C19.4108 50.3237 19.3031 50.553 19.1366 50.6984C18.5436 51.2152 18.3376 51.9529 17.9669 52.5956C17.9441 52.6346 17.9274 52.7135 17.9489 52.7355C18.1999 52.9979 17.9291 53.1362 17.8077 53.2951C17.6116 53.5512 17.4056 53.7886 17.4494 54.1498C17.4575 54.2172 17.3159 54.3402 17.222 54.369C17.155 54.3898 17.0422 54.3084 16.9683 54.2495C16.9147 54.2071 16.9074 54.1019 16.8521 54.068C16.2672 53.7089 16.3908 52.9895 16.0398 52.4973C15.8879 52.2844 16.0033 51.8774 16.0179 51.5595C16.0308 51.278 16.0629 50.996 16.1046 50.7171C16.126 50.5751 16.1526 50.4131 16.2363 50.3046C16.5671 49.8768 16.5985 49.3871 16.5865 48.8831C16.5852 48.8224 16.5809 48.7571 16.5568 48.7029C16.5225 48.6257 16.4616 48.4901 16.4238 48.4845C16.3856 48.479 16.3389 48.6295 16.314 48.708C16.2513 48.9059 16.202 49.1082 16.1393 49.3057C16.1269 49.3447 16.0857 49.4189 16.0479 49.4062C16.0102 49.3935 15.99 49.3545 15.9806 49.3231C15.9359 49.1709 15.8681 49.0179 15.863 48.8636C15.848 48.3845 15.8574 47.9046 15.8574 47.3776C16.0016 46.1905 15.639 45.0569 15.191 43.9266C14.8207 42.9927 14.4894 42.0379 14.5135 41.009C14.5143 40.9721 14.5053 40.9327 14.5152 40.8988C14.5401 40.8135 14.5731 40.7309 14.6027 40.6473C14.6323 40.7203 14.6675 40.7919 14.6907 40.8665C14.8173 41.2756 14.9293 41.6894 15.073 42.0926C15.1202 42.2245 15.2622 42.3203 15.3356 42.447C15.3858 42.5339 15.3996 42.6446 15.4167 42.7468C15.4643 43.0338 15.4888 43.3259 15.5545 43.6091C15.6124 43.8596 15.6939 43.8707 15.8617 43.685C15.9029 43.6392 15.9346 43.5841 15.9793 43.5421C16.0531 43.4726 16.1436 43.3305 16.2123 43.3454C16.2809 43.3602 16.2548 43.5591 16.2445 43.6629C16.2247 43.8575 16.1629 44.0487 16.1518 44.2433C16.1222 44.7487 16.1539 45.2413 16.3655 45.7216C16.5839 46.2181 16.5139 46.7179 16.3015 47.2178C16.1998 47.4573 16.1895 47.7375 16.1612 48.0017C16.1552 48.0589 16.2161 48.2085 16.2964 48.1899C16.3766 48.1712 16.4208 48.0839 16.4212 48.0309C16.4247 47.3933 16.7898 46.8782 17.0053 46.3135C17.0692 46.146 17.0782 46.0108 16.9967 45.8289C16.9293 45.6784 16.9684 45.4546 17.0228 45.2828C17.255 44.5536 17.7798 44.0004 18.2261 43.4009C18.3436 43.2428 18.4822 43.0999 18.5989 42.9414C18.7131 42.787 18.8165 42.7599 18.9551 42.9138C19.1422 43.1215 19.2743 43.0817 19.443 42.8523C19.8566 42.291 20.4179 41.9608 21.1371 41.9162C21.2486 41.9095 21.3649 41.8459 21.4623 41.7831C21.6151 41.6848 21.7524 41.5635 21.8979 41.4537C22.082 41.3146 22.2364 41.3036 22.4051 41.5046C22.4656 41.5767 22.6655 41.6178 22.7488 41.5741C23.0818 41.3994 23.3324 41.5644 23.5606 41.7454C23.7705 41.9116 23.9417 42.1261 24.1228 42.3258C24.209 42.4207 24.2742 42.4589 24.3313 42.3088C24.527 41.7933 24.8608 41.5648 25.4388 41.7212C25.6478 41.778 25.895 41.5957 26.1104 41.7755C26.1293 41.7912 26.1919 41.7814 26.2164 41.7619C26.5867 41.4651 27.0561 41.4698 27.4805 41.4363C27.7774 41.413 28.0255 41.4749 28.137 41.1268C28.1413 41.1137 28.2782 41.1217 28.34 41.1497C28.7781 41.3481 29.2154 41.5487 29.647 41.7606C29.8667 41.8688 30.0603 41.9192 30.2418 41.6962C30.3684 41.541 30.4906 41.619 30.5717 41.745C30.7914 42.0867 31.139 42.1859 31.5038 42.1859C31.7998 42.1859 32.041 42.2732 32.2487 42.4551C32.4062 42.5929 32.5306 42.6141 32.701 42.4763C32.9168 42.302 33.1056 42.3449 33.318 42.5399C33.8312 43.0117 34.159 43.5879 34.386 44.2293C34.6499 44.9755 34.8469 45.7394 35.2975 46.4212C35.5901 46.8642 35.7454 47.3958 35.9566 47.8906C35.9836 47.9538 35.9716 48.0318 35.9827 48.1026C36.0102 48.2802 36.0038 48.4731 36.0767 48.6291ZM45.9769 25.5737C46.0323 25.9252 46.0392 26.2838 46.0744 26.7319C46.0267 27.5701 45.9705 28.4998 45.6122 29.3791C45.5899 29.4342 45.5393 29.5283 45.4689 29.5135C45.3985 29.4991 45.429 29.41 45.4217 29.3566C45.311 28.5431 45.202 27.7295 45.0926 26.9159C45.0878 26.8795 45.0913 26.8367 45.0733 26.8082C45.0424 26.7599 44.9964 26.7209 44.957 26.6781C44.9308 26.7268 44.8763 26.7794 44.8823 26.8235C44.9368 27.2102 44.9823 27.5998 45.0698 27.9796C45.1629 28.3837 45.1574 28.761 45.0449 29.1701C44.9038 29.6839 44.8034 30.2245 44.7973 30.7548C44.7888 31.5341 44.5974 32.2268 44.1181 32.8432C43.8121 33.2366 43.6812 33.6826 43.6757 34.1787C43.6731 34.4068 43.6246 34.6421 43.5517 34.8595C43.4907 35.0414 43.3822 35.2068 43.1337 35.2178C42.6849 35.2381 42.5467 35.1716 42.542 34.7251C42.5381 34.3678 42.6068 33.9892 42.7364 33.6555C42.9694 33.0548 43.1517 32.4502 43.1685 31.8067C43.1762 31.5141 43.1226 31.2191 43.1384 30.9274C43.1535 30.6535 43.1843 30.369 43.2762 30.113C43.4817 29.5394 43.7769 28.9942 43.9413 28.4112C44.04 28.061 44.0288 27.6464 43.9447 27.289C43.8323 26.8104 43.8911 26.4169 44.2266 26.0676C44.6527 25.6237 45.0878 25.1887 45.5195 24.75C45.6268 24.641 45.7092 24.6427 45.756 24.8025C45.8319 25.0594 45.9358 25.3117 45.9769 25.5737ZM18.4299 41.1798C18.4071 41.1663 18.3728 41.1531 18.3505 41.129C18.3406 41.1184 18.3471 41.0743 18.3604 41.0645C19.3649 40.3294 19.5022 39.0978 20.0935 38.1269C20.2115 37.9336 20.4016 37.7827 20.5642 37.6178C20.5921 37.5898 20.65 37.5906 20.6938 37.5784C20.6925 37.6313 20.7114 37.6983 20.6861 37.7356C20.4025 38.1562 20.348 38.6404 20.2381 39.1186C20.0184 40.0737 19.4606 40.7877 18.511 41.1582C18.4891 41.1671 18.4646 41.1709 18.4299 41.1798ZM9.2016 35.0482C9.02481 34.5149 8.85489 33.9794 8.68754 33.4431C8.66994 33.3867 8.66608 33.3185 8.6811 33.2621C8.69526 33.2087 8.70813 33.115 8.77507 33.115C8.84201 33.115 8.88921 33.1786 8.90466 33.2239C9.0261 33.5822 9.14496 33.9413 9.24794 34.305C9.31102 34.528 9.39556 35.1716 9.33334 35.1856C9.27112 35.2 9.21962 35.1025 9.2016 35.0482ZM38.7522 24.5829C38.7178 24.6817 38.5157 24.6105 38.5157 24.6105C38.5157 24.6105 37.6017 24.3154 37.155 24.1123C36.4449 23.7893 35.7347 23.7596 34.9864 23.9483C34.5083 24.0687 34.0136 24.1242 33.5278 24.2149C33.0665 24.301 32.6061 24.3917 32.1466 24.4863C31.6509 24.588 31.1558 24.6936 30.6614 24.8021C29.9152 24.9662 29.1596 24.9683 28.4018 24.9412C28.3275 24.9386 28.252 24.9382 28.1795 24.9238C28.1533 24.9187 28.1207 24.8763 28.1181 24.8483C28.1164 24.8301 28.1606 24.7932 28.1885 24.789C28.47 24.7427 28.7515 24.6957 29.0343 24.6597C30.301 24.4973 31.5698 24.3472 32.8348 24.1721C33.1502 24.1284 33.4665 24.0369 33.7621 23.9177C34.6946 23.543 35.6532 23.5531 36.6157 23.7168C36.9632 23.7761 37.2923 23.9411 37.6296 24.0585C37.954 24.1717 38.2793 24.2828 38.6015 24.4019C38.6595 24.4235 38.786 24.4846 38.7522 24.5829ZM20.8333 24.8695C20.8333 24.9272 20.756 24.9348 20.7166 24.9356C20.5552 24.939 20.3866 24.9585 20.2338 24.9208C19.0843 24.6376 17.936 24.3476 16.7903 24.0487C16.0308 23.8508 15.2635 23.7316 14.4761 23.7448C14.0144 23.7524 13.6548 23.9818 13.2982 24.2332C13.2124 24.2938 13.0618 24.4019 12.994 24.351C12.9262 24.3001 13.0871 24.1323 13.1665 24.0555C13.6059 23.6303 14.1483 23.4599 14.9571 23.4531C15.3704 23.5285 15.987 23.6053 16.5839 23.7592C17.5614 24.011 18.5217 24.3264 19.4971 24.5863C19.8888 24.6906 20.302 24.7173 20.7041 24.7856C20.7509 24.7932 20.8333 24.8119 20.8333 24.8695ZM32.0466 22.8286C32.1358 22.7985 32.2234 22.7637 32.3139 22.7396C32.8623 22.5937 33.4055 22.4233 33.9612 22.3143C34.4942 22.2096 35.0404 22.1694 35.5549 22.1036C36.0582 22.1613 36.5268 22.2071 36.9924 22.277C37.0709 22.2889 37.1224 22.4233 37.2048 22.4691C37.3752 22.5632 37.5605 22.6302 37.7335 22.7201C37.788 22.7485 37.9081 22.7989 37.8648 22.8646C37.8214 22.9303 37.7167 22.8943 37.6554 22.8731C37.5408 22.8337 37.4339 22.7701 37.3267 22.7112C36.5667 22.2944 35.7682 22.1995 34.9203 22.3877C34.4023 22.5026 33.8728 22.5645 33.3506 22.6633C33.0129 22.7273 32.6812 22.8239 32.3431 22.8867C32.2513 22.9036 32.1457 22.8498 32.0466 22.8286Z" fill="#D8D8D8"/>
</svg>
