<svg width="121" height="119" viewBox="0 0 121 119" fill="none" xmlns="http://www.w3.org/2000/svg">
<path d="M51.5063 40.8429C51.4463 40.9029 51.4463 40.9129 51.1163 41.2629C51.1363 41.2429 50.6863 41.7329 51.5063 40.8429ZM50.0863 52.3729L49.9763 52.1929C50.2663 52.7029 50.6263 53.1829 51.0163 53.6229C50.6763 53.2329 50.3563 52.8129 50.0963 52.3729H50.0863ZM59.5163 57.6329C58.9863 57.5729 57.9663 57.5329 56.8663 57.2329C55.7663 56.9629 54.5963 56.4829 53.7563 55.9329L53.4763 55.7529C53.2063 55.6229 52.9763 55.4229 52.7163 55.2629C53.6763 56.0029 54.9263 56.6829 56.1863 57.0629C57.4363 57.4529 58.6563 57.6129 59.5163 57.6329ZM65.4063 56.4729C65.2363 56.5429 65.5163 56.3829 65.5463 56.3629C65.5763 56.3429 65.3663 56.5129 64.0963 57.0329C64.2263 56.9929 64.2663 56.9829 64.3463 56.9529C64.5763 56.8529 64.8863 56.7129 65.4163 56.4729H65.4063ZM64.3363 56.9529C63.7663 57.1529 63.9563 57.0929 64.1963 57.0129C64.4363 56.9329 64.7063 56.7929 64.3363 56.9529ZM68.8563 53.7629L68.3263 54.3529L67.7363 54.8929C67.8663 54.7829 68.2163 54.5129 68.4463 54.2829C68.6763 54.0429 68.8263 53.8829 68.6563 54.0829C69.7563 52.8729 69.5063 53.1029 68.8463 53.7629H68.8563ZM69.7563 52.5629C69.5963 52.7829 69.4363 53.0129 69.2763 53.2229C69.3763 53.1229 69.5063 52.9429 69.7563 52.5629ZM68.0963 54.5029C68.5263 54.1029 68.8763 53.6529 69.2763 53.2229C69.1063 53.3829 69.0663 53.3729 68.7463 53.8129C68.8163 53.6829 68.6263 53.9729 68.1063 54.5029H68.0963ZM67.3463 55.1429C66.6063 55.6529 65.6763 56.3029 66.9463 55.3529C65.7263 56.2429 65.1163 56.4829 65.2363 56.4629C65.2963 56.4629 65.5063 56.3329 65.8763 56.1329C66.2563 55.9429 66.7463 55.6029 67.3563 55.1429H67.3463ZM60.0863 57.5529C59.6963 57.5829 59.3063 57.5229 58.9263 57.5029C58.5863 57.5029 58.2563 57.4329 57.9263 57.4029C58.4163 57.5129 60.1663 57.6129 60.0863 57.5529ZM72.8463 44.8529C72.8263 44.7529 72.7363 45.3829 72.6763 45.4929L72.5163 46.6629C72.6263 46.0829 72.8063 45.0829 72.8463 44.8529ZM72.6763 45.4929C72.7563 44.9129 72.7263 44.3229 72.7663 43.7329C72.6963 45.3029 72.6363 45.5829 72.6763 45.4929ZM69.8363 52.2629C69.3163 53.0529 68.6963 53.7829 68.0263 54.4629C68.4463 54.0729 68.7863 53.6229 69.1763 53.2029C69.5163 52.7529 69.8463 52.2829 70.1563 51.8229C70.0663 51.9829 69.9463 52.1229 69.8363 52.2729V52.2629ZM71.9363 38.1729L72.3263 39.1129C72.0963 38.5529 71.9063 37.9829 71.5963 37.4629C71.7063 37.7029 71.8463 37.9229 71.9363 38.1729ZM69.7263 34.2429C69.9663 34.5329 69.8463 34.3029 69.7163 34.0829C69.5863 33.8629 69.4263 33.6729 69.7163 33.9629C69.2963 33.5029 68.9163 33.0629 68.5263 32.7029C68.1163 32.3629 67.7363 32.0429 67.3763 31.7329C67.7563 32.0629 68.1363 32.4129 68.5463 32.7929C68.9263 33.2129 69.3363 33.6829 69.7363 34.2429H69.7263ZM66.0763 30.8129C66.4763 31.1129 66.9363 31.3629 67.3663 31.7229C66.9663 31.3729 66.5163 31.1029 66.0763 30.8129ZM72.4963 40.7529C72.4863 40.6129 72.4763 40.3529 72.2563 39.3829L72.3363 40.0829C72.3863 40.2929 72.4363 40.5229 72.4963 40.7629V40.7529ZM72.3463 40.1029V40.0829C72.1963 39.3429 71.9863 38.8629 71.9263 38.6429C71.9763 38.8329 72.1763 39.2529 72.3463 40.1029ZM72.5363 40.9229C72.5363 40.8629 72.5163 40.8129 72.5063 40.7529C72.5063 40.8229 72.5163 40.8629 72.5363 40.9229ZM71.9363 48.2329C72.2263 47.2429 72.5863 45.1529 72.0863 47.1429C71.9463 47.8629 72.3063 46.7329 71.9363 48.2329ZM72.5463 41.7829C72.6563 42.3929 72.6163 43.0229 72.6463 43.6329C72.6663 43.5929 72.6863 43.2629 72.7163 43.7729C72.6663 43.1129 72.6763 42.4429 72.5363 41.7829H72.5463ZM72.3963 40.8829L72.5463 41.7829L72.4563 41.1029L72.3963 40.8929V40.8829ZM68.4663 32.9629C68.1563 32.6929 67.8363 32.4229 67.5063 32.1329C67.1863 31.8229 66.8163 31.5329 66.4063 31.2429L67.0363 31.7429L67.6263 32.3029C68.0163 32.6729 68.4263 33.0229 68.7663 33.4329C68.8863 33.5229 69.2363 33.8329 68.4663 32.9729V32.9629ZM70.8263 36.1729C70.8263 36.1729 70.7563 36.0629 70.7363 36.0229C70.7863 36.1229 70.8263 36.2029 70.8263 36.1729ZM57.4063 27.5229C57.4563 27.5429 57.5063 27.5529 57.5563 27.5729H57.5963L57.4063 27.5229ZM68.8663 33.5629C69.4063 34.1629 69.6863 34.5529 69.9763 34.9029C69.7963 34.6629 69.6063 34.4129 69.4163 34.1529C69.2063 33.9129 68.9863 33.6629 68.7563 33.4129C68.7063 33.3729 68.6863 33.3729 68.8663 33.5629ZM63.7063 29.3829C64.0763 29.5729 64.4663 29.8729 64.8863 30.1329C64.5463 29.8929 63.8663 29.3929 63.7063 29.3829ZM70.6063 35.7729C70.6063 35.7729 70.6463 35.8429 70.6663 35.8729C70.5463 35.6329 70.5563 35.6629 70.6063 35.7729ZM70.6063 35.7729C70.3963 35.4129 70.1863 35.1629 69.9763 34.9129C70.2863 35.2929 70.5163 35.6829 70.7263 36.0229C70.6863 35.9329 70.6463 35.8429 70.6163 35.7729H70.6063ZM54.4463 28.1729C54.5663 28.0229 56.6463 27.8829 58.3763 28.3429C59.2363 28.4629 59.4063 28.4329 59.1863 28.2329C58.9663 28.0329 58.3263 27.7729 57.5563 27.5629C57.4963 27.6329 57.4963 27.5629 55.6463 27.5629C56.3063 27.5629 59.6563 28.1929 58.1163 28.0529C56.9263 27.8829 56.4363 27.8629 56.0963 27.8229C55.7563 27.7829 55.5763 27.7229 54.9863 27.6829C55.4863 27.7429 54.7163 27.8129 53.9063 27.9129C53.0863 27.9829 52.2463 28.2529 52.5163 28.3029C53.1963 28.1529 53.8863 28.0929 54.5763 28.0429C54.6163 28.0729 53.8663 28.1629 54.4463 28.1629V28.1729ZM60.9763 28.3829L61.6963 28.6329C61.2963 28.4729 60.9463 28.3329 60.5663 28.1729C60.1763 28.0429 59.7563 27.9029 59.2063 27.7229C57.9463 27.4929 57.6763 27.5529 57.5863 27.5529C58.2063 27.6529 58.8263 27.7329 59.4263 27.9129C60.0363 28.0629 60.6363 28.2229 61.2163 28.4529L60.9663 28.3829H60.9763ZM64.7563 30.1329C64.4663 30.0329 63.9563 29.7229 63.5763 29.6029C63.2063 29.4729 63.0363 29.4329 63.5063 29.7229C64.4763 30.2329 64.8063 30.4529 65.0563 30.5529C65.3063 30.6629 65.4663 30.7329 66.0063 31.1129C65.2963 30.5629 64.9463 30.4129 64.8563 30.3329C64.7663 30.2729 64.9063 30.3429 65.0763 30.4329C65.4163 30.6129 65.8663 30.8429 64.7763 30.1429C65.4063 30.4729 65.9163 30.8629 66.3963 31.2229C65.8863 30.8229 65.3963 30.4229 64.8863 30.1229C64.9163 30.1429 64.9363 30.1529 64.9563 30.1729H64.9663C65.0963 30.2629 65.1363 30.3029 64.9863 30.2029C64.9763 30.2029 64.9363 30.1729 64.9163 30.1629C64.8863 30.1629 64.8263 30.1429 64.7563 30.1129C63.8763 29.5529 64.6263 30.0029 64.9163 30.1629C64.9263 30.1629 64.9563 30.1729 64.9663 30.1629H64.9563C63.9263 29.5229 62.8363 29.0029 61.7063 28.6029C62.0663 28.7229 62.4563 28.9029 62.9463 29.1429C63.1963 29.2629 63.4663 29.3929 63.7763 29.5329C64.0763 29.6829 64.3963 29.8929 64.7663 30.1029L64.7563 30.1329ZM72.2463 45.2629C72.2663 45.1529 72.2763 45.1629 72.2763 45.1529C72.2763 44.9229 72.2963 44.8429 72.2463 45.2629ZM72.3763 43.8229C72.3763 44.0829 72.3963 44.2929 72.3463 45.1229C72.2163 45.8329 72.3063 45.1229 72.2763 45.1529C72.2263 45.6429 72.0763 46.8929 72.3363 45.3429L72.3563 45.0929C72.5163 43.6829 72.4563 41.8329 72.4763 42.0829C72.4563 42.5029 72.4063 42.8829 72.3663 43.8229H72.3763ZM70.3663 35.9329C69.8463 35.0929 69.2363 34.3129 68.5463 33.6029C68.8563 34.0029 69.1863 34.3729 69.4463 34.8029V34.7129C70.4263 36.0729 70.2063 35.7829 70.3663 35.9329ZM57.0563 27.4029L57.4663 27.3429C56.8863 27.2829 56.2863 27.3429 55.7063 27.3729C56.1563 27.3829 56.6063 27.3729 57.0563 27.4129V27.4029ZM53.1263 27.3829L53.2563 27.2429L52.2263 27.4529L53.1163 27.3829H53.1263ZM25.4563 13.7029L24.8963 14.2829C25.1763 14.0229 25.3463 13.8429 25.4563 13.7029ZM30.2663 10.4629V10.1929C30.1063 10.4429 30.0563 10.5729 30.2663 10.4629ZM83.6063 66.9929C84.6963 66.2429 85.9763 65.3929 85.6463 65.3129L85.1463 65.4129C84.5563 66.1129 84.0763 66.6229 83.6063 66.9929ZM76.8063 10.5329C76.8763 10.6329 76.9563 10.7429 77.0263 10.8529C77.3563 10.9229 77.6563 10.9829 77.9363 11.0429C77.5963 10.8929 77.2063 10.7229 76.8063 10.5429V10.5329ZM75.1463 11.4029C74.7863 11.0029 74.3763 10.6629 73.9663 10.3329C74.2263 10.5929 74.6363 10.8929 75.1463 11.4029ZM8.91629 40.2829L9.26629 41.3429C9.58629 39.9329 9.15629 40.4729 8.91629 40.2829ZM36.0363 58.1329C36.3563 59.2129 36.7463 60.0329 37.0563 60.7629C36.5963 59.4629 36.2763 58.4229 36.0363 58.1329ZM24.2563 7.96286C23.8563 8.36286 23.7263 8.58286 23.8063 8.66286C24.2163 8.26286 24.4263 7.99286 24.2563 7.96286ZM38.7763 63.5529C38.6763 63.3829 38.5763 63.2129 38.4663 63.0429C37.9663 62.3829 37.5663 61.6429 37.0563 60.7729C37.5063 61.6729 37.9663 62.7729 38.7763 63.5629V63.5529ZM76.7963 109.483C76.8863 109.503 76.9863 109.513 77.0663 109.543C77.0763 109.433 76.9663 109.443 76.7963 109.483ZM112.396 103.843C112.136 104.113 111.626 104.443 111.166 104.783C111.426 104.673 111.816 104.413 112.396 103.843ZM39.5963 34.8929C40.0963 34.2229 39.6663 34.7729 39.5963 34.8929ZM42.7963 32.3929C42.6763 32.5229 42.5963 32.6229 42.6063 32.6629C42.6363 32.5929 42.7063 32.5029 42.7963 32.3929ZM45.4563 68.4029C45.4563 68.4029 45.4863 68.4329 45.5163 68.4429C45.3463 68.2629 45.3763 68.2929 45.4563 68.4029ZM40.4663 33.9829C40.2463 34.2129 39.9663 34.4429 39.7263 34.7529C39.8263 34.6129 40.0563 34.3829 40.4663 33.9829ZM40.2963 34.0629C40.4963 33.8529 40.6563 33.6929 40.8063 33.5329C40.8563 33.4429 40.7863 33.4929 40.2963 34.0629ZM38.9063 35.8329C39.1963 35.4529 39.4663 35.1029 39.7363 34.7629C39.6263 34.8829 39.5763 34.9329 39.6063 34.9029C39.4563 35.1029 39.2563 35.3829 38.9163 35.8429L38.9063 35.8329ZM19.3763 90.9129C19.3963 90.9629 19.4263 91.0129 19.4463 91.0829C20.1763 91.4729 19.9163 91.2429 19.3763 90.9129ZM90.7463 47.4129C90.7463 47.4129 90.7463 47.4729 90.7463 47.5029C90.7563 47.4729 90.7763 47.4229 90.7863 47.3929L90.7563 47.4129H90.7463ZM90.9063 44.6529C91.1463 45.8629 91.0563 46.5429 90.7763 47.3929C91.1663 47.1629 91.5263 46.9229 91.8763 46.6629C91.5563 45.9729 91.2363 45.3029 90.9063 44.6529ZM17.3563 22.1629C16.3463 22.9729 15.6563 24.0029 15.1863 24.9829C14.9363 25.4629 14.7863 25.9629 14.6863 26.4329C14.5863 26.8929 14.4963 27.3129 14.4263 27.6629C13.7363 28.3629 13.7163 26.3529 12.5763 28.8729C11.0063 32.4129 13.9763 28.8129 13.0963 30.9329L11.6263 32.0529C11.4763 32.8029 11.2763 33.4629 11.0463 34.0729C10.9263 34.3829 10.8063 34.6729 10.6663 34.9529C10.5563 35.2429 10.4363 35.5329 10.3263 35.8129C9.86629 36.9429 9.31629 37.9929 8.85629 39.1529C8.73629 39.7029 8.76629 40.0029 8.83629 40.1629C8.34629 41.3929 8.25629 42.8029 8.19629 44.1029C8.13629 44.7529 8.21629 45.3929 8.20629 45.9829C8.20629 46.5729 8.15629 47.1129 8.02629 47.5929C7.89629 47.1129 7.29629 48.6229 7.02629 48.8429C7.03629 49.1429 7.02629 49.4429 7.06629 49.7429L7.18629 50.6529L7.41629 52.4429C7.21629 50.8629 6.66629 50.8829 6.14629 50.5529C6.15629 51.6929 6.43629 52.2429 6.48629 53.0129C6.30629 52.5429 6.12629 52.0529 5.85629 52.6429L6.23629 54.5529C6.40629 55.1829 6.61629 55.8129 6.79629 56.4329C6.87629 56.2129 6.88629 55.7729 6.88629 55.4129C6.95629 56.3529 7.41629 58.3429 7.04629 59.7229C6.80629 59.6229 6.59629 59.1829 6.36629 59.0829C6.91629 57.9029 6.35629 57.3029 5.90629 56.7129C6.14629 59.3429 5.79629 57.3729 5.47629 58.6829C5.50629 59.1529 5.56629 59.5529 5.68629 59.8629C5.81629 60.1829 5.96629 60.4229 6.11629 60.5829C6.41629 60.9129 6.73629 60.9429 6.93629 60.6729C6.98629 61.7129 7.00629 62.4029 7.11629 63.0829C7.24629 63.7629 7.37629 64.4529 7.96629 65.4029L7.10629 65.1729L7.82629 67.0229L6.50629 65.6829C6.94629 69.5029 7.92629 66.0729 8.63629 70.1929L7.97629 70.4129C8.78629 71.8729 10.0763 71.9729 9.70629 73.4329C10.6263 74.7229 9.74629 70.6229 11.0963 73.9429C11.0163 74.6529 11.3763 75.9929 11.6863 77.0029C12.4763 77.9029 12.0663 75.8529 11.6663 75.2429C14.2763 79.9429 10.9663 79.4129 14.3063 83.2229C13.8763 81.5029 16.2063 83.6529 14.1563 80.3129C14.8263 81.0029 15.0763 81.9228 15.3763 82.8428C15.6863 83.7528 16.1763 84.5829 17.0663 85.1429L15.5363 84.6529C15.9563 85.2429 16.7163 85.6829 17.0363 85.9229L16.3663 86.2229C17.6263 86.8229 18.1263 87.8629 18.7863 88.6429C19.3963 89.4529 19.9763 90.1629 21.0763 90.1229C20.2463 90.2029 20.5763 90.5229 21.1363 90.9629C21.4163 91.1829 21.7563 91.4329 22.0563 91.6829C22.3663 91.9229 22.6263 92.1729 22.7163 92.4329C21.6063 92.1029 20.6663 90.9929 19.7963 90.1029C18.9363 89.2129 18.1963 88.5129 17.6363 88.7929C18.0063 89.7429 19.0363 89.9829 19.3963 90.9029C18.8263 90.5429 17.9463 90.0629 17.5863 90.0329C18.4063 91.4529 19.4063 92.2729 20.3663 92.8729C21.3663 93.4429 22.3763 93.7429 23.1863 94.2929C22.3163 93.5729 21.3563 92.9029 20.5363 92.1229C21.5663 91.4829 21.7663 93.0629 23.1263 93.0129C23.8863 94.6829 25.5663 94.7729 26.3363 95.9729C26.0663 95.7329 25.9663 95.8129 25.6863 95.5729C27.0763 96.7729 27.7463 97.8129 28.1463 98.7929C28.5463 99.7729 28.7863 100.543 29.3863 100.993C30.4863 102.013 33.2463 102.883 32.6763 101.893C33.2863 102.043 32.1563 101.513 31.2763 100.823C30.3863 100.133 29.7063 99.3829 31.0463 99.3029C31.2063 99.9829 31.5363 100.453 31.9963 100.813C32.4663 101.153 33.0563 101.383 33.7163 101.643C35.0263 102.183 36.6663 102.683 38.3863 104.313C36.2463 104.043 38.9663 105.813 37.0863 105.473C39.1663 106.313 39.3663 106.093 40.4863 106.013L40.8463 106.833C42.4563 106.773 42.7263 106.553 43.1363 106.483C43.5363 106.423 44.1063 106.483 46.2363 106.863C44.7163 106.823 47.5563 108.303 46.3763 108.343C47.5063 108.763 48.6963 108.923 49.6363 108.833L49.4563 108.873C53.7563 109.683 52.7463 110.603 56.8163 110.673L56.4963 110.233C59.1563 110.163 62.0463 110.443 64.9763 110.543C67.9063 110.643 70.8763 110.673 73.5063 110.173C72.8763 110.113 72.2563 110.073 71.6263 109.983C72.2163 110.153 75.1163 109.113 76.7963 109.473C76.4763 109.553 75.9363 109.803 75.6163 109.793C75.7063 110.233 76.4263 110.823 77.7263 110.773L78.1263 110.023L78.7163 110.473C80.6463 110.143 78.0063 109.593 79.9163 109.253C80.6463 110.163 82.7463 109.803 84.8763 109.313C85.9363 109.033 87.0063 108.763 87.9463 108.603C88.8763 108.423 89.6863 108.393 90.2363 108.683C91.0463 106.853 86.6063 109.653 87.6163 107.913C88.2463 107.933 88.5763 108.113 89.8263 107.823L89.1363 107.123C91.9963 106.433 93.9963 105.913 95.8863 105.313C97.7663 104.703 99.5463 103.983 101.796 102.573L101.706 102.853C103.546 102.243 104.296 101.473 104.586 100.373C105.156 100.523 104.116 101.443 104.946 101.363C105.346 100.433 105.906 99.7828 106.586 99.3428C107.256 98.8828 108.066 98.6629 108.806 98.3829C110.296 97.8729 111.806 97.5229 112.016 96.1829C112.526 96.9929 113.906 97.0229 115.156 97.1029C116.406 97.2029 117.446 97.3029 117.236 98.5329L118.166 97.3529C118.696 98.6529 114.716 100.453 114.856 101.983C113.316 102.593 111.846 103.253 110.296 103.753C110.686 104.043 110.446 105.053 111.166 104.753C110.216 105.433 109.396 106.073 111.056 105.743C105.446 107.673 100.506 110.293 95.2363 112.453C90.0163 114.613 84.4963 116.343 78.9263 116.303C78.2063 116.493 78.6763 116.843 79.0063 117.073C76.8363 116.203 77.1363 117.863 76.0163 118.143C74.9563 117.693 73.9263 117.223 72.9163 116.763C71.7363 117.313 72.6963 117.733 72.6363 118.053C71.2163 118.173 69.7963 118.163 68.4063 118.073C67.0163 117.923 65.6463 117.813 64.3363 117.573C63.0163 117.373 61.7363 117.183 60.5063 116.993C59.2663 116.833 58.0763 116.763 56.9063 116.763C55.5663 115.973 57.4463 115.613 55.6063 115.103C56.7363 116.073 55.3363 116.083 53.8263 115.843C52.3263 115.643 50.7063 115.323 51.3863 116.053C50.6763 115.003 49.0363 114.483 47.7663 113.913C46.4963 113.323 45.5963 112.763 46.3463 111.823C44.2763 110.993 44.2763 112.083 44.8163 112.533C43.6063 112.013 42.4963 111.593 41.4163 111.223C40.3563 110.833 39.3063 110.563 38.1663 110.433C37.6263 109.873 34.8363 108.673 32.1363 107.073C30.8163 106.223 29.4563 105.373 28.4363 104.473C27.4163 103.573 26.6363 102.763 26.4163 102.083C27.0763 103.873 25.9863 102.463 24.5063 101.853L25.0563 103.453C24.1563 102.693 23.2363 101.953 22.3563 101.173C21.7563 100.763 21.6263 100.603 21.6863 100.543C21.2663 100.113 22.1263 100.233 21.1463 99.0729C19.4063 97.4529 19.0363 97.6929 17.7463 97.1229L17.9163 97.4729C17.5163 97.1029 17.0763 96.7729 16.6963 96.3729C16.2963 95.9029 17.1663 96.5729 17.8963 96.8529C18.6063 97.1529 19.1063 97.1729 17.8763 95.6729C17.6763 95.8229 15.2763 94.8929 15.0363 93.6729C16.3363 95.2129 16.6163 94.5829 16.3263 93.8629L14.5263 91.7529L14.2863 93.1729C9.05629 86.9229 5.57629 79.0929 3.18629 70.9629C4.09629 70.8229 1.83629 65.1029 3.32629 65.5729L3.27629 65.9129C3.89629 67.8629 4.09629 65.1329 3.80629 63.5429C3.63629 65.3429 2.05629 60.6429 2.45629 64.8929L1.37629 61.6929C0.706291 61.3029 0.216291 60.5529 0.106291 59.5329C-0.0437091 58.5229 -0.0137091 57.2729 0.0662909 55.9429C0.0862909 54.6029 0.426291 53.1729 0.586291 51.7729C0.776291 50.3629 0.816291 48.9729 0.866291 47.6929C0.906291 48.0629 1.01629 48.1629 1.08629 48.2229C1.05629 45.9429 1.49629 43.4129 2.30629 41.4529C3.02629 39.4629 3.63629 37.9329 3.68629 37.4029L4.43629 37.2229C4.59629 35.2829 4.71629 34.1629 5.02629 33.0329C5.39629 31.9229 6.04629 30.8129 7.18629 28.8229C7.24629 28.9229 7.18629 29.4829 7.61629 28.8829C7.61629 27.6629 7.86629 26.5129 9.57629 23.8629L9.67629 24.0729C10.4363 22.6129 11.4663 21.3329 12.4063 19.9829C12.7763 20.2729 13.2163 19.9529 13.7063 19.3129C13.9563 19.0029 14.1863 18.5829 14.4963 18.1729C14.7963 17.7529 15.1263 17.3029 15.4663 16.8429C16.1363 15.9129 16.8463 14.9529 17.5463 14.2429C17.8863 13.8729 18.2463 13.6029 18.6163 13.4429C18.9763 13.2729 19.3063 13.2029 19.6163 13.2629C19.7863 12.7529 20.5163 11.8629 21.3463 10.9429C22.1963 10.0529 23.2263 9.25286 23.7963 8.66286C23.8463 8.71286 23.9763 8.72286 24.2463 8.63286C24.4963 8.17286 24.8963 7.71286 25.4363 7.37286C25.9763 7.03286 26.6163 6.73286 27.2663 6.46286C27.9163 6.20286 28.5763 5.93286 29.1963 5.68286C29.8163 5.44286 30.4163 5.27286 30.8763 5.02286C32.0263 4.25286 31.3663 4.23286 30.6863 4.21286C31.3863 4.09286 32.1463 3.79286 32.9063 3.41286C33.6663 3.02286 34.4863 2.68286 35.2363 2.27286C35.9963 1.88286 36.7063 1.51286 37.2763 1.21286C37.8663 0.942855 38.3463 0.822855 38.6063 0.822855C40.5963 0.432855 39.4963 1.27286 40.1163 1.50286C41.5363 1.08286 41.3363 0.742855 41.2863 0.482855C41.2363 0.242855 41.3163 -0.0671446 43.3763 0.0128554C42.9263 0.142855 42.0763 0.322855 42.4263 0.372855C43.1963 0.332855 44.3363 0.692855 45.4163 0.992855C46.4963 1.25286 47.5463 1.59286 48.2663 1.38286L47.2763 1.13286C48.6163 0.882855 50.2463 1.08286 51.5463 1.36286C52.8463 1.67286 53.8463 1.88286 54.0963 1.36286L53.8763 0.852855C54.4563 0.962855 54.9163 1.04286 55.2963 1.11286C55.6763 1.19286 55.9663 1.26286 56.1963 1.31286C56.6663 1.40286 56.9163 1.41286 57.1663 1.42286C57.4163 1.42286 57.6763 1.43286 58.1563 1.52286C58.3963 1.56286 58.6963 1.62286 59.0663 1.71286C59.4463 1.79286 59.9063 1.92286 60.4563 2.14286L60.3863 2.20286C62.4063 2.63286 63.3263 3.40286 64.4963 3.00286C64.2863 2.89286 64.0763 2.77286 63.8463 2.69286C65.0763 3.04286 65.7263 3.31286 66.3963 3.55286C66.7263 3.68286 67.0563 3.80286 67.4563 3.95286C67.8563 4.10286 68.3363 4.27286 68.9163 4.57286C69.2163 4.63286 70.4163 5.07286 70.6763 5.37286C70.7663 5.24286 71.1663 5.33286 71.7363 5.53286C72.3163 5.71286 73.0063 6.10286 73.7163 6.54286C75.1263 7.41286 76.6363 8.37286 77.0663 8.78286C76.2163 8.18286 75.9063 8.16286 75.9063 8.27286C75.9063 8.39286 76.1763 8.69286 76.3263 8.97286C77.5763 9.28286 78.2963 9.76286 79.4263 11.0429C80.0863 10.5929 80.8563 10.1829 83.3963 12.5029C82.9363 12.2229 82.2863 11.7029 82.4263 12.0529C82.5763 12.4029 83.2663 12.8129 83.5063 12.9529C83.6463 13.2929 82.7663 12.6329 82.8763 13.0729C83.4063 13.3429 83.8863 13.6029 84.2663 13.9829C84.6563 14.3529 84.9963 14.7629 85.3563 15.1929C85.7163 15.6329 86.0963 16.0929 86.5163 16.6029C86.9063 17.1429 87.3363 17.7329 87.8763 18.3729C87.0863 17.6329 87.5063 18.4629 87.5363 18.9029C87.9163 18.7829 88.5163 19.7629 88.8263 20.6829C89.1763 21.5729 89.4563 22.2729 89.5763 21.4729C90.3263 22.9229 90.9663 24.6529 91.7063 26.3829C92.2863 28.1729 92.9663 29.9729 93.3063 31.7429C93.7863 33.4829 93.8963 35.1629 94.0663 36.5329C94.1563 37.9129 94.0663 39.0029 93.9563 39.6229C93.7863 40.2929 94.0563 42.0629 94.0163 43.1829L93.7163 43.0129C93.7663 43.4029 93.8063 43.7329 93.8263 44.0229C93.8263 44.3129 93.8263 44.5529 93.8263 44.7729C93.8263 45.2029 93.7963 45.5229 93.7663 45.8629C93.6963 46.5429 93.7263 47.2929 93.4963 49.1429C93.5263 47.5729 93.1963 48.1729 92.5563 49.5729V50.8729L92.4263 52.1529L91.8263 52.4629C91.7363 52.9729 91.5763 53.5029 91.3863 54.0229C91.1863 54.5429 90.8763 55.0429 90.6163 55.5429C90.8463 55.0429 90.6863 55.2929 90.5963 55.2929C90.7463 55.6529 90.3863 56.8929 89.8363 58.0529C89.2563 59.2029 88.6263 60.3529 88.5663 60.7329C87.4463 61.3429 86.8663 63.2729 85.9563 63.6129C85.7863 63.9529 85.4963 64.3329 85.1863 64.7629C85.7463 64.5229 86.0963 64.5529 85.3063 65.2329C85.2463 65.3029 85.2063 65.3529 85.1463 65.4229L84.5963 65.5329C84.2763 65.9429 83.9363 66.3529 83.6163 66.7229C83.2663 67.0629 82.9363 67.3729 82.6763 67.6029C82.9363 67.4129 83.2563 67.2129 83.5963 67.0029C83.2163 67.2629 82.8663 67.5029 82.5263 67.7429C82.4163 67.8329 82.3163 67.9329 82.2363 67.9929C82.2763 67.9429 82.3363 67.8829 82.3963 67.8329C81.8563 68.1929 81.3763 68.6529 80.6763 69.2529C79.0663 70.1729 77.4463 71.4029 75.6063 72.4329C74.6763 72.9129 73.7463 73.4729 72.7363 73.7729C71.7363 74.1229 70.7263 74.4229 69.6963 74.4729C70.3063 74.4029 71.1563 74.2229 71.3363 74.0229C68.0663 75.0529 64.6763 74.9329 62.5663 75.1629L62.7163 75.4229C61.4763 75.4729 60.3663 75.4329 59.3163 75.3929C58.2763 75.2529 57.2963 75.1629 56.3163 74.9429L56.1463 75.1929C55.4363 74.9729 54.5063 74.7829 53.5163 74.4929C52.5463 74.1429 51.4463 73.8429 50.4563 73.3929C49.4763 72.9129 48.4863 72.5229 47.7563 72.0029C47.0063 71.5029 46.4263 71.0629 46.1163 70.7129C45.7463 70.6329 44.9563 69.9829 44.0763 69.2829C43.8563 69.1029 43.6363 68.9229 43.4063 68.7429C43.1963 68.5429 42.9963 68.3429 42.7963 68.1429C42.3963 67.7529 42.0163 67.4029 41.7063 67.1329L41.5363 66.7129C40.8163 65.9029 40.2363 65.2529 39.7263 64.6829C39.2563 64.0829 38.8563 63.5529 38.4563 63.0429C37.4363 61.0829 36.4563 59.2329 35.8163 57.2929C35.4263 56.3529 35.2163 55.3729 34.9663 54.4129C34.7663 53.4529 34.6163 52.4829 34.5463 51.5329L34.5963 51.4929L34.4663 49.5629L34.5163 47.6229C34.5563 48.1329 34.5463 47.9429 34.5363 47.4729C34.5363 47.0029 34.6163 46.2729 34.7163 45.6929C34.8163 44.4529 35.3963 42.5029 36.0263 41.1929C36.2763 40.4029 36.6963 39.6929 37.0363 38.9429C35.9563 41.4529 37.3163 38.8529 37.5263 38.8029C37.7163 38.3229 37.9663 37.8729 38.1963 37.3929C38.5863 36.9029 37.7963 38.3129 38.4163 37.3529C38.6163 36.8629 39.2063 36.0329 39.7963 35.2029C40.3663 34.3629 41.0863 33.6429 41.3363 33.2129C41.2063 33.2929 40.9263 33.5429 40.5863 33.8729C40.5063 33.9729 40.5063 33.9729 40.5563 33.9029C40.5263 33.9329 40.5063 33.9529 40.4763 33.9729C40.5163 33.9329 40.5263 33.9229 40.5663 33.8829C40.6463 33.7729 40.7663 33.6029 40.8063 33.5229C41.4763 32.8129 41.6963 32.5929 41.7263 32.5429C41.7563 32.4929 41.5863 32.6029 41.5363 32.5929C42.4663 31.9329 43.1063 31.3529 43.7963 30.9329C44.1363 30.7129 44.4363 30.4829 44.7863 30.3029C45.1363 30.1329 45.5063 29.9629 45.8963 29.8129C45.3663 30.0329 45.3663 29.9829 45.6563 29.7929C45.8063 29.7029 46.0163 29.5629 46.2763 29.4229C46.5463 29.3029 46.8563 29.1629 47.1663 29.0129C47.7863 28.7029 48.4663 28.4729 48.8963 28.3229C49.3263 28.1629 49.4963 28.0629 49.1363 28.1129C50.7863 27.8429 50.2463 27.8329 51.3063 27.7529C48.9963 28.1129 46.9063 29.2329 45.3963 30.2829C45.9463 30.0229 46.4763 29.7329 47.0563 29.5529C46.5663 29.8829 45.7063 30.3929 44.8263 30.8629C43.9963 31.4029 43.1463 31.9229 42.7963 32.3429C43.2563 31.7629 44.6663 30.9129 44.7263 30.9129L44.2163 31.0329C42.0463 32.4829 40.7663 34.1729 39.7763 35.6829C40.8463 34.3529 38.6463 37.4329 39.5163 36.5229L40.2863 35.4229C40.7063 34.9729 39.9963 36.0629 39.6063 36.7029C38.3463 38.3829 36.9863 41.0829 36.3263 43.6529C36.1863 44.2929 35.9863 44.9129 35.9063 45.5029C35.8163 46.0929 35.7263 46.6529 35.6563 47.1429C35.5563 48.1429 35.5163 48.9029 35.4463 49.2829C35.4963 48.8529 35.5263 48.2429 35.5463 47.6429C35.5463 47.0429 35.6563 46.4629 35.6563 46.0829C35.5263 46.7329 35.3763 47.3929 35.3363 48.0529C35.4363 46.4229 35.8463 45.1929 36.3863 42.8729C36.1163 43.2229 36.4563 41.4829 35.7063 43.1829C34.9663 45.4129 35.0163 46.4229 35.0063 47.4929C35.0363 48.0329 35.0863 48.6029 35.0963 49.3829C35.1263 49.7729 35.1663 50.2129 35.2063 50.7329C35.2363 51.2529 35.2563 51.8429 35.3763 52.5329C35.5163 53.0329 34.9063 51.4129 35.4763 54.3429C36.4263 58.0129 38.2163 60.1929 38.5163 59.9929C38.3163 59.6729 38.0963 59.2529 37.8463 58.8029C37.5963 58.3629 37.3363 57.8829 37.1763 57.4029C36.7963 56.4629 36.5263 55.6129 36.6363 55.3429C36.8363 56.0729 37.2963 57.0129 37.6163 57.8029C38.0163 58.5629 38.3763 59.1529 38.4763 59.1729C38.8463 60.7329 37.1763 56.6429 37.8063 58.6029C38.2663 59.5629 38.5363 59.9429 38.8563 60.3229C38.3763 59.7829 39.1463 61.2529 39.2463 61.5729C39.6963 62.3229 40.1963 62.9129 40.6063 63.5229C41.0363 64.1129 41.5263 64.6129 41.9763 65.1629C42.4163 65.7229 42.9763 66.1629 43.5263 66.7129C43.8063 66.9729 44.0963 67.2529 44.4063 67.5429C44.7463 67.7929 45.0963 68.0628 45.4663 68.3428C45.5963 68.5028 45.8663 68.8429 45.7263 68.8529C46.4763 69.4029 47.5463 69.8029 48.3263 70.0529C49.0963 70.3029 49.5963 70.3528 49.3663 70.0928C50.3163 70.5428 50.8163 70.7929 51.2663 71.0429C51.7163 71.3029 52.1563 71.4829 53.0263 71.7229C50.4463 70.4729 53.5363 71.9629 53.9463 71.7029C54.8063 71.9929 54.9663 72.0128 54.9763 72.0928C54.9963 72.1628 54.8863 72.2129 55.2863 72.3529C55.5963 72.3829 56.3263 72.4328 56.3963 72.3428C57.4463 72.8928 54.0863 72.5629 55.2963 73.2029C56.1163 73.7229 60.1363 74.7429 60.4563 74.6829C61.3963 74.4029 61.1463 73.0029 59.9263 72.5129C60.0763 72.2829 61.5963 72.8229 62.3963 72.8829C63.5463 72.9929 64.4263 72.9029 65.2363 72.7129C66.0463 72.4729 66.7863 72.2429 67.7263 72.1529C67.2663 72.3229 66.8063 72.4428 66.3363 72.5928C66.4963 72.5928 67.2763 72.5329 68.0463 72.3029C68.8163 72.0729 69.5763 71.8029 69.7763 71.6829C69.8963 71.7929 68.5363 72.7229 69.4363 72.6729C70.3063 72.5129 71.1063 72.1728 71.8363 71.8428C72.2063 71.6728 72.5463 71.5128 72.8663 71.3428C73.1763 71.1528 73.4563 70.9529 73.7063 70.7629C74.7163 70.0229 75.2463 69.4329 75.0463 69.2729C74.3163 69.7329 73.5563 70.1529 72.8063 70.6029C72.0363 71.0029 71.2263 71.3329 70.4263 71.7129C70.2863 71.5829 71.1363 71.1829 71.9663 70.7829C72.1663 70.6829 72.3763 70.5829 72.5663 70.4829C72.7463 70.3629 72.9163 70.2529 73.0463 70.1529C73.3163 69.9529 73.4563 69.7929 73.3663 69.7129C74.8163 69.1229 76.1763 68.3229 77.4863 67.4829C77.0463 67.8829 75.4963 68.8529 76.2263 68.6729C77.9663 67.6029 77.1563 68.1629 78.3763 67.5029C77.9763 67.9529 77.4963 68.5329 76.9163 69.0629C76.3363 69.5929 75.7563 70.2729 75.0963 70.7829C74.4363 71.3229 73.8063 71.8529 73.2463 72.3129C72.6563 72.7229 72.1463 73.0828 71.7963 73.3428C72.6163 72.9728 73.4463 72.6529 74.2063 72.1729L74.8963 72.0829C75.2763 71.8729 75.6463 71.6429 75.9963 71.4129C76.3263 71.1429 76.6463 70.8628 76.9363 70.5928C77.5163 70.0228 78.0663 69.5229 78.4463 68.9329C79.2263 67.7829 79.7363 66.9029 79.9063 66.4429C81.3363 65.2529 81.4163 66.2829 81.1663 66.7129C82.6263 65.4829 82.9963 64.5329 83.4163 63.6629C83.6263 63.2229 83.8263 62.7929 84.1363 62.2929C84.4063 61.7729 84.7663 61.1729 85.3363 60.4329L84.3763 61.4529C84.5963 61.0729 85.2063 60.2729 85.7263 59.5829C86.2363 58.8929 86.5463 58.2429 86.4063 58.3629C86.9663 57.8529 87.7763 57.5229 87.4763 58.3229L87.9663 56.6829C88.1063 56.1329 88.1863 55.5629 88.2963 55.0029C88.1763 55.4829 88.9363 55.4929 88.9563 55.7329C89.5563 54.5029 89.1663 53.3329 88.7163 54.0529C88.9063 53.7829 89.0663 53.5529 89.2063 53.3629C89.3163 53.1529 89.4163 52.9829 89.4963 52.8329C89.6563 52.5329 89.7663 52.3329 89.8663 52.1429C90.0663 51.7629 90.2663 51.4429 90.9063 50.5329C91.0763 49.7729 90.1663 50.3929 89.8963 50.8829C90.1163 50.0529 90.1863 49.3729 90.3363 48.8229C90.4763 48.2729 90.6163 47.8429 90.7563 47.4529C90.4063 50.2929 92.1563 48.6029 92.5663 49.2529C92.4863 48.1229 92.3963 47.0129 92.1363 45.9129C91.9063 44.8129 91.7463 43.7629 91.3663 42.7229C91.4963 42.9329 92.1863 43.4829 92.2663 43.4529C92.1063 43.3029 91.9963 42.7529 91.9363 41.9629C91.9063 41.5629 91.8763 41.1129 91.8663 40.6129C91.8363 40.1129 91.7563 39.5729 91.7063 39.0129C91.6563 38.4529 91.6063 37.8729 91.5563 37.2829C91.4863 36.7029 91.3663 36.1229 91.2863 35.5529C91.2063 34.9829 91.1163 34.4329 91.0463 33.9229C90.9263 33.4129 90.8263 32.9429 90.7263 32.5229L90.8563 33.0229C91.0563 33.3329 91.0263 32.7629 90.8763 31.9629C90.8063 31.5629 90.6963 31.1129 90.5763 30.6929C90.4463 30.2729 90.2463 29.9029 90.0963 29.6329C90.3063 29.7829 90.3563 30.0629 90.5363 30.5529C90.2463 28.1829 88.5963 28.0929 88.1463 25.7829C88.5663 26.7529 88.8863 27.2929 89.1263 27.5729C89.3363 27.8729 89.4963 27.8929 89.6163 27.7929C89.2063 27.0129 88.5363 25.7329 88.0163 24.7429C87.4463 23.7729 86.8663 23.2029 86.7163 23.7629C86.3063 22.7329 85.7063 21.9429 86.1263 21.7829C85.6763 21.2329 85.1463 20.7429 84.6663 20.2229C84.1563 19.7229 83.7263 19.1729 83.1563 18.7429C83.4363 18.9129 83.8263 18.9529 83.0363 17.9929C83.8363 18.8729 84.6263 19.7329 85.3463 20.4929C85.6963 20.8829 86.0463 21.2229 86.2663 21.6029C86.4863 21.9829 86.6363 22.3329 86.6763 22.6829C87.1763 22.4629 86.9463 21.5129 87.9363 22.2929C85.1963 18.3429 82.6663 17.0729 80.1063 15.6329L78.7263 14.1329C78.4963 13.8829 78.2763 13.6229 78.0263 13.3929L77.2663 12.7129L76.9663 12.8229L76.7963 11.8729C76.2863 11.6929 75.9463 11.6129 75.9063 11.4929C75.8663 11.3929 76.0163 11.3929 76.2463 11.4329C75.8763 11.2029 75.5263 11.0229 75.3263 10.9629C75.3963 10.5729 76.2063 10.6729 77.0663 10.8429C77.2963 11.1629 77.5363 11.4929 77.7763 11.8229C78.6363 12.0429 79.3363 12.1329 78.5363 11.2729C78.3763 11.2029 78.1763 11.1229 77.9663 11.0329C78.5463 11.1529 78.9363 11.1829 78.6763 10.8729L75.8663 9.19285C76.1163 9.49285 76.4463 9.97286 76.8363 10.5329C76.3663 10.3229 75.8863 10.1129 75.4363 9.93286C74.9763 9.77286 74.5463 9.68286 74.2263 9.63286C73.5863 9.54286 73.3563 9.70286 73.9863 10.3329L72.1263 8.79286C71.4463 8.58286 70.9563 8.44286 70.5463 8.37286C70.1463 8.29286 69.8363 8.22286 69.5163 8.13286C68.8663 7.99286 68.1963 7.71286 66.5463 7.34286C66.4563 7.05286 67.3863 7.15286 66.8763 6.79286C65.5663 6.77286 64.2463 6.05286 63.1063 5.44286C61.9463 4.91286 60.9863 4.42286 60.6463 4.70286C58.6663 4.42286 59.7163 5.07286 58.4363 5.09286C58.5063 5.02286 58.6563 4.88286 58.2963 4.82286L56.7463 5.14286C56.1763 4.87286 58.1563 4.96286 56.5163 4.51286C55.0663 4.46286 53.9163 4.65286 52.8463 4.68286C52.3063 4.70286 51.7863 4.71286 51.2563 4.68286C50.7263 4.66286 50.1763 4.70286 49.5763 4.66286C46.2263 4.99286 51.0463 5.65286 48.2363 5.71286C47.7963 5.31286 47.3763 4.72286 45.6063 4.96286C44.7163 5.41286 44.8863 5.74286 43.3763 6.18286L43.3463 5.48286C41.9063 5.81286 40.8063 6.28286 40.6663 5.75286C40.1163 6.04286 39.6363 6.23286 39.2163 6.35286C38.7963 6.48286 38.4463 6.59286 38.1263 6.63286C36.1563 7.76286 40.0963 7.39286 40.6463 7.65286C39.5363 7.62286 38.6763 7.91286 37.9063 8.10286C37.1363 8.28286 36.4563 8.38285 35.7063 8.19285L37.4563 7.35286C36.4163 7.50286 35.6663 7.70286 35.1263 7.95286C34.6063 8.23286 34.2663 8.52286 33.9863 8.75286C33.4263 9.21286 33.0963 9.48286 31.8863 9.20286C33.1963 8.64286 34.6063 7.55286 33.6763 7.55286L31.9363 8.78286C31.6263 8.71286 32.9563 8.15285 31.9863 8.36285C31.7563 8.57285 31.3863 8.85286 31.0763 9.21286C30.7663 9.57286 30.4663 9.93286 30.2963 10.1729V10.1229L28.7263 11.1429L27.9463 11.6529L27.2163 12.2429C27.7963 11.8429 27.7863 11.5129 27.1963 11.9129L25.4663 13.6929C25.9463 13.1029 25.1963 13.3629 24.2363 13.9429C22.9963 14.9329 22.8063 15.6829 22.6563 16.3129C22.5763 16.6229 22.5163 16.9129 22.3163 17.1829C22.2163 17.3229 22.0963 17.4529 21.9163 17.5829C21.7463 17.7329 21.5463 17.8929 21.2763 18.0529C21.5263 17.7929 21.4963 17.6829 21.7463 17.4229L20.6663 18.1329C21.1663 18.7929 19.9863 20.2029 18.8063 21.6029C17.7263 23.0829 16.7263 24.6329 17.3263 25.2129C15.7663 26.2429 16.9063 25.1029 17.6163 22.7629L16.1263 24.0229C16.5263 23.3529 17.0063 22.9029 17.3663 22.1229L17.3563 22.1629ZM36.1663 7.50286C36.6563 7.66286 37.5663 6.96286 38.0563 6.67286C37.1163 6.82286 36.5463 6.71286 36.1663 7.50286ZM78.4063 12.6729C78.8963 13.2629 79.3063 13.7829 79.7263 13.9429C79.2863 13.4129 78.8663 12.9529 78.4063 12.6729ZM35.4963 43.0929C35.4963 43.0929 35.4963 43.0529 35.4963 43.0229C35.2263 43.9229 35.0763 44.3929 35.4963 43.0929ZM35.9963 41.7029C36.2463 41.0229 36.4663 40.4329 36.5263 40.2429C36.6063 40.1429 36.6363 40.1329 36.5263 40.4029C36.2363 41.1929 36.1163 41.5329 35.9863 41.7029H35.9963ZM21.7963 100.033L22.0863 100.543C22.4863 100.603 22.8763 100.673 21.7963 100.033ZM75.3563 11.3329C75.2663 11.1729 75.2863 11.0829 75.2963 10.9829C75.0763 10.9129 75.0163 10.9829 75.3563 11.3329ZM8.85629 40.0829L8.82629 40.1629C8.85629 40.2229 8.88629 40.2529 8.91629 40.2829L8.85629 40.0829ZM55.4063 72.0229C55.9163 72.1829 56.1963 72.3029 56.3863 72.3929C56.4263 72.3329 56.2063 72.2229 55.4063 72.0229ZM46.1863 29.2829L44.6163 30.2329C45.3763 29.7829 45.6663 29.6529 46.0663 29.4529C46.0163 29.4429 45.6863 29.5629 46.1763 29.2829H46.1863ZM61.2563 29.1329C61.5063 29.2129 61.7663 29.3029 62.0063 29.3829L61.9663 29.3029C60.9363 28.9429 60.2063 28.7429 61.2563 29.1329ZM47.9263 29.0529C48.0163 29.0729 48.3163 28.9929 48.7463 28.8429C49.1763 28.7129 49.7163 28.4529 50.3163 28.3229L50.1063 28.3729C50.4163 28.0929 49.1363 28.5029 47.9263 29.0429V29.0529ZM50.5963 28.2529C50.9663 28.1629 51.3463 28.0529 51.7163 27.9929C51.8463 27.8929 51.2563 28.0629 50.5963 28.2529ZM38.1163 37.1929C38.4563 36.7029 38.1463 36.7729 38.3763 36.5129C38.5563 35.8429 36.4963 40.0629 38.1163 37.1929ZM49.0063 29.1029H48.5363C48.3363 29.2129 48.1363 29.3329 47.9463 29.4729C48.2863 29.3129 48.6563 29.2229 49.0063 29.1029ZM41.0863 34.4129C41.5463 33.9529 41.9563 33.4329 42.4663 33.0329C42.4263 33.0329 42.5963 32.8529 42.8163 32.6429C42.5863 32.8429 42.3563 33.0529 42.1363 33.2429C41.9263 33.4529 41.7463 33.6629 41.5863 33.8329C41.2663 34.1829 41.0563 34.4229 41.0863 34.4229V34.4129ZM42.8163 32.6329C43.0463 32.4229 43.2763 32.2129 43.4763 32.0329C43.6863 31.8629 43.8763 31.7229 44.0163 31.6029C43.8763 31.7029 43.6563 31.8629 43.4363 32.0429C43.2263 32.2429 43.0063 32.4529 42.8163 32.6329ZM46.5863 30.1929L46.0763 30.4529C45.6863 30.6929 45.2763 30.8929 44.8963 31.1629C45.4463 30.8129 46.0263 30.5229 46.5863 30.1929ZM35.7563 54.0429L36.3263 56.1029C36.4563 56.2929 36.3463 55.7129 36.1363 54.9529C35.9663 54.4729 35.7463 53.7029 35.7563 54.0329V54.0429ZM35.9763 47.6429C35.9063 48.2029 35.8563 48.2429 35.7763 48.5529L36.0363 48.6229L35.9763 47.6329V47.6429ZM36.3663 53.6929C36.4663 53.8929 37.3063 56.5529 36.6463 54.0229C36.4863 53.8429 36.1563 51.7829 36.3663 53.6929ZM58.3663 73.5629L57.8363 73.4929V74.0729L58.3663 73.5629ZM82.3663 63.1329C81.5163 63.9729 81.4963 64.1529 81.4963 64.3129C81.4963 64.4729 81.5063 64.6029 80.6463 65.2529C80.3463 65.7629 82.0563 64.1729 81.7263 64.6629C82.5763 63.4429 83.1463 62.9429 82.3663 63.1329ZM81.7263 64.6629C81.5863 64.8629 81.4163 65.0329 81.2563 65.2529C81.5363 64.9329 81.6663 64.7829 81.7263 64.6629ZM117.986 100.743C118.526 100.483 119.056 100.203 119.566 99.9029C119.136 99.9929 118.716 100.083 118.276 100.153L117.976 100.743H117.986ZM119.406 97.4229L120.596 98.0829L120.526 96.5429C120.286 96.8429 119.816 97.4429 119.406 97.4229ZM42.4563 6.92286L42.5263 6.72286C42.2663 6.60286 41.9263 6.67286 41.2363 6.82286L42.4463 6.91286L42.4563 6.92286ZM24.4763 15.5129L24.7363 15.2829L23.8063 15.2029L24.4663 15.5129H24.4763ZM14.6563 29.3429C15.0263 28.7629 15.2863 27.9729 15.6463 27.3829C15.0263 28.7529 13.7663 29.0429 14.6563 29.3429Z" fill="#1C1711"/>
</svg>
