<svg width="116" height="116" viewBox="0 0 116 116" fill="none" xmlns="http://www.w3.org/2000/svg">
<path d="M17.0004 16.9996L54.0685 52.2597L34.5801 4.95726L56.4077 51.2268L55.3229 0.0786054L58.962 51.1087L76.4273 3.02255L61.3865 51.9213L95.0431 13.3915L63.3537 53.5549L108.656 29.7851L64.598 55.7888L115.428 49.9892L64.9513 58.3213L114.444 71.2753L64.3659 60.8105L105.837 90.7685L62.9208 62.92L90.7692 105.836L60.8112 64.3651L71.276 114.443L58.3221 64.9506L49.99 115.427L55.7895 64.5973L29.7858 108.655L53.5556 63.353L13.3922 95.0424L51.9221 61.3858L3.02327 76.4266L51.1095 58.9613L0.0793263 55.3221L51.2276 56.407L4.95799 34.5793L52.2604 54.0678L17.0004 16.9996Z" fill="#1C1711"/>
</svg>
