<svg width="98" height="97" viewBox="0 0 98 97" fill="none" xmlns="http://www.w3.org/2000/svg">
<path d="M96.8553 47.1939C96.8319 47.019 96.8203 46.8557 96.7736 46.6925C96.7736 46.5409 96.7852 46.4243 96.7969 46.331C96.7152 45.5147 96.6101 44.6984 96.4817 43.9054C96.4584 43.8587 96.4467 43.8238 96.4234 43.7771C96.4234 43.7188 96.4234 43.6605 96.4234 43.6139C96.2482 42.6226 96.0381 41.6547 95.7813 40.7101C95.5595 40.3486 95.3377 40.1154 95.1742 40.1154C95.1392 39.5906 95.4777 40.0804 95.6178 40.1154C95.6062 40.0571 95.5828 40.0105 95.5711 39.9521C95.3143 39.3807 95.0108 38.8327 94.7306 38.2846C94.8006 38.1913 94.8824 38.168 94.9758 38.1796C93.178 33.4217 90.166 29.5735 85.9284 27.8242C85.6715 27.8942 84.9127 27.7543 84.3874 27.7776C83.4651 27.3578 82.251 27.1129 80.9552 27.0313C79.6594 27.0079 78.2818 27.1012 77.021 27.3928C75.0948 27.8009 73.4254 28.419 72.3981 28.7338C71.0906 29.3052 69.7247 30.0166 68.3121 30.8679C68.3121 30.8679 68.3121 30.8795 68.3121 30.8912L68.7558 31.2994C67.8802 32.4888 66.7128 34.4829 65.4286 36.1972C64.1445 37.9114 62.7786 39.3574 61.7396 39.5906C61.6696 40.3137 59.7784 41.7364 58.576 42.9142L56.4162 40.7568L56.2878 40.6285L56.1594 40.5002L53.9997 38.3429C54.2565 38.1096 54.4783 37.8881 54.6535 37.6782L55.2605 37.7248C56.8482 36.3721 57.7121 35.4042 58.5643 34.4713C58.3892 34.5646 58.2257 34.6812 58.0506 34.7628C58.611 33.7716 59.5683 33.1419 60.4788 32.6987C60.8874 32.3839 61.3544 32.0573 61.9264 31.7308C62.2183 31.3343 62.4984 30.8562 62.3117 30.588C63.2806 29.0953 62.9888 30.3081 63.6075 29.7367C63.7009 29.4452 63.8643 28.6988 63.7126 28.5472C63.5141 28.6522 63.2689 28.8388 62.9187 29.2353C63.3857 28.5939 63.6192 28.454 63.7126 28.5472C64.483 28.1274 64.2612 29.5385 64.4714 30.2382C64.8333 29.9466 65.1952 29.6667 65.5571 29.3985C65.8139 29.002 66.0474 28.6172 66.2692 28.2207L66.0007 28.0808L66.2575 27.6143L66.4676 27.8709C66.9463 27.0429 67.3782 26.2266 67.7518 25.4336C66.8179 25.0022 65.5571 24.8389 64.7632 25.2354C64.378 24.9089 65.954 24.0343 66.2575 23.3462C66.6311 22.9148 66.8762 22.495 67.0163 22.0751C67.1331 21.6553 67.1681 21.2472 67.1914 20.8507C67.2381 20.0577 67.098 19.3347 67.4132 18.5301C67.495 18.9732 67.5066 19.428 67.5533 19.8944C67.8452 19.6612 68.0436 17.0724 67.6817 16.6992C67.8102 16.6759 68.137 17.0024 68.4756 17.2706C68.8025 17.5388 69.1293 17.7371 69.3161 17.3173C69.5146 15.638 68.9542 14.0287 68.2771 13.0842C67.8919 12.6177 67.5533 12.2795 67.2148 12.1046C66.8762 11.9297 66.6077 11.9063 66.4443 12.023C67.2381 13.2008 67.7868 14.6001 68.0787 16.1511C67.7751 16.2211 67.565 15.4281 67.3198 14.6818C67.0046 13.9588 66.6778 13.2941 66.2925 13.4806C66.0824 12.2795 65.5804 11.16 64.9033 10.0872C65.2419 10.4253 66.0941 11.6265 66.1291 10.9501C65.7088 10.2154 65.5687 10.0405 65.5454 9.86559C65.5104 9.70233 65.5804 9.56239 65.3236 9.00264C66.2808 9.52741 67.7401 10.3904 69.0009 11.6265C69.1877 11.8131 69.3628 12.0113 69.5379 12.1979C69.1293 10.8218 68.4989 9.55073 67.6934 8.40791C67.6 8.36126 67.5066 8.32628 67.4132 8.2913C66.0357 7.73155 64.8449 7.71988 64.3313 7.70822C63.2222 6.46045 64.4597 5.78408 65.0317 5.85405C64.3196 5.25932 63.7126 4.92113 63.1288 4.76954C62.5685 4.59461 62.0548 4.57129 61.5528 4.57129C61.0625 4.54797 60.5722 4.55963 60.0002 4.478C59.4515 4.37305 58.8094 4.22145 58.0273 3.84828L59.113 4.61794C58.3425 4.37305 55.5991 3.18358 55.8209 3.56841C55.2722 3.03198 54.8286 1.99411 55.6691 1.98245C54.5134 2.13405 53.381 2.35561 52.2836 2.62383C52.7623 2.56552 52.6338 1.41104 52.8673 1.24778C51.5598 0.979562 50.5208 2.25066 51.2913 2.51887C48.9098 1.46934 49.4935 1.95912 47.4622 0.956239C46.7151 1.02621 47.5323 2.14571 48.0576 2.28565C46.4116 2.5422 45.466 2.47223 44.6721 2.41392C44.6371 2.41392 44.6254 2.43724 44.5904 2.44891L44.567 2.41392C43.7148 2.34395 43.0377 2.34395 42.0338 3.13693C42.4891 2.41392 43.0027 1.73756 43.5397 1.03787C43.8899 1.481 44.2402 1.9358 44.567 2.40226C44.6021 2.40226 44.6371 2.40226 44.6721 2.40226C46.003 2.05242 46.1897 1.45768 46.073 0.781318C46.0263 0.524766 45.9446 0.256552 45.8629 0C45.2208 0.0233229 44.567 0.0583073 43.9366 0.116615C42.5708 1.01455 41.2983 1.99411 40.1659 3.04364C40.306 2.81041 40.5512 1.65593 40.4928 1.53931C40.341 2.0874 38.5899 2.6938 36.6403 3.56841C34.6674 4.40803 32.5544 5.60916 31.2819 6.51875C31.4104 6.42546 31.5154 6.30885 31.6555 6.22722C31.9707 5.52753 29.5658 7.0202 29.1222 8.12804C29.0989 7.85982 29.2973 7.69656 29.6476 7.37004C28.6202 7.85982 28.4335 8.66446 28.3634 9.4108C28.3167 9.78396 28.27 10.1455 28.165 10.4953C28.0482 10.8452 27.8147 11.1717 27.4412 11.5448C28.2817 9.95888 28.27 9.49243 27.8731 9.32917C27.6863 9.69067 27.5112 10.1805 27.2544 10.6702C27.0442 11.1717 26.8341 11.7081 26.7057 12.1862C26.4722 13.1658 26.5539 13.8771 27.196 13.6556C26.7524 14.5069 26.8575 15.3931 26.2738 15.2765C26.3088 15.9062 26.4956 16.5476 26.6123 17.1657C26.7991 17.7837 26.9742 18.3901 27.2077 18.9849C27.0209 18.74 26.6357 18.5417 26.7991 19.6729C26.7057 19.1248 26.5539 18.6117 26.4489 18.0986C26.3788 17.842 26.2971 17.5971 26.2271 17.3522C26.1804 17.1074 26.122 16.8625 26.0753 16.6292C25.9702 16.1628 25.9119 15.708 25.9702 15.3232C26.0169 14.9383 26.087 14.5885 26.3438 14.3436C25.6434 14.157 25.0947 14.9966 24.6978 13.7838C24.4759 16.1278 25.118 17.9003 25.8301 19.2881C26.2271 19.9877 26.589 20.6058 27.0442 21.1655C27.2544 21.4454 27.4645 21.7253 27.6746 22.0052L28.3634 22.8215C28.5035 23.4395 28.6786 24.0576 28.9004 24.664C29.0989 25.282 29.309 25.9001 29.5775 26.5065L29.9511 26.4832L29.5775 27.4977C29.9861 27.8359 30.2896 28.0108 30.278 28.1391C30.2663 28.2557 30.1029 28.2091 29.8927 28.1041C30.1612 28.4306 30.4297 28.7105 30.6165 28.8388C30.6866 28.7455 30.7449 28.6522 30.7449 28.4773C30.9084 28.9088 30.815 28.9671 30.6165 28.8388C30.348 29.2003 29.5075 28.8971 28.7253 28.4656C28.737 28.5939 28.7603 28.7222 28.772 28.8504C29.5542 29.5385 30.3714 30.2498 30.9434 30.553C31.5388 30.8446 31.854 30.7629 31.5855 29.9116L31.0134 28.4423C31.3053 29.0837 31.4921 29.5618 31.5855 29.9116L32.5778 32.0807C34.9476 33.7249 34.469 33.4917 37.154 35.5791C37.0606 35.9056 36.2901 35.4042 36.5236 35.9989C37.8078 36.6869 38.7417 38.1563 39.4421 39.3691L38.9168 39.8938L38.228 40.5819L37.0139 41.7947C36.8388 41.5264 36.687 41.2816 36.5353 41.0717C36.2434 40.7801 35.9866 40.5236 35.7765 40.3137C35.7064 40.2903 35.6247 40.267 35.5547 40.2903C33.9787 39.0542 34.469 40.232 33.3833 39.5673C33.4883 39.544 33.6985 39.4857 33.4416 39.2291L31.9357 38.6927C31.6322 38.133 33.2315 39.2874 32.1458 37.9814C29.6592 36.477 28.1883 35.719 26.4138 34.1914C23.5887 32.5005 26.9275 35.9523 24.6978 34.343C24.616 33.7133 24.6044 33.0602 23.1334 32.1273C22.1645 32.034 22.1061 32.4072 20.6819 31.9757L21.0671 31.3227C20.4134 31.0778 19.8297 30.8795 19.4211 30.693C19.0125 30.5297 18.779 30.3431 18.8607 30.0749C17.6933 30.0049 16.9812 29.8533 16.4442 29.5968C15.4169 29.6551 15.7554 30.0749 16.3158 30.5297C16.8878 31.0428 17.6933 31.5676 17.8567 31.8008C17.4481 31.4976 17.0629 31.3577 16.6893 31.2061C16.3158 31.0545 15.9655 30.9378 15.6503 30.8562C15.3351 30.7629 15.0316 30.658 14.7514 30.518C14.4712 30.4131 14.2144 30.2615 13.9576 30.0283L14.7748 29.9466H15.6153C14.7398 29.5735 14.086 29.5735 13.5723 29.5618C13.0704 29.6201 12.7318 29.7717 12.4516 29.8767C12.1715 29.9816 11.973 30.1215 11.7045 30.1099C11.4477 30.1099 11.1325 29.9699 10.6421 29.7251C11.2142 29.5501 11.8679 29.4102 12.2765 29.177C12.6968 29.002 12.8836 28.7805 12.475 28.6056C12.1598 28.6755 11.8679 28.8155 11.5761 28.9321C11.2842 29.0603 10.9924 29.142 10.7239 29.3052C10.4554 29.142 11.7162 28.9437 10.8289 28.8854C10.5955 29.0487 10.2452 29.2936 9.93003 29.5501C9.61483 29.8067 9.34632 30.1332 9.19456 30.3198V30.5763C8.9961 30.6463 9.0428 30.5297 9.19456 30.3198V30.2731C8.71592 30.4714 8.29566 30.8096 7.84037 31.0661C7.43177 31.4043 6.98816 31.6842 6.61459 32.0807C7.09322 31.7075 7.03485 31.381 6.54454 31.7775C6.07758 32.3256 5.68066 32.9436 5.30709 33.55C5.24872 33.7016 5.14365 33.8999 4.96854 34.1914L5.30709 33.55C5.59894 32.9436 4.98022 33.2701 4.2681 33.9931C3.32249 35.101 3.40421 35.859 3.47426 36.4537C3.53263 37.0484 3.62602 37.5266 2.83218 38.3779C2.9606 38.0863 2.90223 37.993 3.06567 37.7132C2.78549 38.0047 2.55201 38.3195 2.30685 38.6461C2.98395 39.0542 2.41192 40.6169 2.03835 42.2844C1.66477 43.952 1.50134 45.6779 2.27183 45.8878C1.46631 47.4388 1.80486 45.9811 1.45464 43.7305C1.22116 44.2902 0.929307 44.85 0.730847 45.433C0.754195 44.6867 0.999351 44.1036 0.987677 43.299C-0.156384 45.538 0.544062 47.9636 0.964329 49.2113C0.730847 50.1209 -0.26145 48.4767 0.0654242 51.1122C0.62578 54.7739 1.17446 50.3542 1.51301 52.5232C1.2912 53.0596 1.09274 53.6194 0.88261 54.1791C1.9216 56.8263 1.94495 58.902 2.73879 61.071C2.99562 61.5258 3.20575 61.7008 3.33417 61.7707L3.31082 61.7008L3.46258 61.7941C3.74276 61.7707 3.70774 61.1643 4.29144 62.2955C3.99959 62.1556 3.73109 61.969 3.46258 61.7941C3.42756 61.7941 3.38087 61.7941 3.33417 61.7707C3.68439 62.9369 4.52493 63.8931 5.35379 64.6395C6.18265 65.4091 7.04653 65.8872 7.53684 66.4936C7.12825 66.4003 7.92209 67.4382 7.99213 67.7181C8.91438 68.0912 9.81329 68.3828 10.7472 68.4644C9.52144 68.3012 9.39302 68.6627 8.96108 69.0008C9.85998 69.3623 10.3736 69.2224 10.9924 69.3507C10.5838 69.3973 10.1402 69.4323 10.5721 69.7938C11.1208 69.8638 11.7045 69.7588 12.2298 69.7588C12.7902 69.6539 13.3155 69.6189 13.8525 69.4556C13.6657 69.3973 13.3038 69.339 13.012 69.2924C13.3972 69.3507 14.016 69.2341 14.6814 69.1991C15.3468 69.0941 16.0589 69.0708 16.6893 69.1058C16.6193 69.304 16.2457 69.5723 16.1757 69.7472C15.627 69.5489 15.2534 69.5839 14.9265 69.7122C14.6113 69.8171 14.3428 70.0154 14.086 70.202C15.2534 70.1553 15.4052 70.0854 15.4052 70.1903C15.4052 70.2719 15.2534 70.4235 15.8605 70.5168C17.5882 70.237 18.1019 69.3973 17.5649 69.1291C19.4327 68.7909 20.1098 68.6743 21.7209 67.4032L21.6508 68.1496L23.2502 67.135L22.2228 68.5111C23.9856 67.9047 23.9973 67.5315 24.044 67.1817C24.0907 66.7968 24.1958 66.4936 26.0052 65.5257L26.3205 65.9922C27.5579 64.9427 27.4178 63.8465 28.807 63.6482C29.8343 62.4704 26.2271 64.5695 29.0405 62.3421C29.7059 62.1672 30.92 61.4792 31.7956 60.8845C32.5077 59.9166 30.6982 60.9661 30.1612 61.4675C32.6361 59.1469 33.535 59.4035 34.6091 58.972C35.2745 58.3073 35.9399 57.6542 36.6287 57.0129L36.0917 56.4764C35.8815 56.5347 35.4379 56.8729 34.5273 57.7475C34.9359 57.1994 35.4496 56.7796 36.0099 56.3948L36.08 56.4648L36.617 57.0012L38.228 58.6105L39.839 60.2198L40.376 60.7562L40.4461 60.8262C39.4655 61.5725 38.3214 62.2255 37.7377 63.4383C37.8428 62.9485 37.9829 62.4821 38.1113 62.004C37.5859 62.5054 37.2357 63.2984 37.0489 63.6482L36.7454 63.1584C36.2784 64.4179 35.4146 65.1759 34.7375 65.9339C34.037 66.6802 33.4183 67.3449 33.5117 68.3245C33.3249 66.9251 32.4377 69.7938 31.6438 70.3886C31.8656 69.3507 32.7762 68.1962 33.4767 67.1933C34.2355 66.2254 34.8425 65.3975 34.574 65.001C33.7568 65.5724 33.5584 66.5053 32.7879 67.065C32.5311 67.6248 32.3676 67.9163 32.6478 67.17C32.6945 67.135 32.7412 67.1 32.7879 67.065C32.9864 66.6219 33.2665 66.0272 33.4066 65.6307C33.1148 65.8522 32.8112 66.0738 32.5077 66.2954C31.0018 68.1029 30.8033 69.8754 30.1262 71.2981C30.6866 70.3419 31.1885 69.339 31.8189 68.4061C32.391 69.1524 31.0718 69.7238 31.1769 70.9017C30.4998 71.4497 30.1962 72.1144 29.9277 72.7558C29.6359 73.3855 29.4491 74.0036 29.0288 74.5284C29.1923 74.2135 29.1106 74.1552 29.274 73.8403C27.733 76.954 26.1453 77.4437 25.7134 78.8548C25.1647 80.2308 25.5266 82.913 25.9819 81.98C26.0403 82.2599 26.0403 82.1083 26.087 81.7701C26.1337 81.432 26.2154 80.8955 26.2854 80.3824C26.5539 79.3679 26.9158 78.5283 27.2894 79.6011C26.8458 79.9859 26.589 80.4524 26.5072 80.9655C26.4022 81.4786 26.4022 82.05 26.5072 82.6681C26.694 83.8575 26.9158 85.2919 27.2194 87.2743C26.694 86.5397 26.6123 86.8195 26.5189 87.1694C26.4489 87.4959 26.4022 87.8924 25.9586 87.1461C26.7991 89.0585 27.1376 88.9769 27.8965 89.5367V90.2713C29.0755 91.0527 29.3791 90.9477 29.6826 91.0993C29.846 91.1576 30.0445 91.2392 30.383 91.4608C30.7099 91.6824 31.2352 91.9972 32.0641 92.4754C31.457 92.2188 31.6438 92.592 31.924 92.9535C32.1925 93.315 32.5194 93.7231 32.0057 93.5599C32.9163 94.2246 33.9787 94.6211 34.8309 94.7377H34.6674C36.582 95.4957 37.3641 95.8338 38.1113 96.1954C38.8584 96.5102 39.5939 96.8251 41.5435 96.93L41.2166 96.6152C43.7382 96.7085 46.5516 96.8834 49.3768 96.6735C52.2019 96.4986 55.027 95.9505 57.3385 94.9592C56.7548 95.0875 56.1828 95.2041 55.5991 95.2858C56.1944 95.3091 58.646 93.898 60.1169 93.5365C60.257 93.4549 60.3387 93.4083 60.3504 93.4782C60.2804 93.4782 60.1987 93.5249 60.1169 93.5365C59.8601 93.6881 59.4398 94.0263 59.1597 94.1196C59.2997 94.3528 60.0702 94.5394 61.1559 93.9913L61.331 93.3849C61.5295 93.4083 61.728 93.4316 61.9264 93.4316C63.4207 92.4287 61.1559 93.1867 62.6035 92.2071C63.374 92.417 64.9734 91.2509 66.0824 89.6649C67.2615 88.114 67.7985 86.2365 68.4756 85.5718C68.102 84.8837 68.0086 85.7234 67.7168 86.4697C67.495 87.251 67.1097 87.9274 66.993 87.1927C67.1681 86.9945 67.2848 86.8312 67.4249 86.6096C67.5533 86.3764 67.7751 86.0965 67.8802 85.5368L67.2731 85.7817C67.9502 83.3911 67.9269 81.4903 67.6934 79.6827C67.4366 77.8752 66.9346 76.1027 65.6971 73.8287L65.8956 73.957C65.6038 73.0707 65.2302 72.4526 64.9033 71.9745C64.5648 71.4964 64.2145 71.1699 63.7709 70.96C63.7709 70.4935 64.6231 71.5547 64.4247 70.82C63.6659 70.3186 63.1405 69.6889 62.6852 69.0242C62.2183 68.3711 61.868 67.6481 61.5528 66.9484C60.8524 65.5957 60.3037 64.278 59.2297 63.8465C59.7083 63.6132 59.5099 62.657 59.3348 61.7591C58.4008 60.7212 57.4085 59.6717 56.3345 58.5988C57.3268 59.59 58.3074 60.5113 59.2647 61.3859C59.0896 60.4413 59.0312 59.6833 59.9535 60.0682L58.8678 59.1352C59.755 58.937 61.9147 62.4121 63.0238 62.5754L64.1678 64.5928L64.8916 66.0272C65.1134 66.1904 65.3469 66.3653 65.5687 66.5286C65.7905 66.5169 65.989 66.4936 65.7789 66.0971C65.4403 65.654 65.1018 65.1875 64.8566 64.9193C65.3703 65.5024 65.6505 65.8639 65.7789 66.0971C66.4793 66.9951 67.0513 67.823 66.526 66.3537C66.7128 66.7502 66.8996 67.1467 67.0864 67.5548C88.088 81.2337 98.0461 63.3684 96.9253 47.1356L96.8553 47.1939ZM62.4051 6.37882C62.5218 6.40214 62.7203 6.43712 63.0588 6.62371C62.8253 6.53042 62.6152 6.44879 62.4051 6.37882C62.1132 6.33217 62.4284 6.60038 62.6969 6.89192C62.9654 7.19512 63.2222 7.48666 62.9421 7.44001C62.3233 6.70534 62.1249 6.82195 61.9498 6.90358C61.7513 6.99687 61.5879 7.05518 60.759 6.40214C60.6189 5.45756 61.1676 5.86571 62.4051 6.37882ZM1.80486 48.4184C1.75817 49.0714 1.88658 49.8411 1.88658 50.4824C1.04605 50.6807 1.87491 49.8294 1.80486 48.4184ZM4.84013 35.3459L4.12801 35.1943L5.01524 35.101L4.82845 35.3459H4.84013ZM19.5261 32.1157C19.246 31.8474 18.9658 31.5792 18.6739 31.3577C19.2693 31.5559 19.5612 31.7425 19.6896 31.9874L19.5261 32.1157ZM53.8596 61.071C53.9997 61.0827 54.1631 60.5579 54.6535 61.0944C54.7235 60.9778 54.8169 61.8407 53.8596 61.071ZM58.5876 58.2723C58.5176 57.9574 57.9689 57.4793 57.7004 57.2461L58.8678 57.4677L58.5876 58.2723ZM60.8757 59.6134C60.7473 59.2519 60.5956 58.9137 60.4438 58.5638C60.7707 59.007 61.0742 59.4734 61.3777 59.9399L60.8757 59.6017V59.6134ZM68.4055 32.862C66.3042 34.2963 68.3588 32.5005 68.4289 32.2089C70.11 31.4043 68.4522 32.5588 68.4055 32.862ZM72.8183 29.9933L72.5849 29.3052C72.9468 29.3635 73.0401 29.4685 73.5888 29.3752L72.83 29.9816L72.8183 29.9933ZM90.8315 31.3227C91.1467 31.6492 91.4035 32.0107 91.672 32.3722L91.9288 32.8853C91.5669 32.3722 91.2517 31.8008 90.8315 31.3227Z" fill="#1C1711"/>
</svg>
