<svg width="109" height="111" viewBox="0 0 109 111" fill="none" xmlns="http://www.w3.org/2000/svg">
<path d="M84.4433 55.18C82.7933 55.27 81.2733 55.35 82.7033 54.38L80.5933 55.29C81.0833 54.43 87.3233 52.76 88.3233 51.68L95.3333 49.77C95.0333 49.63 96.0233 48.88 94.9133 49.21C94.1033 49.52 93.2433 49.84 92.7233 50.06C93.8433 49.58 94.5133 49.33 94.9133 49.21C96.6333 48.56 97.9033 48.05 95.7233 48.5L96.3033 48.34C96.4833 48.29 96.7233 48.22 96.7633 48.22L97.3033 48.12C97.6833 48.04 98.0933 47.95 98.5233 47.84C99.3833 47.62 100.333 47.35 101.303 47.05C103.253 46.45 105.263 45.75 107.083 45.07C105.463 44.96 103.713 44.88 102.023 44.8C100.393 44.73 98.7733 44.65 97.1533 44.58C96.0133 44.51 94.8833 44.45 93.7533 44.38C92.3933 44.29 91.0233 44.19 89.6633 44.1C88.3033 43.99 86.9533 43.87 85.6033 43.76C84.2033 43.62 82.8133 43.48 81.4233 43.34C79.8433 43.3 80.6433 43.57 81.2833 43.76C79.0733 43.32 78.0933 43.34 77.0833 43.44C76.1033 43.55 75.1933 43.74 73.7733 43.7L71.8733 43.29C73.0633 41.84 74.1733 40.52 75.2033 39.33C75.7233 38.31 75.6633 38.16 75.4233 38.31C75.1833 38.45 74.7633 38.88 74.7133 38.8C75.6133 37.43 76.5133 36.06 77.4033 34.7C78.0133 33.81 78.6133 32.93 79.2133 32.05C80.4433 30.32 81.6433 28.61 82.8233 26.94C83.4133 26.11 83.9933 25.28 84.5633 24.47C85.0233 23.81 85.4633 23.15 85.9033 22.51C86.4833 21.64 87.0133 20.76 87.2733 20.14C87.8733 19.52 88.2033 19.34 88.4733 19.21C88.7533 19.06 88.9933 18.92 89.6933 17.96C88.8233 18.87 88.5933 18.96 88.5833 18.81C88.5833 18.64 88.8333 18.19 89.0933 17.72C89.6333 16.77 90.1933 15.85 88.8833 17.26C89.8133 16.31 90.5633 15.42 91.2133 14.59C90.4333 14.8 87.8533 16.63 90.3933 13.83C87.9533 15.29 87.5833 16.3 87.9233 16.22C86.8233 16.89 85.7633 17.55 84.7633 18.24C84.2633 18.58 83.7833 18.93 83.3433 19.28C82.8433 19.69 82.3533 20.1 81.8633 20.51C80.9733 20.91 77.9733 22.88 74.5433 25.07C73.6833 25.62 72.8033 26.18 71.9233 26.74C70.8833 27.39 69.8333 28.04 68.8333 28.67C66.4433 30.15 64.2733 31.45 62.7533 32.26C62.7733 30.81 62.8333 29.64 62.9433 28.83C62.4633 32.92 62.6133 29.1 62.1933 25.9C62.0533 27.02 61.9133 28.25 61.7733 29.58L61.5033 21.91C61.4033 20.81 61.4133 20.5 61.4633 20.51C61.4533 19.59 61.8033 20.71 61.8533 18.38C61.7333 14.71 61.4033 14.54 61.0233 12.53L60.9633 13.1L60.8033 10.61C60.7433 8.77 61.6533 17.07 61.6933 11.07C61.6133 11.03 61.3433 10.14 61.1333 9.05C60.9433 8.43 60.8433 8.05 61.0233 7.48C61.0533 8.92 61.4533 8.78 61.5833 7.99L61.5033 5.24C61.2933 5.92 61.0733 6.51 60.8433 7.01C60.7733 4.99 60.7533 2.75 60.7333 0C60.0733 1.45 59.3033 3.15 58.4433 5.15C57.9933 6.21 57.5533 7.28 57.1033 8.35C56.3433 10.26 55.5733 12.19 54.8133 14.12C54.2833 13.72 51.3733 22.74 50.9233 21.32L51.1933 20.87C51.7433 19.35 51.4833 19.5 50.9833 20.34C50.7333 20.75 50.4133 21.36 50.1033 22.03C49.7933 22.68 49.5033 23.37 49.2733 24.02C49.8933 22.86 49.6033 24.23 49.3933 25.35C49.2033 26.43 49.1333 27.12 50.7933 23.11L48.4633 30.24C48.4433 30.34 48.4333 30.43 48.4133 30.56C47.8633 30.55 46.6333 29.31 45.0533 27.43C44.2633 26.49 43.3933 25.4 42.4933 24.23C42.2833 23.95 42.0633 23.67 41.8433 23.38C41.7033 23.19 41.5633 23 41.4233 22.81C41.1433 22.42 40.8533 22.02 40.5533 21.61C39.3833 19.98 38.1433 18.21 36.8733 16.5C36.2333 15.64 35.5933 14.8 34.9433 13.99C34.6133 13.59 34.2833 13.2 33.9633 12.81C33.8033 12.62 33.6333 12.43 33.4733 12.25L33.2433 11.99L33.1233 11.87C33.2733 11.97 33.3633 12.03 33.4333 12.07C33.5333 12.13 33.5933 12.15 33.6433 12.16L33.4233 11.92L33.2933 11.79L33.0533 11.56L32.6133 11.09C32.3333 10.77 32.0633 10.45 31.7933 10.1C31.2533 9.4 30.6933 8.58 30.1033 7.7C28.9433 5.98 27.5733 3.95 27.5633 4.16L26.3333 1.82C26.3333 1.82 26.2433 1.82 26.2233 1.85C27.3833 4.99 27.8933 6.28 28.2333 7.37C28.5733 8.44 28.6833 9.14 28.9733 10.84C28.8633 10.72 28.5333 10.04 28.5833 10.63C28.9633 11.35 29.3033 11.96 29.6033 12.63C29.6733 12.79 29.7433 12.96 29.8233 13.15C29.8533 13.24 29.8933 13.33 29.9233 13.43C29.9633 13.54 29.9733 13.57 30.0533 13.83C30.2933 14.66 30.5533 15.65 30.8333 16.83L30.6333 16.68L32.6033 24C32.1033 24.11 32.4033 25.53 32.9833 27.47C33.7033 29.93 34.8933 33.69 35.8133 36.98C32.7333 36.19 29.8133 35.27 28.8033 34.42C28.3633 34.42 27.5533 34.28 26.5133 34.08C25.7533 33.95 24.8633 33.77 23.9433 33.58C22.1033 33.19 20.1533 32.74 18.9333 32.51C18.9333 32.61 18.5633 32.6 17.7333 32.45C17.5933 32.3 18.0833 32.35 18.9333 32.51C18.9333 32.44 18.8033 32.34 18.4233 32.16C16.9133 32.16 14.9033 31.54 12.8833 30.82C12.7733 30.78 12.5933 30.72 12.5433 30.69L12.3533 30.6L11.9533 30.42C11.6633 30.3 11.3833 30.17 11.1033 30.05C10.5233 29.81 9.92328 29.59 9.49328 29.5C8.55328 29.44 9.57328 30 10.2033 30.44C9.12328 29.84 7.99328 29.64 7.68328 29.75C7.30328 29.84 7.74328 30.24 7.55328 30.21C7.64328 30.28 7.65328 30.3 7.55328 30.26C7.75328 30.46 7.27328 30.26 6.60328 29.94C5.93328 29.62 5.01328 29.14 4.54328 28.97C5.74328 29.86 6.75328 30.25 7.60328 30.62C8.02328 30.8 8.37328 30.96 8.57328 31.08C8.78328 31.21 8.79328 31.27 8.75328 31.43C8.40328 31.23 7.88328 30.87 7.75328 30.88C7.87328 31.06 7.10328 31.04 7.05328 31.53C6.94328 31.97 7.52328 32.91 8.45328 33.44C8.26328 33.16 8.09328 32.91 7.95328 32.68C8.67328 33.15 9.20328 33.62 9.76328 34.19C10.4933 34.94 11.2133 35.69 11.8733 36.36C13.3133 37.85 14.4633 38.99 15.0533 38.81V38.19C17.6633 40.75 18.2833 41.21 18.9333 41.67C19.2533 41.9 19.5833 42.13 20.1533 42.62C20.4433 42.87 20.7933 43.18 21.2433 43.59C21.8033 44.1 22.4833 44.72 23.3233 45.5L23.1533 45.46C24.1933 46.28 25.0033 47 25.6633 47.61C26.3333 48.22 26.8633 48.72 27.4633 49.19C26.7433 49.48 26.2833 49.76 26.0133 50.15L27.5733 49.68C25.1033 50.63 23.7033 51.16 22.3133 51.66C21.1233 52.09 19.9333 52.52 17.7333 53.31C17.3133 53.55 15.5033 54.34 14.9233 54.39C14.9533 54.72 12.7633 55.62 10.3533 56.5C9.14328 56.93 7.88328 57.38 6.82328 57.75C6.17328 57.96 5.64328 58.13 5.37328 58.22C7.08328 57.48 6.22328 57.51 5.34328 57.56C4.39328 58.47 4.16328 58.62 1.65328 59.15C2.40328 59.3 3.15328 59.46 3.61328 59.62C4.06328 59.79 4.33328 59.93 3.81328 60.15C3.56328 60.11 3.73328 59.98 3.04328 60.06C2.31328 60.16 2.49328 60.28 2.62328 60.3C1.80328 60.43 1.95328 60.24 0.733281 60.4C1.31328 60.56 1.11328 60.68 0.363281 60.92C0.613281 60.96 0.803281 61.01 1.15328 61.05C1.50328 61.09 2.03328 61.12 2.80328 61.1C1.38328 61.25 1.39328 61.41 0.953281 61.66C2.42328 61.3 2.59328 61.51 3.07328 61.7C3.29328 61.8 3.55328 61.89 3.79328 61.88C4.04328 61.88 4.20328 61.77 4.45328 61.5C4.84328 61.6 5.35328 61.69 5.93328 61.78C6.24328 61.82 6.55328 61.86 6.86328 61.9L7.36328 61.96L8.29328 62.04C10.8133 62.25 13.4133 62.43 15.9133 62.59C18.6033 62.77 21.1933 62.94 23.4933 63.1C26.5133 63.31 29.0933 63.52 30.8433 63.73C30.1533 64.68 29.5533 65.44 29.0733 66.01C28.4433 66.66 27.8633 67.63 27.2133 68.78C26.8833 69.37 26.5333 69.98 26.2033 70.57C26.0333 70.87 25.8633 71.16 25.7033 71.44C25.5833 71.65 25.4633 71.85 25.3433 72.03L25.1433 71.61C23.0633 76.05 23.2833 74.9 20.7333 80.06C21.6433 77.83 20.9233 78.53 19.2933 80.31L18.5533 82.17L18.1833 83.1C18.1333 83.24 18.0333 83.45 18.0233 83.53L17.9633 83.8C17.7033 83.83 17.4133 83.88 17.1133 83.98C16.7633 84.94 16.0833 85.79 15.2333 86.9C15.8233 87.22 14.0833 89.74 14.9533 89.1C13.5633 90.48 13.2833 90.96 13.1833 91.21C13.9033 90.68 14.5433 90.17 13.7233 91.17C14.3233 90.65 14.9033 90.17 15.4233 89.75C15.9333 89 16.9233 87.89 16.9133 88.1C16.9633 88.06 17.0033 88.03 17.0533 88L17.8633 86.97C18.3633 86.39 18.3333 86.44 18.2033 86.69C18.0633 86.94 17.8733 87.34 17.9233 87.52C18.0233 87.54 18.1333 87.58 18.2733 87.58C18.3533 87.53 18.4233 87.48 18.4733 87.46C18.4233 87.51 18.3733 87.55 18.3333 87.58C18.5733 87.56 19.0033 87.36 19.5533 86.81C19.7933 86.77 20.0833 86.65 20.3833 86.49C20.5333 86.41 20.6833 86.32 20.8333 86.22C21.1433 86.02 21.4533 85.81 21.7733 85.6C23.0433 84.74 24.3133 83.79 25.6133 82.84C26.9133 81.89 28.2133 80.93 29.5633 80.06C30.2433 79.62 30.9233 79.21 31.6233 78.83C31.9733 78.64 32.3233 78.45 32.6733 78.28L34.2633 77.45C33.9433 77.63 33.5933 77.83 33.2333 78.03C32.9533 78.2 32.6733 78.37 32.4133 78.52C31.9933 78.78 31.6633 79.03 31.5633 79.2C32.2633 78.76 32.9633 78.32 33.6633 77.89C34.5933 77.33 35.5233 76.77 36.4333 76.22C38.1733 75.2 39.8533 74.21 41.4333 73.27C41.4733 76.57 41.5433 79.21 41.8033 81.36C41.9433 81.19 42.0833 81.01 42.2333 80.82C42.2933 81.59 42.3433 82.33 42.4033 83.06C42.4433 83.53 42.4833 83.99 42.5333 84.44C42.6033 85.3 42.6733 86.12 42.7433 86.91C42.8733 88.5 42.9633 90 43.0133 91.54L43.5233 91.69C43.5233 92.81 43.6033 94.24 43.7033 95.8C43.7333 96.19 43.7533 96.59 43.7833 97L43.8233 97.53L43.8433 97.62L43.9133 97.96C43.9833 98.39 43.9333 98.67 43.4933 100.58C43.6433 100.23 43.6633 100.43 43.6433 100.91C43.6233 101.37 43.5733 102.16 43.5733 102.62C43.6233 102.51 43.6833 102.36 43.7433 102.15L43.5733 103.63C43.7633 103.32 43.9733 102.79 44.1433 102.27C44.3133 101.75 44.4533 101.22 44.5733 100.77C44.5333 100.77 44.4933 100.81 44.4533 100.79C44.6333 99.51 44.7533 99.53 45.0333 99.32C45.1833 98.99 45.3733 98.7 45.7633 98.17C46.0033 98.54 45.3733 99.13 45.0333 99.32C44.8433 99.73 44.7233 100.19 44.5733 100.77C44.8033 100.73 45.1133 100.23 45.3933 99.63C45.5333 99.33 45.6633 99 45.7933 98.68C45.9733 98.18 46.1533 97.68 46.3333 97.19C47.3933 94.25 48.3333 91.37 49.4333 88.66H49.5533L50.5133 85.83L51.0533 84.27L51.9033 81.91C51.5633 83.25 51.6933 82.75 52.0633 81.58C52.4233 80.41 53.0733 78.43 53.6633 77.06C53.9933 76.06 54.4233 74.9 54.8933 73.68C56.7133 75.94 58.8733 78.82 60.3933 81.03L63.3633 84.8C60.5333 81.67 63.1133 85.38 62.9033 85.85L64.6933 87.52C65.1333 88.42 63.4433 86.52 64.4833 87.98C65.6833 89.1 68.6433 92.86 69.9433 93.74C69.8833 93.49 69.6033 92.96 69.2333 92.35C69.0833 92.21 69.0933 92.21 69.2033 92.3C69.1733 92.25 69.1533 92.21 69.1233 92.15C68.6133 91.43 68.3433 91.01 68.2033 90.78C67.8133 90.24 67.4033 89.69 66.9433 89.12C67.5033 89.8 67.8433 90.22 68.0733 90.51C68.8933 91.5 68.2333 90.64 68.0733 90.51C68.0233 90.47 68.0733 90.56 68.2033 90.78C68.5533 91.27 68.8633 91.74 69.1233 92.15C69.1633 92.22 69.1833 92.24 69.2333 92.32C69.3933 92.45 69.6533 92.66 69.7833 92.73C69.5833 92.46 69.3833 92.18 69.1133 91.82C69.8833 92.67 69.9333 92.81 69.7833 92.73C70.2333 93.34 70.5333 93.73 70.7333 93.97C70.9733 94.26 70.9333 94.18 70.9833 94.19C71.0333 94.16 71.0733 94.05 71.1233 93.95C71.1333 94.53 71.4433 95.01 71.6933 95.44C71.9433 95.86 72.1433 96.24 72.6233 97.35C72.4133 96.83 72.4233 96.7 72.5033 96.73C72.6133 96.77 72.8433 97.07 73.1033 97.39C73.3533 97.71 73.6333 98.06 73.7233 98.09C73.8233 98.13 73.7033 97.81 73.2933 96.94C74.0333 98.44 74.2033 98.67 74.2533 98.73C74.3233 98.82 74.3033 98.76 75.1033 100.25C74.4433 99.26 74.2133 99.16 73.8833 99.03C73.5733 98.92 73.1533 98.79 72.6333 98.37C73.0533 99.13 73.5333 99.96 74.0833 100.88C73.9633 101.38 72.9933 100.03 72.2133 98.82C71.4033 97.57 70.8133 96.5 70.3633 96.15C70.6733 96.39 71.0633 96.89 71.4233 97.4C71.7733 97.91 72.0833 98.46 72.1233 98.64C71.9833 98.13 71.8633 97.65 71.7733 97.21C71.3833 96.62 71.0333 96.16 70.6833 95.74C70.3033 95.29 70.0533 95.05 69.3933 94.31C68.2533 93.08 67.1533 92.01 66.1333 90.98C67.6633 93.23 63.7933 88.63 64.6833 90.44L66.0733 92.07C66.2033 92.34 66.1633 92.38 66.0233 92.3L80.1133 110.04L79.9933 109.58C79.4233 108.35 78.8033 106.64 78.2733 105.25C77.5833 103.41 77.0433 102.05 76.7333 101.81C76.8033 101.25 77.4933 102.54 76.4233 99.19C75.9233 97.95 75.8333 98.27 75.7933 98.69C75.7533 99.13 75.7733 99.69 75.6433 99.63C74.8433 97.46 74.6233 97.26 74.3333 96.82C74.2933 96.79 74.2633 96.77 74.2333 96.74L74.2133 96.64C73.9933 96.32 73.7033 95.79 73.2933 94.98C73.6133 94.98 73.7033 94.68 73.6533 94.21L73.2533 93.14L72.4733 90.59C72.4733 90.59 72.4733 90.67 72.4733 90.72C72.6033 91.49 72.7133 92.22 72.7833 92.88C72.6133 92.68 72.4933 91.37 72.4733 90.72C72.3233 89.81 72.1433 88.86 71.9433 87.87C71.5233 86.37 71.1633 85.05 70.6733 83.88C70.2133 82.16 70.6233 82.79 70.8133 82.98C70.5433 81.95 70.2733 81 69.9933 80.1C69.8833 79.87 69.7733 79.63 69.6633 79.38L69.5733 79.18C69.5333 79.07 69.4933 78.96 69.4533 78.84C69.3733 78.61 69.2933 78.36 69.2133 78.11C69.2133 78.4 69.1933 78.48 69.1133 77.81C69.1533 77.92 69.1733 78.01 69.2133 78.11C69.2133 77.93 69.1933 77.68 69.1633 77.43C69.1233 77.3 69.0633 77.12 69.0233 76.98C69.0833 76.94 69.1333 77.15 69.1633 77.43C69.4133 78.22 69.6933 79.12 69.9933 80.09C70.3033 80.75 70.5833 81.44 70.8233 82.68C70.9433 83.06 70.9033 83.06 70.8233 82.97C71.2333 84.55 71.6133 86.23 71.9533 87.86C72.2033 88.76 72.4733 89.71 72.8233 90.76C72.0533 86.78 74.1833 93.67 72.6833 88.28C73.3833 90.24 73.4433 89.15 74.3433 92.51C74.3433 92.62 74.3433 92.72 74.3333 92.79C74.3233 92.84 74.3033 92.89 74.2833 92.92C74.2433 92.98 74.2033 93.01 74.1633 93.01C74.0633 92.99 73.9733 92.96 73.8133 92.64C73.5133 92.09 73.1233 91.22 72.8033 90.83C73.0933 91.89 73.3233 92.72 73.5133 93.4C73.6033 93.74 73.6633 94.01 73.6833 94.22L73.8633 94.72L73.7533 94.52L74.2433 96.65C74.2933 96.72 74.3233 96.77 74.3633 96.83C74.8233 97.17 75.4133 97.41 75.9733 97.77C76.5033 98.12 77.0633 98.75 77.6033 100.21L76.5933 96.32C76.6933 97.1 76.2433 95.91 75.8833 94.58L76.1033 94.54C76.1633 94.68 76.2033 94.83 76.2433 94.97L70.3433 72.12L108.083 82.62L77.8633 57.68L84.5433 55.19L84.4433 55.18ZM83.6133 52.88L82.7933 53.32L81.1033 53.59L83.6133 52.88ZM70.2733 96.14C70.1433 96.05 70.0233 96 69.9133 96.02C69.9933 95.96 70.1233 96.02 70.2733 96.14ZM69.8233 96.55C69.5333 96.24 69.2733 95.99 69.2433 96.09L67.4333 93.58C67.4733 93.51 67.7933 93.9 68.2633 94.5C68.7033 95.07 69.2833 95.83 69.8333 96.55C70.3133 97.06 70.9533 97.83 71.2433 98.2C70.9233 97.93 70.3833 97.27 69.8333 96.55H69.8233ZM77.2133 104.62C76.9233 104.22 76.6733 103.93 76.4533 103.67C76.8333 104.05 76.8533 103.79 77.2133 104.62ZM76.7233 105.88L75.5133 104.2C75.6033 104.09 75.6633 103.95 75.7033 103.79L76.7333 105.89L76.7233 105.88ZM76.1233 103.28C76.1833 103.36 76.2233 103.41 76.2733 103.47C75.5633 102.69 74.8533 102.03 74.3533 100.75C75.0033 101.27 75.3933 101.46 76.1133 103.28H76.1233ZM74.2333 98.36L73.6333 96.97L74.4533 98.57C74.3833 98.52 74.3133 98.45 74.2333 98.36ZM73.8433 96.42L74.3433 97.62C73.8733 96.67 73.4533 95.87 73.0533 95.21L73.8333 96.42H73.8433ZM72.2833 95.57C72.2833 95.57 72.3633 95.96 72.4433 96.21C72.2633 95.86 72.1433 95.54 71.9333 95.31C72.0733 95.42 72.1833 95.5 72.2933 95.57H72.2833ZM70.8433 78.35C71.0033 78.66 71.1833 79.14 71.4633 80.44L71.6533 80.27L71.8833 82.67L70.4533 77.98C70.5933 78.18 70.6833 78.1 70.8433 78.37V78.35ZM78.4033 54.92L79.2033 55.31C78.7333 55.33 77.6833 55.78 77.1433 56.01L78.4033 54.91V54.92ZM76.9133 60.12C76.9433 60 77.4633 61.05 75.9133 59.89C76.0933 59.94 76.0433 59.36 76.9133 60.12ZM66.0533 88.03C65.8533 87.52 65.5833 88.17 65.0933 87.38C61.7233 83.58 67.1033 88.52 66.0533 88.03ZM65.3033 67.4L66.5033 70.65L67.2733 72.93L65.2933 67.4H65.3033ZM69.3233 81.34C69.6233 83.45 70.0033 85.05 70.5033 86.51C70.8533 87.32 71.1733 88.06 71.4233 88.78C71.0633 88.04 70.7633 87.28 70.5033 86.51C69.9233 85.16 69.2833 83.67 68.7633 81.86C69.2433 82.99 68.7633 80.3 69.3233 81.34ZM70.3933 69.6C69.7933 69.43 69.2133 69.27 68.6933 69.12L68.7633 69.15L66.7833 68.58L67.2233 70.34L66.7833 68.57L68.6933 69.12L66.4133 68.04C69.1433 68.9 69.9833 69.39 70.3933 69.6C70.5533 69.64 70.6633 69.68 70.8233 69.72C70.7033 69.74 70.5933 69.7 70.3933 69.6ZM71.2133 70.52L71.5833 70.44L73.1633 70.92L77.5833 71.84C77.2133 71.8 77.0133 71.82 77.0633 71.9C77.1233 71.99 77.2633 72.1 77.2633 72.16L73.1533 70.92L71.2133 70.52ZM79.1933 74.32C79.1933 74.32 79.1833 74.38 79.3433 74.46C78.6933 74.27 78.8333 74.27 79.1933 74.32C79.1733 74.17 80.3033 74.4 79.2333 73.97C77.9633 73.57 77.5933 73.65 77.1833 73.6C76.5433 73.22 75.8833 72.87 75.4033 72.57C74.9833 72.31 74.6233 72.07 74.2333 71.8C73.9833 71.68 73.8733 71.61 73.9833 71.63C74.0733 71.69 74.1533 71.74 74.2333 71.8C74.5633 71.96 75.1333 72.21 75.8133 72.49C76.3333 72.71 76.9433 72.96 77.5733 73.22C78.1133 73.45 78.6833 73.67 79.2133 73.85L79.6133 73.9C81.9733 74.77 79.9933 74.43 79.1933 74.32ZM104.153 80.14C104.293 80.35 104.413 80.54 104.513 80.7C104.073 80.48 103.773 80.21 103.443 79.88C103.113 79.56 102.713 79.17 102.263 78.87L104.163 80.13L104.153 80.14ZM96.7633 74.88C96.7533 74.94 96.7333 74.99 96.7033 75.04C97.2133 75.63 98.4833 76.49 99.7233 77.4C100.923 78.28 102.013 79.14 100.983 78.75C100.733 78.42 99.5633 77.51 98.3533 76.62C97.2433 75.81 96.0533 74.94 95.0233 74.19C95.5433 74.37 96.1233 74.6 96.7533 74.88H96.7633ZM94.1633 76.61C94.5333 76.58 94.4033 76.46 94.1633 76.31C93.9133 76.16 93.5233 75.99 93.2033 75.82C93.8833 75.96 94.5033 76.23 94.8733 76.47C95.2333 76.7 95.1833 76.84 94.1733 76.61H94.1633ZM93.7133 75.68C93.7133 75.68 93.7133 75.61 93.3333 75.36C93.5633 75.45 93.6833 75.48 93.7533 75.49C94.0633 75.56 92.8933 75.01 93.7533 75.49C93.8433 75.54 93.8833 75.56 94.0333 75.64C93.7533 75.64 93.7133 75.68 93.7233 75.67L93.7133 75.68ZM92.2433 71.53L92.7633 71.88C92.9333 72 93.1233 72.12 93.2133 72.17L93.9433 72.62L93.0733 72.17L91.8733 71.45L92.2433 71.53ZM91.7833 74.52C91.7533 74.64 92.0533 74.76 92.3433 75.01C92.2833 75.08 92.1633 75.13 92.0033 75.17C91.5033 74.75 91.5933 74.61 91.7833 74.52ZM91.8433 75.56C92.1433 75.56 92.4033 75.56 92.6033 75.54C92.3933 75.64 92.2633 75.81 92.2433 75.59C92.1533 76.01 91.9833 75.72 91.8433 75.56L91.3833 75.54C91.6633 75.41 91.7433 75.46 91.8433 75.56ZM90.9633 76.18L91.3433 76.21L92.0333 76.26C92.4633 76.28 92.8333 76.29 93.1433 76.28C92.6533 76.33 91.9533 76.33 91.0533 76.27L90.3333 76.08C90.5333 76.11 90.8133 76.17 90.9633 76.18ZM82.4833 74.38C79.4533 73.16 82.7533 73.81 84.3633 74.01C81.9333 73.71 83.6733 74.41 82.4833 74.38ZM79.4533 71.3C79.5133 71.55 81.2033 72.12 82.0833 72.47L80.2733 72.15C80.3733 72.35 79.9133 72.35 77.5633 71.67L80.2733 72.15C80.1433 71.91 79.2633 71.41 79.4533 71.3Z" fill="#1C1711"/>
</svg>
