<svg width="144" height="24" viewBox="0 0 144 24" fill="none" xmlns="http://www.w3.org/2000/svg">
<path d="M11.0919 1.96866C11.4494 1.19379 12.5506 1.19379 12.9081 1.96866L15.1512 6.83177C15.2969 7.14758 15.5961 7.36502 15.9415 7.40597L21.2598 8.03653C22.1072 8.137 22.4475 9.18439 21.821 9.76376L17.889 13.3999C17.6337 13.636 17.5194 13.9878 17.5872 14.329L18.6309 19.5818C18.7972 20.4187 17.9062 21.0661 17.1616 20.6493L12.4884 18.0334C12.185 17.8635 11.815 17.8635 11.5116 18.0334L6.83836 20.6493C6.09375 21.0661 5.20279 20.4187 5.3691 19.5818L6.41282 14.329C6.4806 13.9878 6.36629 13.636 6.11095 13.3999L2.17903 9.76376C1.55253 9.18439 1.89284 8.137 2.74024 8.03653L8.05849 7.40597C8.40386 7.36502 8.70314 7.14758 8.84881 6.83177L11.0919 1.96866Z" fill="#FFBB68"/>
<path d="M41.0919 1.96866C41.4494 1.19379 42.5506 1.19379 42.9081 1.96866L45.1512 6.83177C45.2969 7.14758 45.5961 7.36502 45.9415 7.40597L51.2598 8.03653C52.1072 8.137 52.4475 9.18439 51.821 9.76376L47.889 13.3999C47.6337 13.636 47.5194 13.9878 47.5872 14.329L48.6309 19.5818C48.7972 20.4187 47.9062 21.0661 47.1616 20.6493L42.4884 18.0334C42.185 17.8635 41.815 17.8635 41.5116 18.0334L36.8384 20.6493C36.0937 21.0661 35.2028 20.4187 35.3691 19.5818L36.4128 14.329C36.4806 13.9878 36.3663 13.636 36.111 13.3999L32.179 9.76376C31.5525 9.18439 31.8928 8.137 32.7402 8.03653L38.0585 7.40597C38.4039 7.36502 38.7031 7.14758 38.8488 6.83177L41.0919 1.96866Z" fill="#FFBB68"/>
<path d="M71.0919 1.96866C71.4494 1.19379 72.5506 1.19379 72.9081 1.96866L75.1512 6.83177C75.2969 7.14758 75.5961 7.36502 75.9415 7.40597L81.2598 8.03653C82.1072 8.137 82.4475 9.18439 81.821 9.76376L77.889 13.3999C77.6337 13.636 77.5194 13.9878 77.5872 14.329L78.6309 19.5818C78.7972 20.4187 77.9062 21.0661 77.1616 20.6493L72.4884 18.0334C72.185 17.8635 71.815 17.8635 71.5116 18.0334L66.8384 20.6493C66.0937 21.0661 65.2028 20.4187 65.3691 19.5818L66.4128 14.329C66.4806 13.9878 66.3663 13.636 66.111 13.3999L62.179 9.76376C61.5525 9.18439 61.8928 8.137 62.7402 8.03653L68.0585 7.40597C68.4039 7.36502 68.7031 7.14758 68.8488 6.83177L71.0919 1.96866Z" fill="#FFBB68"/>
<path d="M101.092 1.96866C101.449 1.19379 102.551 1.19379 102.908 1.96866L105.151 6.83177C105.297 7.14758 105.596 7.36502 105.942 7.40597L111.26 8.03653C112.107 8.137 112.447 9.18439 111.821 9.76376L107.889 13.3999C107.634 13.636 107.519 13.9878 107.587 14.329L108.631 19.5818C108.797 20.4187 107.906 21.0661 107.162 20.6493L102.488 18.0334C102.185 17.8635 101.815 17.8635 101.512 18.0334L96.8384 20.6493C96.0937 21.0661 95.2028 20.4187 95.3691 19.5818L96.4128 14.329C96.4806 13.9878 96.3663 13.636 96.111 13.3999L92.179 9.76376C91.5525 9.18439 91.8928 8.137 92.7402 8.03653L98.0585 7.40597C98.4039 7.36502 98.7031 7.14758 98.8488 6.83177L101.092 1.96866Z" fill="#FFBB68"/>
<path d="M131.092 1.96866C131.449 1.19379 132.551 1.19379 132.908 1.96866L135.151 6.83177C135.297 7.14758 135.596 7.36502 135.942 7.40597L141.26 8.03653C142.107 8.137 142.447 9.18439 141.821 9.76376L137.889 13.3999C137.634 13.636 137.519 13.9878 137.587 14.329L138.631 19.5818C138.797 20.4187 137.906 21.0661 137.162 20.6493L132.488 18.0334C132.185 17.8635 131.815 17.8635 131.512 18.0334L126.838 20.6493C126.094 21.0661 125.203 20.4187 125.369 19.5818L126.413 14.329C126.481 13.9878 126.366 13.636 126.111 13.3999L122.179 9.76376C121.553 9.18439 121.893 8.137 122.74 8.03653L128.058 7.40597C128.404 7.36502 128.703 7.14758 128.849 6.83177L131.092 1.96866Z" fill="#FFBB68"/>
</svg>
