<svg width="33" height="26" viewBox="0 0 33 26" fill="none" xmlns="http://www.w3.org/2000/svg">
<path d="M32.9994 2.00229C32.944 2.49526 32.8912 3.0791 32.8107 3.65989C32.6182 5.04944 32.4283 6.43929 32.2087 7.82486C31.8923 9.82029 31.5607 11.8133 31.2169 13.8044C30.8624 15.8558 30.4919 17.9048 30.1149 19.9529C29.8931 21.1573 29.6559 22.3589 29.4044 23.5582C29.294 24.0842 29.0964 24.5872 28.7983 25.0487C28.279 25.8529 27.6261 26.1206 26.6407 25.9517C25.873 25.8201 25.2046 25.4823 24.5705 25.0744C22.5002 23.7439 20.4347 22.4067 18.3654 21.0744C17.464 20.4942 16.5568 19.9217 15.6545 19.3424C15.2663 19.093 14.9063 18.8115 14.624 18.4507C14.2168 17.9305 14.1679 17.4103 14.5542 16.8763C14.8252 16.5015 15.1471 16.1505 15.4922 15.8347C16.8714 14.5722 18.2724 13.3316 19.6579 12.0755C21.0242 10.8368 22.3859 9.59385 23.7399 8.34322C24.0969 8.01336 24.4185 7.64891 24.7536 7.29793C24.8686 7.17798 24.912 7.03783 24.876 6.87351C24.8196 6.61769 24.6564 6.4803 24.3863 6.51885C24.2057 6.54486 24.0119 6.59046 23.8609 6.68226C22.5501 7.47755 21.2402 8.27499 19.9438 9.09139C18.0213 10.3022 16.1094 11.5284 14.1943 12.7496C13.1297 13.4286 12.0737 14.1196 11.003 14.7891C10.2533 15.2579 9.44783 15.611 8.54548 15.7267C8.03845 15.7916 7.54043 15.7252 7.04274 15.6398C5.72028 15.4131 4.43807 15.0428 3.16358 14.6471C2.4811 14.4354 1.79573 14.2285 1.12484 13.9868C0.844446 13.8858 0.575319 13.7267 0.341281 13.5468C-0.0781838 13.2245 -0.107479 12.7401 0.234081 12.3414C0.486146 12.047 0.810644 11.8322 1.1654 11.674C1.95637 11.3212 2.75538 10.9846 3.55664 10.6535C6.61008 9.39158 9.66287 8.12811 12.7215 6.87718C15.0805 5.91205 17.4434 4.9558 19.8118 4.01179C21.7794 3.22751 23.7508 2.45027 25.7332 1.70088C27.0473 1.20394 28.3778 0.743405 29.7148 0.304295C30.1909 0.147929 30.704 0.0815269 31.2062 0.0142069C31.5829 -0.0362832 31.9547 0.0512329 32.2943 0.222287C32.747 0.449951 32.897 0.850199 32.9475 1.29941C32.9704 1.50198 32.9784 1.70578 33 2.00198L32.9994 2.00229Z" fill="white"/>
</svg>
