<svg width="455" height="503" viewBox="0 0 455 503" fill="none" xmlns="http://www.w3.org/2000/svg">
<path d="M452.233 140.249C450.635 139.558 448.856 139.07 447.124 138.937C438.031 138.236 428.934 137.567 419.827 137.104C410.39 136.627 401.015 136.891 391.636 138.619C385.923 139.67 379.994 140.064 374.115 138.908C369.292 137.961 367.918 137.198 367.523 134.01C366.598 126.532 365.817 119.036 364.974 111.547C364.118 103.957 363.286 96.363 362.393 88.78C361.583 81.9235 360.741 75.0707 359.848 68.2214C359.049 62.1095 358.177 56.0048 357.309 49.9001C356.514 44.3159 355.701 38.7317 354.854 33.1547C354.178 28.7199 353.777 24.2055 352.649 19.8827C350.957 13.3949 348.444 11.5588 342.204 10.7022C332.872 9.4227 323.478 8.48658 314.078 7.82876C296.933 6.62879 279.77 5.63122 262.603 4.75654C246.481 3.93608 230.341 3.41922 214.212 2.70357C202.588 2.19033 190.971 1.46023 179.343 1.03012C166.038 0.534947 152.722 -0.00359629 139.413 1.80936e-05C130.945 0.00363247 122.438 0.600006 114.028 1.59396C106.804 2.45057 99.6377 4.02644 92.5475 5.71074C87.4206 6.9324 84.3293 10.3552 83.8521 15.8961C82.8758 27.2705 81.7803 38.6341 80.7463 50.0013C79.658 61.9902 78.595 73.9827 77.5067 85.9716C77.1849 89.5173 76.8125 93.0594 76.4546 96.6015C75.5145 105.869 74.6468 115.143 73.5946 124.396C73.0161 129.482 72.2026 134.545 71.3204 139.591C70.8432 142.327 70.2719 142.627 67.4445 142.096C61.4101 140.957 55.4083 139.638 49.363 138.568C43.6034 137.549 37.8004 136.746 32.0191 135.857C26.2305 134.968 20.4492 134.014 14.6462 133.24C10.9257 132.745 7.1583 132.163 3.43425 132.294C0.212765 132.406 -0.936991 135.514 0.823798 138.283C1.15643 138.807 1.57584 139.305 2.04587 139.714C8.61538 145.381 15.0692 151.189 21.8123 156.644C31.0682 164.133 42.5693 166.467 53.5896 169.829C59.0636 171.499 64.5304 173.208 70.0658 174.64C72.2316 175.2 72.5027 176.356 72.5751 178.24C72.8028 184.406 73.1355 190.572 73.5729 196.731C73.7718 199.539 74.3033 202.326 74.7082 205.116C74.9107 206.504 74.4841 206.869 72.9908 206.822C69.791 206.721 66.5334 206.641 63.3842 207.122C58.9298 207.801 57.6969 211.239 60.4231 214.918C61.7247 216.675 63.4855 218.092 64.7762 219.852C65.568 220.933 66.1899 222.346 66.3237 223.669C66.7612 228.028 66.9492 232.408 67.2059 236.785C67.2384 237.353 67.1372 237.927 67.0974 238.498C66.6346 238.123 66.0344 237.83 65.7307 237.353C62.9865 233.044 60.3074 228.696 57.5812 224.377C55.2492 220.68 52.6459 217.112 52.4543 212.489C52.4435 212.251 52.2048 211.821 51.9988 211.788C51.7927 211.756 51.319 212.244 51.1708 212.562C49.9668 215.131 48.6977 217.756 49.8547 220.661C51.0804 223.73 52.3133 226.817 53.8644 229.726C55.4263 232.654 56.4929 235.553 56.3194 238.954C56.1205 242.825 56.2724 246.718 56.2724 250.599C56.2688 250.599 56.2652 250.599 56.2615 250.599C56.2615 255.005 56.1061 259.422 56.323 263.817C56.4459 266.289 57.1293 268.74 57.6861 271.176C57.8018 271.682 58.1633 272.557 58.8684 272.499C59.5734 272.445 59.5228 271.53 59.5734 271.021C59.8663 268.104 60.2712 265.18 60.264 262.259C60.2495 256.494 59.953 250.733 59.8627 244.968C59.8446 243.696 60.2025 242.42 60.3869 241.144C61.6849 241.889 63.0588 242.532 64.2556 243.414C64.8811 243.877 65.4053 244.693 65.6259 245.452C66.6816 249.049 67.7808 252.641 68.5473 256.306C69.3969 260.373 67.9073 264.077 66.3309 267.786C64.035 273.189 65.0365 275.643 70.0694 278.275C71.3891 278.965 72.4413 279.073 73.215 277.595C73.9996 276.102 74.795 275.795 75.6411 277.537C78.6022 283.656 83.3133 289.107 82.9084 296.524C82.8867 296.928 83.1 297.341 83.1579 297.753C83.8267 302.516 84.5788 307.273 85.1103 312.055C85.414 314.791 84.5065 317.234 82.3118 319.048C79.6833 321.221 76.798 320.238 75.7929 316.956C75.3084 315.376 74.8529 313.659 73.8766 312.394C71.9423 309.879 71.4 307.222 71.8664 304.179C72.0399 303.051 71.87 301.873 71.9134 300.72C72.0761 296.075 68.5943 293.77 65.2788 292.79C64.2664 292.49 63.2613 292.671 63.9447 294.203C64.2845 294.966 64.6316 295.725 64.9389 296.502C67.3867 302.711 69.7693 308.946 70.5901 315.629C71.5338 323.321 74.7082 329.555 81.7586 333.423C83.3097 334.272 84.6186 335.584 86.1986 336.354C88.1257 337.294 88.9464 338.779 89.2501 340.746C90.1142 346.323 91.0434 351.889 91.8569 357.473C93.7045 370.156 97.5226 382.231 102.801 393.884C109.179 407.966 119.014 419.586 129.141 431.007C129.459 431.365 129.694 431.907 130.294 431.907C130.891 431.907 130.793 430.534 130.721 429.883C129.828 421.422 127.691 413.279 124.133 405.544C120.178 396.942 116.096 388.401 112.101 379.821C108.051 371.124 104.356 362.229 102.574 352.81C100.943 344.194 100.249 335.393 99.3123 326.653C98.4843 318.933 96.9441 311.411 94.0155 304.193C93.6105 303.199 93.5454 302.065 93.3213 300.998C94.3626 301.269 95.4581 301.418 96.4379 301.837C102.993 304.645 109.646 307.023 116.909 307.038C132.438 307.067 147.967 307.161 163.492 307.06C166.276 307.042 169.133 306.51 171.816 305.729C178.678 303.738 183.989 299.061 189.543 294.876C192.262 292.826 194.033 289.967 195.038 286.685C195.892 283.895 196.655 281.079 197.577 278.314C197.775 277.714 198.658 276.767 198.911 276.858C198.965 276.876 199.012 276.89 199.059 276.905C198.914 279.543 199.135 283.45 199.106 283.794C198.596 289.736 198.603 293.91 198.151 299.86C198.108 300.438 198.148 301.649 198.679 301.649C199.211 301.649 199.677 300.489 199.742 299.863C200.259 294.98 201.109 292.49 201.109 285.189C201.109 280.747 200.968 277.761 200.621 276.095C200.661 275.802 200.661 275.484 200.679 275.195C200.867 272.268 201.087 269.333 201.073 266.401C201.033 259.559 203.296 253.57 207.429 248.203C211.388 243.06 217.086 242.561 221.349 247.375C225.662 252.24 228.732 257.752 227.875 264.67C227.749 265.704 227.846 266.766 227.817 267.815C227.528 279.229 227.195 290.639 226.96 302.054C226.895 305.242 227.546 308.26 229.943 310.681C231.339 312.094 232.619 313.631 233.863 315.181C235.858 317.671 236.958 320.379 235.645 323.606C235.099 324.947 234.842 326.422 234.202 327.709C228.305 339.513 218.818 346.03 205.773 340.344C202.635 338.978 199.511 337.565 196.416 336.105C194.648 335.27 193.401 333.932 192.967 331.945C192.822 331.276 193.108 330.221 192.442 329.96C191.777 329.696 191.354 331.149 190.964 331.833C190.721 332.252 190.693 332.848 190.714 333.358C190.794 334.999 189.959 335.595 188.426 335.595C180.703 335.591 180.066 336.007 178.24 328.637C178.165 328.334 178.052 328.037 177.955 327.737C177.611 326.657 177.676 324.665 176.924 324.499C176.172 324.336 175.865 326.939 175.612 328.211C175.438 329.089 175.659 330.087 175.872 330.99C176.895 335.31 180.359 337.883 183.064 341.017C185.558 343.908 188.639 344.96 192.32 344.45C196.879 343.821 201.612 343.952 205.477 346.178C211.182 349.463 216.266 349.25 221.53 345.784C223.146 344.718 224.368 345.437 225.294 346.698C226.317 348.09 226.758 349.904 229.231 349.521C230.927 349.257 232.796 350.024 234.474 349.716C237.308 349.192 240.009 347.96 242.844 347.421C247.493 346.539 252.208 346.239 256.832 347.682C259.891 348.632 262.903 349.72 265.947 350.725C266.302 350.841 266.511 351.036 267.083 350.844C267.654 350.653 266.945 349.883 266.667 349.666C264.939 348.318 263.275 346.811 261.355 345.802C258.271 344.186 257.982 341.212 257.339 338.418C257.198 337.807 257.78 336.723 258.347 336.365C258.72 336.13 259.837 336.632 260.332 337.11C262.755 339.43 265.061 341.866 267.455 344.219C267.784 344.541 268.207 344.935 268.814 344.808C269.422 344.682 268.865 343.601 268.59 343.2C266.425 340.005 264.335 336.741 261.934 333.73C259.114 330.192 256.681 326.519 254.916 322.301C253.741 319.486 251.796 316.974 250.053 314.422C249.67 313.858 248.404 313.247 247.971 313.367C247.537 313.486 248.238 314.852 248.527 315.524C250.125 319.222 251.93 322.84 253.351 326.603C254.399 329.378 253.22 331.634 250.411 332.57C248.864 333.087 247.143 333.282 245.501 333.275C242.182 333.257 241.379 332.122 242.211 328.923C243.545 323.787 244.181 318.633 242.782 313.399C242.515 312.398 242.11 311.422 241.947 310.406C241.719 308.979 242.298 308.126 243.889 308.473C245.827 308.892 247.822 309.188 249.67 309.872C253.596 311.321 257.635 311.625 261.724 311.288C262.892 311.191 264.967 310.616 265.148 310.009C265.329 309.405 263.695 308.993 263.019 308.426C262.733 308.187 262.238 308.025 262.361 307.464C262.487 306.908 263.113 307.146 263.445 307.211C265.188 307.537 266.913 308.238 268.652 308.256C279.231 308.375 289.817 308.65 300.386 308.285C310.625 307.931 320.828 306.817 330.207 302.057C330.54 301.887 331.115 301.58 331.364 301.866C331.61 302.155 331.371 302.701 331.187 303.008C330.818 303.633 330.301 304.164 329.874 304.757C324.021 312.897 317.976 320.91 312.371 329.219C304.254 341.255 299.261 354.238 300.494 369.205C301.293 378.903 301.127 388.676 301.76 398.391C301.937 401.08 303.423 403.69 304.334 406.325C304.945 408.085 305.614 409.827 306.239 411.584C306.568 412.505 306.424 414.107 307.165 414.367C307.906 414.627 308.749 412.903 309.403 412.068C309.765 411.605 309.866 410.922 310.039 410.326C312.639 401.268 312.867 391.936 312.972 382.633C313.033 376.991 312.436 371.334 311.995 365.696C311.753 362.598 312.227 359.949 314.891 357.939C315.672 357.346 316.218 356.32 316.634 355.387C317.856 352.637 318.923 349.814 320.134 347.056C320.478 346.276 321.255 344.83 321.591 344.909C321.927 344.989 321.877 346.5 321.775 347.262C321.352 350.483 320.622 353.678 320.42 356.905C320.232 359.898 320.275 362.967 320.741 365.92C321.587 371.265 323.196 376.51 323.818 381.874C324.939 391.524 322.705 400.751 319.321 409.755C318.113 412.964 317.158 416.275 316.182 419.568C316.001 420.186 315.698 421.079 316.352 421.628C317.007 422.178 317.646 421.14 318.25 420.815C318.608 420.623 318.934 420.309 319.18 419.976C322.159 415.964 325.51 412.166 328.009 407.875C333.993 397.593 338.508 386.59 342.41 375.368C345.248 367.203 348.144 359.005 349.023 350.313C349.673 343.858 350.277 337.399 350.758 330.929C351.029 327.293 350.881 327.452 354.374 327.77C356.167 327.933 358.289 327.857 359.808 327.043C363.727 324.944 366.037 321.271 367.759 317.267C368.503 315.532 367.675 314.968 365.972 315.246C364.316 315.514 362.66 315.875 360.994 315.944C357.107 316.11 355.339 314.809 354.536 311.072C354.12 309.145 353.878 307.128 353.918 305.162C354.142 294.68 354.37 284.195 354.836 273.724C355.021 269.582 355.737 265.454 356.373 261.349C357.458 254.333 359.11 247.372 359.707 240.32C360.253 233.879 362.321 228.299 365.376 222.675C367.925 217.983 372.632 213.783 370.593 207.296C370.087 205.68 369.523 204.747 368.012 204.874C366.287 205.018 364.58 205.521 362.903 205.994C361.482 206.396 360.632 206.24 360.773 204.502C360.943 202.412 361.113 200.323 361.247 198.231C361.655 191.866 362.14 185.504 362.397 179.132C362.48 177.083 363.029 176.19 365.181 175.854C370.85 174.976 376.497 173.906 382.116 172.735C387.933 171.524 393.708 170.082 399.507 168.792C405.802 167.389 412.194 166.341 418.388 164.592C426.815 162.21 435.012 159.058 442.547 154.504C446.282 152.245 449.955 149.809 453.336 147.055C456.004 144.89 455.339 141.586 452.233 140.249ZM83.1036 142.034C82.6191 141.648 82.1202 140.74 82.2648 140.26C82.4094 139.79 83.335 139.349 83.9605 139.273C86.5493 138.969 89.1597 138.854 91.7521 138.583C93.8166 138.369 94.9121 137.325 95.5557 135.149C96.4343 132.178 98.4409 129.521 99.1713 126.536C100.028 123.026 100.263 119.314 100.346 115.682C100.419 112.639 101.225 110.286 103.723 108.395C106.012 106.664 106.609 104.315 105.104 102.356C103.185 99.8508 102.639 97.0099 102.563 94.1184C102.436 89.3981 103.116 84.7464 105.329 80.4633C105.538 80.0549 105.997 79.7766 106.341 79.4368C106.569 79.8453 106.742 80.3007 107.035 80.6549C108.319 82.2199 109.537 83.8608 110.976 85.2704C111.927 86.1993 113.406 86.6042 114.295 87.5692C115.228 88.5812 116.381 90.0161 116.324 91.2125C116.074 96.0991 115.713 101.026 114.801 105.825C113.558 112.375 111.714 118.805 110.249 125.314C109.403 129.077 108.604 132.872 108.156 136.696C107.845 139.36 108.134 142.099 108.217 144.803C108.301 147.42 109.797 149.263 112.115 149.993C119.44 152.303 126.758 154.735 134.239 156.419C139.825 157.677 145.646 157.988 151.384 158.483C160.777 159.297 170.178 160.121 179.596 160.569C191.846 161.151 204.114 161.389 216.378 161.729C219.726 161.823 223.081 161.743 226.433 161.743C226.433 161.715 226.433 161.686 226.433 161.653C235.457 161.653 244.485 161.707 253.51 161.628C256.963 161.599 260.412 161.237 263.865 161.096C264.407 161.075 264.964 161.407 265.517 161.577C265.04 161.83 264.588 162.217 264.078 162.322C253.159 164.548 242.106 165.257 230.985 165.43C216.623 165.654 202.262 166.529 187.912 166.308C177.893 166.153 167.889 164.7 157.896 163.688C152.284 163.121 146.713 162.159 141.101 161.566C129.596 160.348 118.627 157.077 107.903 152.946C100.628 150.141 93.4767 147.018 86.2962 143.979C85.1573 143.491 84.069 142.808 83.1036 142.034ZM134.788 237.721C128.801 237.779 123.258 239.749 117.936 242.127C109.512 245.893 104.945 252.728 103.101 261.717C101.189 271.05 102.089 280.219 103.846 289.407C103.904 289.714 104.031 290.025 104.02 290.329C104.002 290.824 104.233 291.717 103.825 291.811C103.416 291.905 102.892 291.247 102.722 290.842C101.243 287.296 99.569 283.797 98.459 280.136C95.6606 270.916 95.1254 261.453 96.4017 251.922C96.8428 248.633 97.472 245.308 98.5349 242.178C99.7462 238.618 102.87 237.197 106.442 237.103C111.67 236.97 120.261 236.55 122.137 236.543C124.014 236.536 128.635 236.518 131.885 236.557C132.923 236.572 133.964 236.713 134.987 236.886C135.342 236.948 135.982 237.118 135.982 237.494C135.985 237.87 135.19 237.718 134.788 237.721ZM286.144 237.725C280.041 238.155 274.245 239.644 268.782 242.449C260.979 246.45 256.558 252.985 254.804 261.352C252.841 270.721 253.473 280.089 255.509 289.389C255.599 289.797 255.726 290.213 255.726 290.625C255.726 291.113 256.062 291.915 255.538 292.089C255.014 292.266 254.551 291.536 254.403 291.131C252.555 286.075 250.52 281.065 249.066 275.896C248.115 272.51 248.173 268.856 247.533 265.364C246.542 259.964 247.736 254.72 248.412 249.443C248.661 247.502 249.229 245.583 249.836 243.714C251.42 238.835 253.416 237.233 258.68 237.078C264.335 236.908 275.655 236.55 275.655 236.55C275.655 236.55 282.579 236.514 286.043 236.586C286.654 236.601 287.861 236.89 287.861 237.335C287.861 237.779 286.722 237.682 286.144 237.725ZM338.566 207.259C339.376 209.265 339.994 211.387 340.396 213.516C340.877 216.078 340.222 216.863 337.706 217.495C336.69 217.752 335.677 218.16 334.651 218.2C332.922 218.265 331.838 218.67 332.058 220.734C332.235 222.422 330.984 222.487 329.748 222.44C325.561 222.281 321.378 222.035 317.191 221.995C302.403 221.851 287.612 221.746 272.824 221.688C260.549 221.637 248.271 221.681 235.996 221.67C231.386 221.666 226.765 221.836 222.173 221.572C213.764 221.084 205.361 221.648 196.958 221.417C193.932 221.334 194.022 221.366 193.863 218.204C193.665 214.242 193.317 210.285 192.985 206.33C192.945 205.871 192.916 204.957 192.424 204.993C191.933 205.033 191.687 205.987 191.658 206.504C191.567 208.073 191.766 209.659 191.625 211.217C191.477 212.865 191.351 214.607 190.714 216.097C188.501 221.272 187.666 221.627 182.63 221.5C171.935 221.236 161.226 221.421 150.523 221.421C150.523 221.384 150.523 221.348 150.523 221.312C139.507 221.312 128.49 221.33 117.473 221.29C116.016 221.287 114.559 220.914 113.102 220.878C110.398 220.813 107.693 220.849 104.985 220.889C99.9595 220.965 94.9338 221.11 89.9118 221.149C88.104 221.164 87.4279 219.924 87.1784 218.298C85.8623 209.699 84.8355 201.086 85.0199 192.354C85.0994 188.696 84.7704 185.027 84.6402 181.366C84.5535 178.962 84.9729 178.543 87.323 179.06C91.8063 180.043 96.2716 181.124 100.737 182.179C104.794 183.137 108.847 184.109 112.9 185.082C113.406 185.204 113.93 185.302 114.396 185.522C114.747 185.689 115.018 186.032 115.326 186.296C115.029 186.527 114.769 186.842 114.433 186.975C112.983 187.554 111.497 188.038 110.058 188.634C109.208 188.989 108.369 189.415 107.621 189.95C107.248 190.214 106.464 190.402 106.844 191.219C107.223 192.036 107.921 191.454 108.416 191.352C112.191 190.583 115.98 189.867 119.711 188.924C123.981 187.843 128.183 187.969 132.453 188.902C134.796 189.415 137.207 189.654 139.604 189.867C152.215 191.005 164.834 192.083 177.445 193.221C179.094 193.369 180.721 193.763 182.362 193.991C184.137 194.237 185.858 195.093 187.688 193.666C188.447 193.073 189.897 193.29 191.036 193.275C201.735 193.124 212.437 193.171 223.124 192.816C232.232 192.516 241.34 191.909 250.426 191.168C259.707 190.409 268.963 189.325 278.229 188.367C285.309 187.633 292.392 186.95 299.457 186.101C305.27 185.403 311.063 184.514 316.858 183.679C322.857 182.815 328.855 181.93 334.846 181.012C336.393 180.777 337.919 180.383 339.456 180.076C340.75 179.819 341.462 180.311 341.506 181.68C341.654 186.318 341.686 191.056 339.123 195.064C336.48 199.188 336.874 203.074 338.566 207.259ZM296.871 448.277C298.307 453.442 295.534 457.476 292.822 461.451C291.882 462.828 290.891 464.177 289.955 465.554C289.727 465.89 289.673 466.591 289.438 466.638C284.466 467.657 285.359 472.436 283.815 475.566C282.463 478.305 282.68 478.573 280.157 477.087C278.204 475.941 277.351 477.044 276.841 478.486C276.241 480.188 275.753 481.685 273.482 481.226C273.211 481.171 272.802 481.298 272.593 481.49C267.925 485.754 260.81 486.239 256.897 491.74C255.863 493.197 254.283 494.208 252.215 493.157C252.006 493.048 250.99 493.789 250.946 494.198C250.585 497.577 248.213 498.347 245.443 498.557C241.455 498.857 237.449 498.849 233.696 497.273C232.134 496.619 230.728 496.959 230.026 498.022C228.233 500.725 225.941 500.263 223.663 499.316C221.262 498.314 219.784 498.777 218.467 501.065C217.983 501.904 216.378 502.738 215.459 502.579C209.378 501.524 203.322 501.567 197.327 502.829C193.787 503.573 191.473 501.795 189.991 499.316C187.486 495.134 183.769 493.027 179.43 491.537C178.555 491.237 177.532 490.934 176.953 490.294C174.802 487.905 172.311 486.452 169.068 485.838C167.408 485.523 166.034 483.871 164.443 482.975C163.587 482.491 162.563 482.122 161.587 482.05C158.93 481.847 157.118 480.709 156.026 478.197C154.24 474.094 152.067 470.151 150.509 465.969C149.93 464.419 150.176 462.214 150.827 460.631C151.847 458.151 153.853 456.077 154.851 453.59C156.232 450.153 156.847 446.412 158.181 442.949C159.649 439.143 161.461 435.453 165.712 433.83C168.175 432.891 168.898 433.252 169.064 435.941C169.173 437.719 169.021 439.512 169.155 441.287C169.209 442.01 169.711 442.704 170.011 443.408C170.684 442.971 171.447 442.624 172.004 442.071C172.423 441.655 172.503 440.914 172.868 440.423C173.425 439.682 173.981 438.807 174.755 438.392C175.699 437.886 176.867 437.795 177.94 437.528C178.183 438.59 178.428 439.653 178.66 440.716C178.682 440.81 178.656 440.936 178.613 441.023C176.295 445.483 179.155 447.67 182.348 449.856C183.631 450.735 184.499 450.709 185.652 449.744C188.708 447.185 189.058 443.972 188.259 440.347C187.612 437.409 186.929 434.459 186.611 431.477C186.35 429.012 187.207 426.959 189.575 425.47C190.599 424.827 191.282 423.114 191.481 421.787C192.356 416.004 199.569 410.503 205.455 411.324C208.94 411.808 212.422 412.289 215.915 412.722C216.403 412.784 217.039 412.722 217.412 412.451C222.181 408.978 227.524 411.396 232.579 410.973C233.082 410.93 233.642 411.551 234.17 411.873C235.547 412.711 237.073 413.384 238.248 414.443C239.322 415.411 240.049 416.781 240.873 418.014C241.708 419.261 242.186 421.086 243.332 421.704C245.353 422.788 246.271 424.523 246.763 426.341C248.119 431.336 250.476 436.118 250.172 441.511C250.125 442.375 250.509 443.481 251.087 444.12C252.161 445.313 253.521 446.246 254.761 447.287C255.148 445.841 255.538 444.395 255.925 442.953C255.303 439.19 256.724 436.845 260.054 435.507C260.513 435.323 261.366 435.128 261.529 435.334C263.293 437.589 264.819 436.1 266.728 435.457C268.381 434.9 270.456 435.403 272.307 435.67C274.596 436.003 276.371 435.637 277.611 433.425C278.808 431.293 278.584 429.497 277.04 427.689C276.523 427.086 276.234 426.287 275.84 425.579C276.733 425.481 277.691 425.127 278.501 425.34C280.12 425.767 280.753 425.156 281.267 423.71C282.011 421.599 283.031 421.194 284.286 422.767C287.865 427.234 291.17 431.922 294.572 436.53C294.691 436.689 294.803 436.942 294.763 437.112C293.802 441.16 295.852 444.605 296.871 448.277ZM303.98 414.584C306.276 419.546 306.774 424.675 305.382 429.869C304.341 433.754 302.87 437.535 301.373 441.276C301.011 442.183 299.804 442.751 298.986 443.477C298.509 442.245 297.923 441.034 297.613 439.762C297.497 439.292 297.887 438.489 298.3 438.135C300.357 436.368 299.084 435.71 297.5 434.647C295.801 433.509 294.337 431.965 292.945 430.44C291.336 428.683 289.81 426.829 288.465 424.87C287.814 423.923 287.424 422.665 287.315 421.509C286.95 417.558 286.874 413.579 286.48 409.628C285.949 404.304 283.233 400.282 278.692 397.47C277.893 396.974 277.156 396.385 276.357 395.883C273.309 393.967 273.33 394.003 270.651 396.385C269.971 396.989 269.107 397.661 268.265 397.762C261.721 398.525 255.191 399.53 248.553 398.615C237.699 397.119 226.87 397.076 215.973 398.677C211.58 399.32 206.955 398.966 202.497 398.492C192.8 397.462 183.136 395.908 173.406 397.9C170.662 398.46 167.969 399.317 165.3 400.173C164.06 400.571 163.189 401.398 163.348 402.985C163.493 404.438 163.272 405.927 163.402 407.384C163.767 411.479 162.914 415.242 160.9 418.838C159.537 421.274 159.87 421.935 162.202 422.919C164.501 423.887 165.214 425.04 164.299 427.241C163.554 429.03 162.646 430.986 161.244 432.226C156.247 436.631 154.511 442.92 151.388 448.4C151.196 448.732 151.055 449.405 151.236 449.593C153.351 451.83 151.069 453.008 150.046 454.364C148.394 456.547 146.658 458.571 147.027 461.65C147.096 462.225 145.903 463.273 145.111 463.519C144.547 463.696 143.596 463.002 142.974 462.5C142.522 462.138 142.461 461.242 141.994 460.953C137.066 457.891 138.107 451.758 135.15 447.561C133.87 445.747 134.843 442.277 134.966 439.566C135.074 437.166 135.345 434.763 135.696 432.385C135.877 431.174 136.101 429.793 136.806 428.868C139.594 425.221 139.857 421.046 139.756 416.749C139.745 416.232 139.709 415.675 139.507 415.213C139.217 414.555 138.704 413.398 138.386 413.351C138.064 413.304 137.67 414.587 137.46 415.256C136.932 416.944 136.517 418.668 135.989 420.352C135.884 420.685 135.537 421.317 135.219 421.209C134.9 421.1 134.731 420.768 134.651 420.5C134.275 419.203 133.704 417.898 133.66 416.582C133.534 412.498 133.613 408.407 133.613 403.914C134.828 393.794 131.773 384.129 127.998 374.493C124.878 366.531 122.087 358.391 122.289 349.619C122.297 349.304 122.221 348.968 122.304 348.679C122.513 347.953 122.792 347.248 123.041 346.536C123.291 347.158 123.587 347.768 123.783 348.404C124.849 351.892 125.793 355.42 127.004 358.857C127.402 359.981 128.599 360.798 129.217 361.879C129.64 362.62 129.755 363.563 129.9 364.434C130.301 366.881 130.508 369.371 131.061 371.786C131.549 373.922 132.236 374.016 133.649 372.433C133.997 372.042 134.264 371.573 134.64 371.215C135.262 370.622 136.025 369.411 136.603 369.538C137.182 369.664 136.961 371.359 136.875 372.245C136.708 373.904 136.188 375.534 136.094 377.193C135.844 381.501 136.112 385.701 137.894 389.796C139.735 394.029 139.145 398.29 137.355 402.551C136.499 404.594 136.412 406.983 136.173 409.234C136.123 409.722 136.636 410.998 137.312 410.839C137.988 410.68 138.361 409.936 138.364 409.484C138.393 404.048 141.47 399.656 143.285 394.842C143.824 393.414 143.9 392.261 143.213 390.711C142.645 389.428 142.974 387.519 143.433 386.055C145.389 379.839 149.811 375.122 153.571 370.011C154.562 368.663 155.73 367.445 156.713 366.093C157.675 364.778 158.546 364.546 159.714 365.858C161.291 367.629 162.404 367.29 163.825 365.334C167.311 360.549 172.04 357.733 178.099 357.354C179.04 357.296 180.019 356.754 180.84 356.219C182.127 355.38 183.284 354.346 184.51 353.41C186.061 352.225 187.363 352.131 188.783 353.844C189.293 354.459 190.978 354.809 191.68 354.437C194.485 352.948 196.597 354.354 198.52 355.897C200.288 357.314 201.731 359.143 203.257 360.845C203.983 361.655 204.533 361.98 205.014 360.701C206.663 356.306 209.475 354.357 214.346 355.691C216.106 356.175 218.189 354.621 220.004 356.154C220.163 356.287 220.691 356.204 220.897 356.038C224.017 353.508 227.973 353.548 231.549 353.262C234.051 353.063 236.14 353.591 237.08 350.624C237.117 350.512 238.27 350.58 238.791 350.819C242.482 352.51 246.166 354.22 249.804 356.027C251.655 356.949 253.285 357.379 254.815 355.478C255.881 354.155 256.912 354.82 257.595 355.893C259.446 358.807 262.375 359.652 265.448 359.652C267.943 359.652 269.975 360.397 271.725 361.948C273.052 363.122 274.1 363.303 275.536 362.128C277.354 360.643 278.945 361.008 280.735 362.67C285.059 366.693 287.822 371.605 289.734 377.074C291.958 383.435 293.617 389.948 297.414 395.76C299.88 399.537 301.188 404.07 302.967 408.288C303.195 408.826 303.094 409.491 303.188 410.095C303.419 411.609 303.365 413.254 303.98 414.584ZM387.398 218.027C387.865 221.023 387.923 224.081 388.219 227.901C387.818 235.047 387.344 242.973 384.325 250.469C384.137 250.939 383.71 251.742 383.118 251.615C382.525 251.492 382.781 250.733 382.72 250.278C381.787 243.342 380.869 236.406 379.947 229.47C379.907 229.159 379.936 228.794 379.784 228.552C379.524 228.14 379.137 227.807 378.804 227.442C378.584 227.858 378.124 228.306 378.175 228.682C378.634 231.978 379.017 235.3 379.755 238.538C380.54 241.983 380.493 245.199 379.545 248.687C378.356 253.068 377.51 257.676 377.459 262.198C377.387 268.841 375.774 274.747 371.736 280.002C369.158 283.356 368.055 287.159 368.008 291.388C367.986 293.332 367.578 295.338 366.963 297.192C366.45 298.743 365.535 300.152 363.441 300.246C359.66 300.42 358.495 299.853 358.456 296.047C358.423 293 359.002 289.772 360.093 286.927C362.057 281.806 363.593 276.652 363.734 271.165C363.799 268.671 363.347 266.156 363.481 263.669C363.608 261.334 363.868 258.909 364.642 256.726C366.374 251.835 368.861 247.187 370.246 242.218C371.078 239.232 370.984 235.697 370.275 232.65C369.328 228.57 369.823 225.216 372.65 222.237C376.241 218.453 379.907 214.745 383.544 211.004C384.448 210.075 385.142 210.089 385.536 211.452C386.176 213.642 387.051 215.793 387.398 218.027ZM155.289 351.076C155.097 350.96 154.808 350.848 154.62 350.642C154.537 350.551 154.591 350.176 154.703 350.092C163.167 343.825 164.324 333.325 169.306 325.048C170.301 323.4 171.902 322.113 173.273 320.707C173.508 320.469 173.996 320.476 174.365 320.371C174.354 320.823 174.513 321.394 174.299 321.712C171.91 325.298 171.45 329.425 170.525 333.502C168.674 341.646 163.973 347.732 155.972 350.891C155.788 350.967 155.582 351 155.289 351.076ZM77.532 298.801C76.0424 294.254 74.6106 289.689 73.2005 285.117C73.0523 284.636 73.0198 284.054 73.1463 283.573C73.2656 283.118 73.3741 282.319 73.9381 282.319C74.5022 282.319 74.8999 282.861 75.03 283.248C76.0532 286.302 77.0547 289.364 77.9225 292.465C78.454 294.366 79.1663 299.853 78.642 299.972C78.1177 300.095 77.6839 299.263 77.532 298.801ZM326.523 209.58C326.234 210.422 324.531 209.815 324.531 209.815C324.531 209.815 316.829 207.299 313.066 205.568C307.082 202.814 301.098 202.561 294.792 204.169C290.765 205.196 286.596 205.669 282.503 206.443C278.616 207.176 274.737 207.95 270.864 208.756C266.688 209.623 262.516 210.523 258.351 211.448C252.063 212.847 245.696 212.865 239.311 212.634C238.686 212.612 238.049 212.609 237.438 212.486C237.218 212.442 236.943 212.081 236.921 211.842C236.907 211.687 237.279 211.373 237.514 211.336C239.886 210.942 242.258 210.541 244.641 210.234C255.314 208.85 266.005 207.57 276.664 206.077C279.321 205.705 281.986 204.924 284.477 203.909C292.334 200.714 300.411 200.8 308.521 202.196C311.449 202.702 314.223 204.108 317.064 205.109C319.798 206.074 322.538 207.021 325.254 208.036C325.742 208.221 326.808 208.741 326.523 209.58ZM175.54 212.023C175.54 212.515 174.889 212.58 174.556 212.587C173.197 212.616 171.776 212.782 170.489 212.46C160.803 210.046 151.127 207.574 141.474 205.026C135.074 203.338 128.609 202.322 121.975 202.434C118.084 202.499 115.055 204.455 112.05 206.598C111.327 207.115 110.058 208.036 109.487 207.603C108.915 207.169 110.271 205.738 110.94 205.084C114.642 201.458 119.212 200.005 126.028 199.947C129.51 200.591 134.705 201.245 139.735 202.557C147.971 204.704 156.062 207.393 164.281 209.609C167.582 210.498 171.064 210.726 174.451 211.307C174.845 211.373 175.54 211.532 175.54 212.023ZM270.022 194.623C270.774 194.367 271.512 194.07 272.275 193.864C276.895 192.621 281.473 191.168 286.155 190.239C290.645 189.346 295.248 189.003 299.583 188.443C303.824 188.934 307.772 189.325 311.695 189.921C312.357 190.022 312.791 191.168 313.485 191.558C314.92 192.361 316.482 192.932 317.939 193.698C318.399 193.94 319.411 194.37 319.046 194.931C318.681 195.491 317.798 195.184 317.281 195.003C316.316 194.667 315.416 194.125 314.512 193.622C308.109 190.069 301.38 189.26 294.236 190.865C289.872 191.844 285.41 192.372 281.01 193.214C278.164 193.76 275.369 194.584 272.52 195.119C271.747 195.263 270.857 194.804 270.022 194.623Z" fill="#131211" fill-opacity="0.95" style="mix-blend-mode:darken"/>
</svg>
