<svg width="534" height="1194" viewBox="0 0 534 1194" fill="none" xmlns="http://www.w3.org/2000/svg">
<path d="M396.401 909.774L419.719 864.965C456.898 791.896 493.003 720.941 525.776 656.576C506.04 681.183 487.093 704.858 469.112 727.281L522.839 661.053L418.895 863.747C418.179 865.144 417.462 866.541 416.782 867.938C399.912 901.285 383.793 933.091 369.287 961.71C359.33 981.553 350.483 999.175 343.319 1013.43C336.549 1026.97 333.147 1033.74 330.281 1039.47L345.432 1009.67L396.401 909.774Z" fill="#1C1711"/>
<path d="M308.9 917.474L298.978 929.975C294.322 936.207 289.665 942.475 285.296 948.314C277.523 958.737 270.037 968.766 263.375 977.649C270.324 969.088 276.484 961.495 281.678 955.083C278.096 959.417 274.049 964.288 269.679 969.625C270.897 968.013 272.437 966.008 273.977 964.002C279.35 956.874 285.26 949.066 291.958 940.147C297.008 933.413 302.596 925.927 308.936 917.474H308.9Z" fill="#1C1711"/>
<path d="M390.315 1147.76L391.783 1144.07L401.275 1116.35L395.222 1134.72L392.32 1143.53L467.216 933.172C466.106 936.109 463.563 943.022 459.157 955.236C452.208 974.578 437.881 1014.34 421.333 1060.36C414.492 1079.38 406.97 1100.23 399.699 1120.54C407.722 1095.14 415.531 1070.5 422.3 1049.12C434.514 1010.54 443.039 983.568 444.686 978.446C452.853 951.69 456.435 938.76 455.718 939.261L390.315 1147.72C390.171 1148.22 390.136 1148.4 390.315 1147.79V1147.76Z" fill="#1C1711"/>
<path d="M486.196 643.292L499.736 630.398L369.752 710.845L494.291 634.589L481.54 646.624C484.262 644.224 486.805 641.967 488.417 640.534C492.214 637.203 493.575 636.165 486.196 643.328V643.292Z" fill="#1C1711"/>
<path d="M258.611 588.887L60.4652 597.089L22.498 598.665C30.4138 598.379 39.6549 598.056 56.0238 597.448C68.4168 597.018 87.9018 596.337 110.324 595.549L161.58 593.507C183.142 592.576 203.702 591.717 222.542 590.893C263.625 588.994 288.913 587.812 258.611 588.923V588.887Z" fill="#1C1711"/>
<path d="M318.312 587.2C318.312 587.2 304.271 587.558 268.489 588.884C255.845 589.421 239.62 590.137 222.499 590.854C213.329 591.283 203.622 591.713 193.558 592.179L318.312 587.164V587.2Z" fill="#1C1711"/>
<path d="M700.32 577.244L1052.23 579.644C1025.51 579.321 999.436 578.999 979.307 578.712C940.408 578.175 925.794 577.781 980.811 577.924L869.667 577.28C880.771 577.172 917.234 577.351 964.406 577.674C1000.51 577.924 1044.82 578.211 1086.15 578.462C1104.35 578.569 1121.72 578.677 1136.37 578.748C1115.31 577.924 1098.62 577.244 1089.41 576.886L1079.17 576.384L795.273 563.096C806.341 563.812 748.71 561.52 805.016 564.134C809.027 564.314 813.039 564.493 817.051 564.672C826.256 565.066 837.503 565.567 851.257 566.212C873.966 567.215 895.206 568.182 911.789 568.898C914.225 569.006 916.625 569.113 919.168 569.221C916.84 569.113 914.368 569.006 911.789 568.898C887.469 567.824 867.59 566.928 851.257 566.212C840.082 565.71 828.548 565.209 817.051 564.672C812.573 564.457 808.562 564.278 805.016 564.134C745.128 561.484 689.753 559.048 683.234 558.762C685.992 558.296 686.172 558.26 682.912 558.762C684.56 558.833 706.767 559.908 756.196 562.272C731.41 561.126 706.624 559.98 681.658 558.833C813.361 537.343 945.637 515.744 1078.31 494.074C1095.82 491.209 1113.3 488.343 1130.89 485.478C1114.05 487.591 1097.26 489.669 1080.39 491.782C948.682 508.294 816.764 524.878 684.882 541.426C810.389 498.014 935.859 454.639 1060.97 411.335C1077.16 405.747 1093.35 400.124 1109.54 394.536C1092.89 399.586 1076.23 404.672 1059.57 409.723C932.098 448.406 805.052 486.982 678.685 525.343C795.739 461.086 912.183 397.151 1027.8 333.681C1029.77 332.571 1031.56 331.604 1032.64 330.995C1042.38 325.622 1043.21 325.085 1040.23 326.661C1038.51 327.592 1031.71 331.245 1024.94 334.863C1023.51 335.651 1022.07 336.403 1020.75 337.12C1022.11 336.403 1023.43 335.687 1024.54 335.078C1046.39 323.151 1061.97 314.626 1073.9 308.107C1047.68 321.467 1035.97 327.449 1017.38 336.905C1012.47 339.412 1006.85 342.242 999.759 345.859L926.546 382.107L826.936 431.608C746.238 472.297 809.421 440.92 803.619 444.001C758.094 466.817 712.677 489.597 667.582 512.198C773.066 428.277 877.082 345.537 977.73 265.448C990.589 255.239 1003.34 245.103 1015.95 235.074C1003.41 244.279 990.983 253.413 978.698 262.439C865.906 345.465 758.488 424.551 658.842 497.943C662.388 493.967 665.863 490.063 669.337 486.159C692.081 460.835 702.11 449.696 706.23 445.147C709.561 441.529 708.164 443.177 707.519 444.036C706.194 445.72 707.734 444.18 755.444 390.775C702.684 449.409 738.323 409.257 793.841 346.97C838.864 296.43 899.898 227.839 921.604 203.482C926.94 197.429 925.902 198.468 917.592 207.673C917.592 207.673 917.27 208.031 916.911 208.425C917.091 208.21 917.27 208.031 917.556 207.709C927.693 196.498 940.73 182.027 955.81 165.336C945.996 175.473 935.322 186.469 924.433 197.716C881.917 241.736 837.753 287.512 807.237 319.103C769.699 357.93 748.889 379.277 763.431 363.553C733.666 394.464 712.641 416.349 698.385 431.178C683.342 446.938 675.426 455.248 672.561 458.256C669.122 461.946 671.45 459.653 677.79 453.134C682.84 447.941 690.828 439.738 699.675 430.641C682.303 448.693 665.254 466.351 649.816 482.398C727.971 357.213 794.27 251.013 860.104 145.565C863.578 139.941 867.017 134.389 870.491 128.802C874.037 123.142 879.84 113.937 887.935 101.007C880.019 112.648 870.061 127.297 858.421 144.418C799.822 230.668 716.545 353.238 633.805 475.055C691.687 334.003 749.247 193.883 788.002 99.4668C799.5 71.6719 809.027 48.6767 815.976 31.8781C815.475 32.9526 815.009 33.9913 814.543 34.9584C815.081 33.8122 815.618 32.7019 815.761 32.3437C803.583 61.4996 800.467 68.9498 799.679 70.8123C799.321 71.5645 802.723 63.1831 807.917 50.4676C801.649 64.2934 792.981 83.4203 783.847 103.586C780.301 111.43 776.684 119.417 773.138 127.333L781.125 110.32L789.292 93.0911L778.152 117.591L716.939 252.016C694.804 300.621 688.822 313.766 688.679 314.053C670.268 354.491 692.762 304.346 645.912 407.036C634.128 432.933 623.776 455.713 617.902 468.572C647.237 335.508 651.213 317.42 670.806 228.627L664.788 255.24L691.043 137.076C710.42 50.0736 623.06 444.717 686.494 161.074C686.816 159.605 694.123 125.686 702.29 88.005C705.155 75.0388 708.164 61.428 710.743 49.608C709.346 54.73 708.092 59.3863 707.018 63.3621C708.952 55.9836 710.671 49.5006 712.032 44.2711C701.824 90.3331 705.012 77.3312 713.286 40.9042L718.085 19.3059L703.687 74.0001L690.434 124.396C694.231 110.857 696.917 101.508 698.493 96.3864C666.221 219.063 633.626 342.85 600.674 468.035C607.157 337.263 613.747 205.345 620.338 72.0659C621.126 56.0194 621.95 39.9371 622.773 23.7116C621.412 39.1133 620.051 54.5867 618.69 70.1676C607.264 200.259 595.731 331.46 584.126 463.593C568.366 333.502 552.534 202.479 536.595 70.7407C536.559 70.0601 536.345 68.0901 535.951 64.3651C534.876 55.3031 531.975 30.8752 528.321 0C529.79 17.9807 531.473 38.3253 533.157 58.9565C536.989 105.842 540.929 153.839 543.616 186.97C546.911 227.695 548.63 250.153 547.126 234.608L545.192 210.216C532.225 54.336 548.272 255.49 558.838 382.358C553.501 315.987 558.623 375.481 561.775 411.191C562.671 421.399 563.423 429.924 563.817 434.079C564.247 438.664 564.283 438.771 563.674 430.891C562.635 417.925 559.519 379.886 552.821 297.612L566.79 463.593L535.557 359.577C527.139 332.607 514.281 290.162 498.162 236.542C486.665 198.074 472.732 151.618 457.366 100.255C453.891 88.5422 450.274 76.3641 446.549 63.8278C449.307 74.609 452.136 85.6768 455.002 96.9237C486.486 219.35 520.262 350.766 551.531 472.261C531.473 431.823 511.881 392.423 493.04 354.456C505.039 378.382 508.191 384.614 509.66 387.551C466.857 301.266 420.581 208.031 376.811 119.847C369.719 105.484 362.699 91.3002 355.893 77.5103C362.054 91.2644 368.035 104.66 373.73 117.447C426.634 235.468 468.219 328.237 481.579 357.966L493.434 385.474C508.406 418.641 521.91 448.55 533.873 475.019C440.71 347.507 400.666 292.705 302.13 157.814C293.068 145.35 282.896 131.345 271.47 115.657C277.487 124.647 283.899 134.21 290.74 144.383C289.594 142.735 284.078 134.676 282.251 131.99C279.851 128.515 279.636 128.3 288.734 141.911C290.883 145.063 293.032 148.251 295.253 151.51C311.98 176.189 329.638 202.265 354.962 239.587C387.914 288.586 430.86 352.378 492.503 443.929L487.023 436.049L522.017 488.093L280.747 253.771C280.926 253.843 279.278 252.087 275.947 248.792C273.619 246.464 270.145 243.061 265.703 238.62C257.358 230.489 245.323 218.741 230.673 204.449C218.817 192.952 205.135 179.699 190.235 165.193C203.308 178.875 217.277 193.453 231.748 208.569C277.881 256.815 327.489 308.716 371.832 355.1C427.422 413.555 476.421 465.026 507.798 498.05C491.93 487.018 479.143 478.171 469.723 471.616C425.703 441.529 281.32 342.886 184.396 276.695C174.045 269.638 164.983 263.442 157.497 258.356C159.682 259.932 159.216 259.645 155.67 257.281C158.858 259.609 164.66 263.907 172.361 269.567C172.29 269.567 171.824 269.209 170.929 268.564C170.391 268.17 169.03 267.167 166.917 265.627C163.729 263.299 158.321 259.323 151.121 253.986C152.876 255.168 155.097 256.672 157.497 258.32C156.995 257.962 153.485 255.526 143.42 248.47C143.313 248.434 144.316 249.15 145.534 250.082C157.569 258.929 171.43 269.137 186.617 280.312C279.636 349.584 404.677 442.747 498.664 512.735C475.131 501.918 452.996 491.71 432.544 482.29C339.775 439.774 379.748 458.435 420.079 477.24C375.844 456.824 323.442 432.646 268.533 407.323C230.279 389.772 190.235 371.433 152.303 354.062C143.886 350.229 135.719 346.54 128.019 343.065C139.373 348.76 149.903 354.062 159.18 358.682C173.328 365.846 184.217 371.326 189.841 374.191C321.723 441.135 238.768 399.586 274.801 418.212C322.045 442.031 344.61 453.421 355.392 458.829C360.8 461.516 363.236 462.662 364.31 463.163C365.385 463.665 365.134 463.45 365.134 463.378C365.134 463.307 365.349 463.378 367.462 464.381C369.54 465.42 373.48 467.39 380.858 471.079C398.66 480.141 433.153 497.656 499.846 531.504C486.808 527.994 470.224 523.553 452.387 518.753C465.998 522.371 482.474 526.776 498.95 531.182C477.46 520.329 455.969 509.44 443.003 502.886C434.585 498.659 431.72 497.226 439.958 501.417C457.366 510.264 476.421 519.971 496.766 530.358C435.445 513.667 360.263 493.215 287.337 473.371C254.17 464.345 221.504 455.498 191.202 447.26C164.875 440.204 140.555 433.685 119.888 428.133L180.564 444.645C153.808 437.482 125.296 429.888 96.3554 422.152C74.2199 416.17 51.8336 410.153 29.8413 404.243C49.8636 410.475 69.5277 416.636 88.2606 422.474C134.609 436.909 176.588 449.946 208.788 459.976C246.218 471.545 272.33 479.532 280.998 481.968L262.73 475.879C393.61 516.461 448.089 533.331 482.689 544.041C421.154 538.345 418.217 538.095 185.578 516.604L190.02 516.926C144.173 512.7 105.596 509.118 72.4648 506.038C45.1714 503.494 21.4957 501.31 0.112305 499.34C26.0446 502.706 52.729 506.109 77.8375 509.118L45.4938 504.784C63.3312 507.112 78.912 509.118 82.852 509.655C214.089 526.812 247.149 531.11 400.379 551.132C413.775 552.852 447.874 557.293 482.761 561.806C447.659 564.528 411.805 567.286 395.759 568.54C392.929 568.934 345.148 572.767 278.634 578.032C223.545 582.33 152.912 587.882 88.4396 592.932C69.671 594.401 51.6545 595.798 35.4289 597.051C58.3525 596.156 77.5151 595.404 86.3264 595.045C92.3796 594.795 94.5645 594.723 96.4629 594.651C92.2005 594.831 88.1889 595.01 85.8966 595.081C64.0834 596.013 50.58 596.586 43.0582 596.908C34.2111 597.302 30.3069 597.517 29.9846 597.553C29.6264 597.624 32.8858 597.553 37.9362 597.374C43.5954 597.195 50.2576 596.98 56.0243 596.8C62.2566 596.514 68.3457 596.227 74.1124 595.977C106.277 594.58 134.824 593.362 166.881 591.965C207.642 590.389 252.916 588.634 311.765 586.378C318.857 585.804 327.06 585.195 349.374 584.049C360.549 583.512 375.235 582.831 395.078 581.9C420.939 580.79 453.533 579.429 494.939 577.638C455.646 587.631 404.713 600.561 341.029 616.715C378.852 607.044 438.167 591.965 413.811 597.982C388.917 604.286 332.182 618.685 312.983 623.557C288.591 629.574 367.104 609.588 339.668 616.286C291.277 628.643 246.791 639.997 201.947 651.459C174.081 658.515 145.999 665.607 115.088 673.415C103.34 676.388 90.9827 679.504 77.6584 682.836C89.0844 680.4 101.227 677.821 114.3 675.027C123.649 673.021 133.463 670.908 143.814 668.687C134.967 670.657 130.239 671.696 128.305 672.126C125.762 672.699 125.834 672.735 127.696 672.412C132.675 671.409 143.886 669.189 150.477 667.864C150.656 667.792 151.587 667.577 152.733 667.326C153.879 667.076 155.276 666.753 156.888 666.395C160.183 665.679 164.41 664.747 169.496 663.637C179.632 661.452 192.957 658.622 208.144 655.363C238.553 648.952 276.377 640.928 310.727 633.693C379.461 619.187 434.442 607.618 388.488 616.859C421.942 609.767 456.47 602.46 492.038 594.902C378.279 645.298 252.415 701.103 126.478 756.907C110.683 763.928 94.8869 770.912 79.1628 777.897C95.1018 771.521 110.969 765.217 126.693 758.949C260.581 705.544 388.738 654.432 496.121 611.593C378.781 689.533 286.084 751.141 236.87 783.842C220.214 794.946 189.518 815.362 156.207 837.534C141.379 847.455 125.905 857.843 111.506 867.513C122.359 860.851 132.639 854.511 141.916 848.852L123.72 860.421C138.8 851.109 152.196 842.835 157.64 839.468C303.67 749.672 287.731 759.45 492.252 633.693C466.499 649.596 448.698 660.592 437.952 667.255C429.069 672.771 426.025 674.741 427.995 673.594C429.965 672.412 436.949 668.186 448.232 661.416C461.485 653.357 479.752 642.254 502.102 628.643C494.33 635.95 481.973 647.555 468.648 660.091L331.071 791.185L303.849 816.15C274.479 843.981 242.959 873.817 210.543 904.513C195.321 918.876 179.812 933.49 164.302 948.14L164.983 947.567C164.589 947.889 164.231 948.212 164.231 948.212C183.608 929.873 171.179 941.549 166.201 946.134C166.559 945.847 166.165 946.313 163.765 948.641C174.296 939.329 193.601 922.243 217.098 901.433C294.107 833.737 410.587 731.333 434.872 709.986C445.152 701.103 456.542 691.217 468.613 680.758C484.552 666.825 501.386 652.104 518.615 637.06C493.434 670.657 467.18 705.723 443.54 737.243C422.98 764.68 404.642 789.036 391.747 805.799C375.056 828.185 353.493 857.055 329.997 888.539C354.783 856.052 364.095 844.232 317.998 905.445C314.702 909.815 312.159 913.217 309.007 917.444L325.34 896.311C326.701 894.628 325.591 896.168 322.547 900.251C319.896 903.797 315.526 909.6 309.903 917.086C306.285 921.778 301.056 928.583 295.253 936.105C288.412 945.06 281.105 954.659 274.013 963.936C272.724 965.655 271.434 967.338 270.36 968.771C275.84 962.145 280.854 956.056 285.726 950.146C286.657 948.999 287.588 947.853 288.161 947.137C290.203 944.63 291.779 942.66 292.997 941.191C291.636 942.91 290.024 944.88 288.233 947.101C294.537 939.365 300.984 931.484 308.076 922.781C323.514 903.725 340.384 882.879 359.976 858.666C414.491 791.543 472.588 719.979 532.727 645.943C476.493 755.904 417.429 871.418 359.153 985.319C354.138 995.062 349.159 1004.73 344.216 1014.4C348.909 1006.13 353.565 997.927 358.221 989.76C361.087 984.746 363.916 979.767 366.746 974.824C363.916 979.839 360.693 985.498 357.577 991.014C349.911 1004.77 342.533 1017.95 339.954 1022.57C345.47 1012.76 350.95 1002.98 356.43 993.271C424.628 872.134 490.999 754.185 546.409 655.757C526.674 718.797 508.908 775.461 493.721 824.03L497.518 813.285C474.129 888.18 453.641 953.727 434.335 1015.48C431.648 1024.11 428.998 1032.56 426.383 1040.94C429.535 1032.1 432.651 1023.32 435.767 1014.51L437.916 1008.49L441.033 998.393C472.051 911.176 519.224 778.577 565.429 648.737C552.319 745.911 539.353 841.796 528.321 923.425C523.987 955.196 520.011 984.209 516.609 1009.17C515.319 1017.77 514.245 1024.93 513.457 1030.31C513.457 1030.41 513.457 1030.52 513.421 1030.77C513.242 1032.81 512.454 1038.97 511.093 1048.97C512.167 1042.91 513.385 1035.97 514.675 1028.69C524.883 970.132 536.273 904.836 543.866 861.389L549.561 830.657C561.095 764.465 570.981 707.657 579.469 658.981C582.621 746.198 585.093 814.001 587.529 880.444C587.027 865.436 586.526 850.965 586.06 836.208C587.564 877.184 589.104 918.984 590.645 959.852C591.469 984.961 592.292 1009.5 593.08 1032.38C593.152 1034.82 593.259 1037.29 593.367 1040.3C593.689 1050.33 594.047 1061.25 594.477 1073.5C594.549 1065.19 594.62 1056.06 594.692 1046.07C594.692 1045.74 594.692 1045.39 594.692 1045.03C594.692 1045.6 594.692 1046.21 594.692 1047C594.835 1057.24 594.764 1071.96 594.62 1083.78C594.262 1071.39 593.797 1057.1 593.331 1041.55C593.259 1038.62 593.152 1035.54 593.045 1032.42C590.967 974.932 589.248 927.544 587.529 880.444C589.499 938.075 591.397 994.739 593.295 1050.36C593.761 1063.94 594.227 1077.44 594.692 1090.84C594.692 1077.37 594.764 1063.98 594.764 1050.72C595.015 915.581 595.229 784.881 595.48 657.906C602.751 692.829 609.986 727.465 617.15 761.886L617.58 764.501L670.555 1017.56C669.767 1014.08 669.337 1012.18 669.194 1011.5C669.015 1010.79 669.194 1011.47 669.552 1013.15C670.197 1016.12 671.629 1022.75 673.349 1030.63C674.853 1037.79 676.644 1046.1 678.148 1053.37L677.933 1051.98C676.644 1044.56 675.175 1035.86 673.528 1026.44C663.14 964.616 650.712 890.473 640.969 832.304L610.81 653.859L626.319 693.294C619.514 676.102 613.497 660.879 610.918 654.253C617.293 691.539 621.233 714.642 623.347 727.142C624.887 735.954 625.138 737.351 624.6 733.876C623.132 724.993 617.544 691.217 612.279 659.16C618.977 676.352 625.531 693.079 630.618 706.153C633.949 714.857 636.349 721.125 636.993 722.808L680.369 832.018C697.562 876.146 652.323 761.707 684.058 842.477C698.529 879.083 730.228 959.172 757.736 1028.77C763.18 1042.41 768.302 1055.31 772.565 1065.95C768.302 1054.02 764.72 1044.02 762.142 1036.75C762.357 1037.58 763.682 1041.55 765.473 1046.85C764.326 1043.88 762.715 1039.76 761.067 1035.46C760.172 1033.24 760.136 1033.21 760.566 1034.17C760.064 1032.89 759.706 1031.95 759.205 1030.7C755.085 1020.1 752.184 1012.68 751.504 1010.89C749.856 1006.63 749.14 1004.8 748.638 1003.59C748.567 1003.37 748.459 1003.16 748.387 1002.98C741.904 986.537 735.206 969.452 728.007 951.113C737.105 974.215 742.621 988.113 746.489 997.999C746.991 999.252 748.567 1003.19 749.211 1004.88C749.892 1006.67 749.784 1006.34 746.489 997.999C746.203 997.282 746.811 998.93 748.387 1002.98C748.459 1003.16 748.531 1003.37 748.638 1003.59C749.677 1006.27 750.716 1008.89 751.468 1010.89C754.405 1018.49 756.912 1024.9 759.169 1030.74C759.742 1032.2 759.957 1032.78 760.637 1034.46C761.174 1035.75 761.748 1037.08 761.604 1036.57C760.96 1034.78 760.637 1033.89 760.386 1033.21L760.924 1034.78L755.157 1020.03C757.593 1026.15 759.025 1029.77 759.742 1031.52C758.918 1029.12 759.384 1030.34 760.422 1033.21C755.945 1020.42 753.366 1013.04 752.112 1009.46C750.286 1004.27 749.856 1003.23 749.749 1003.01C749.641 1002.83 749.749 1003.3 749.283 1002.15C747.958 998.178 746.704 994.453 745.522 990.871C741.761 980.054 738.215 969.81 734.812 959.96C723.601 927.831 713.322 898.424 703.472 870.164C683.843 813.643 665.791 761.743 644.945 701.712C655.225 731.476 657.553 738.389 654.652 730.366C650.927 719.764 640.289 689.569 626.427 650.134C657.875 701.962 702.039 774.816 733.451 826.609C761.783 873.28 778.654 900.967 761.21 871.704C792.05 922.924 802.58 940.439 810.353 953.369C811.857 955.841 813.075 957.882 814.866 960.891C817.158 964.795 820.203 969.953 825.074 978.155C756.697 865.722 688.607 753.791 629.221 656.079C640.682 688.531 651.607 719.549 662.066 749.206L630.94 659.769L663.391 713.567C654.902 699.67 644.408 682.549 632.48 663.028C647.918 707.156 667.331 762.638 686.172 816.544L685.598 814.789C685.849 815.506 687.354 819.84 689.753 826.717C712.247 891.082 733.523 951.901 745.737 986.752C736.711 961.034 722.061 919.306 709.489 883.488C701.358 860.063 694.087 839.181 689.753 826.717C688.571 823.314 687.389 819.911 686.172 816.508L697.275 849.783C721.022 917.48 742.692 979.266 762.75 1036.5C770.093 1057.35 777.185 1077.41 784.026 1096.82C776.934 1078.95 770.057 1061.68 763.395 1044.92C756.232 1026.9 749.319 1009.5 742.549 992.483C751.79 1016.09 754.047 1021.89 752.041 1016.91C749.784 1011.25 743.301 994.99 736.496 977.833C720.091 936.499 702.039 890.974 719.375 935.568L756.697 1030.13C761.891 1043.45 762.715 1045.67 760.494 1040.23L805.195 1153.7L635.167 668.723L886.574 1083.39C886.574 1083.39 886.645 1083.5 886.681 1083.57C886.753 1083.68 886.86 1083.82 886.968 1084C888.615 1086.65 891.695 1091.56 895.671 1097.93C883.708 1076.55 866.336 1045.56 850.111 1016.59C837.431 993.987 825.575 972.818 818.77 960.712C812.43 949.465 811.427 947.853 817.266 958.563C796.778 921.312 790.33 909.635 778.439 888.073C765.831 865.364 747.456 832.268 702.612 751.499C645.196 648.773 771.526 876.755 795.058 919.557C749.784 838.346 726.383 796.558 724.855 794.194C726.861 797.883 728.58 800.999 730.586 804.617L723.458 791.794C721.846 788.929 718.587 783.198 709.883 767.76C700.964 751.785 686.458 725.817 662.388 682.764C653.541 666.753 645.196 651.674 638.498 639.567C690.04 699.169 722.097 736.24 764.756 785.598L892.161 932.058L896.101 936.571C895.492 935.854 894.991 935.281 894.239 934.422C893.128 933.132 892.018 931.843 891.158 930.804C883.708 922.1 876.795 914.041 870.599 906.842C871.602 907.988 874.646 911.498 878.264 915.653C882.311 920.417 887.039 925.933 890.764 930.302C892.054 931.807 893.2 933.168 894.239 934.386C900.793 942.015 907.599 949.895 915.013 958.491C911.109 953.584 906.739 948.14 902.333 942.588C899.898 939.579 897.534 936.606 895.242 933.813C867.984 900.036 843.592 869.734 821.026 841.76C766.834 774.315 788.826 801.357 795.918 809.99C763.574 769.766 733.451 732.3 705.012 696.948C688.643 676.675 672.382 656.509 651.679 630.864C656.98 635.198 665.146 641.86 673.707 648.844C668.227 644.331 664.609 641.322 665.648 642.146C666.722 643.042 672.417 647.698 685.419 658.408C681.157 654.933 677.611 652.032 673.707 648.844C680.047 654.074 688.858 661.345 697.669 668.58C700.714 671.087 704.904 674.49 708.164 677.14C709.238 678.107 704.081 673.881 697.669 668.58C684.381 657.727 670.34 646.229 652.503 631.687C667.439 650.241 685.777 673.057 705.012 696.912C726.682 723.847 749.426 752.072 787.501 799.352C799.751 814.538 799.142 813.858 795.918 809.954C828.477 850.536 862.575 892.98 895.85 934.493C898.035 937.251 900.184 939.902 902.333 942.588C907.241 948.677 912.255 954.909 918.201 962.288C912.219 955.411 905.199 947.388 897.785 938.863C914.118 957.847 919.634 964.258 919.849 964.545C921.747 966.801 918.738 963.47 915.192 959.422C911.682 955.447 907.706 950.898 909.175 952.653C910.249 953.907 917.234 961.93 935.788 983.313C932.6 979.373 928.552 974.323 924.003 968.664C929.842 975.863 934.426 981.558 937.972 985.964C932.85 980.197 930.021 977.009 926.94 973.571C922.821 968.878 918.344 963.792 910.142 954.444C901.187 944.164 888.257 929.3 868.557 906.627C841.729 875.429 849.502 884.133 867.877 905.087C872.784 910.638 879.123 917.838 885.284 924.822C890.227 930.41 894.203 934.851 895.85 936.642C896.137 936.929 896.28 937.108 896.459 937.323C896.029 936.821 895.6 936.32 895.421 936.105C830.662 861.496 794.091 819.338 764.792 785.598L727.147 742.293L740.042 757.086L640.503 642.361L723.494 791.794C724.103 792.833 724.425 793.37 724.891 794.194C710.707 768.226 697.418 743.905 686.458 723.883C675.068 702.786 666.078 686.167 661.063 676.926C655.44 666.431 655.511 666.144 660.669 675.099C665.361 683.301 673.169 697.091 686.207 720.409L652.073 658.945L732.699 751.821C704.654 719.37 740.006 759.916 787.787 814.932L791.19 819.159C786.641 813.93 781.841 808.414 777.006 802.862L989.013 1047.07L667.116 646.444L1064.77 972.031L679.796 631.544L1126.73 885.243L689.753 614.745L1173.15 789.251L696.738 596.478L1202.67 686.776L700.534 577.28L700.32 577.244ZM1038.12 577.351L1003.02 577.244L921.639 576.384L1038.12 577.387V577.351ZM776.039 575.668L805.732 576.456C784.062 576.313 728.831 575.883 700.32 575.668H776.039ZM704.152 890.974C694.947 867.227 700.57 883.023 684.201 841.151C593.725 612.131 722.992 937.538 704.152 890.974ZM624.135 645.764L632.982 670.908C636.241 680.113 636.814 681.689 636.241 679.97C635.31 677.248 631.728 666.717 630.976 664.461C643.297 699.706 652.001 724.599 676.393 794.409L633.017 670.944C631.119 665.5 628.254 657.44 624.17 645.764C624.743 646.695 625.854 648.522 627 650.456L624.17 645.764H624.135ZM745.88 987.79C748.925 996.244 751.325 1002.87 752.757 1006.81C751.969 1004.84 749.211 997.103 745.88 987.79ZM750.25 998.643C753.903 1008.96 757.199 1018.31 759.491 1024.83C761.891 1031.6 763.395 1035.82 763.288 1035.43L772.672 1062.29L799.321 1138.55L789.005 1112.29C787.931 1109.43 791.297 1117.95 797.566 1133.86C791.226 1115.73 781.698 1088.58 771.204 1058.6C764.434 1039.23 757.234 1018.67 750.178 998.607C745.379 984.889 740.615 971.386 736.102 958.527C733.953 952.438 731.839 946.349 729.726 940.367C728.652 937.287 727.577 934.278 726.538 931.341C723.924 923.891 721.416 916.727 719.052 910.065C717.656 906.125 716.366 902.4 715.112 898.854C713.357 893.804 711.746 889.219 710.384 885.422C711.817 889.434 713.393 893.983 715.112 898.854C716.33 902.364 717.656 906.089 719.052 910.065C721.381 916.692 723.888 923.819 726.538 931.341C727.577 934.314 728.652 937.323 729.726 940.367C731.804 946.242 733.917 952.295 736.102 958.527C741.045 972.604 745.952 986.501 750.178 998.607L750.25 998.643ZM696.272 769.659L724.139 814.932L741.403 844.232L696.272 769.659ZM702.576 777.932C754.906 863.896 807.451 950.253 792.515 926.613C795.452 931.449 798.246 936.069 801.219 940.976C751.969 859.92 707.841 787.317 702.576 777.968V777.932ZM842.947 1009.71C842.267 1008.6 841.586 1007.49 840.906 1006.31C831.235 990.369 821.17 973.786 811.284 957.488C823.605 977.726 835.067 996.53 839.688 1004.09C842.123 1008.14 843.341 1010.18 842.983 1009.68L842.947 1009.71ZM836.822 996.566L839.903 1002.26L831.629 988.435L834.924 993.629L827.581 980.627L836.822 996.53V996.566ZM742.764 827.361L791.906 915.474L727.792 801.25L742.764 827.326V827.361ZM736.711 737.888C792.479 807.411 835.604 861.102 876.043 911.534C878.479 914.507 880.843 917.336 882.884 919.808C887.182 925.073 891.015 929.765 894.776 934.386C890.513 929.192 886.251 923.998 881.989 918.805C880.019 916.405 878.013 913.969 876.043 911.534C875.219 910.531 874.36 909.528 873.5 908.489L872.354 907.128C869.453 903.546 866.551 899.965 863.65 896.347C851.937 881.841 839.867 866.905 827.402 851.431C802.473 820.484 775.896 787.496 747.205 751.893C784.241 797.74 701.609 694.584 736.711 737.888ZM660.991 640.463C668.836 650.205 686.422 672.09 727.828 723.561L724.318 718.868L796.384 809.094L659.308 638.779L678.327 654.324C670.018 647.626 674.065 651.101 660.991 640.463ZM794.378 747.236L898.501 831.874L840.01 784.38L794.378 747.201V747.236ZM879.267 811.028C889.833 820.377 909.031 837.319 941.483 865.973L864.832 798.492C871.422 804.581 907.205 836.495 901.474 831.624C897.068 827.469 832.309 770.088 798.21 739.786L864.832 798.492C862.074 795.949 864.76 798.241 879.267 811.028ZM951.583 876.683C951.082 876.253 950.545 875.823 949.971 875.322C944.778 871.059 939.62 866.833 935.107 863.144L935.716 863.645C895.062 830.334 873.679 812.819 864.724 805.477C875.219 814.073 899.755 834.167 935.107 863.144C928.194 857.305 929.412 858.165 911.897 843.623C919.884 850.213 926.403 855.586 931.74 859.992C935 862.714 937.578 864.863 939.62 866.582C945.351 871.418 948.109 873.746 950.007 875.322L951.153 876.253L953.804 878.402C953.518 878.223 952.801 877.65 951.655 876.683H951.583ZM989.515 908.346L965.015 888.431L968.239 890.867L989.479 908.31L994.852 912.644L957.78 880.086L942.091 866.296C948.897 872.241 951.225 874.211 951.476 874.355C951.798 874.57 949.971 872.85 950.043 872.85L962.973 884.312L996.428 913.969L989.479 908.274L989.515 908.346ZM875.828 805.262C900.543 827.111 895.528 822.741 882.275 811.1C884.389 813.142 842.338 776.034 884.066 813.106C930.2 853.759 942.02 864.182 956.24 876.719C968.239 887.5 978.053 896.311 983.175 900.932C991.628 908.597 998.004 914.328 1003.38 919.199C1006.24 921.849 1007.85 923.39 1008.71 924.249C1011.44 926.721 1011.65 926.936 1009.32 924.894C1009.18 924.751 1009 924.536 1008.71 924.249C1004.41 920.381 993.884 910.925 977.122 895.953C950.043 871.883 916.016 841.653 885.857 814.789L871.387 802.074C780.409 721.376 853.155 785.454 882.275 811.064C881.81 810.634 882.132 810.849 875.828 805.226V805.262ZM766.476 709.663C884.245 814.252 762.177 706.583 703.543 655.041C791.763 732.623 724.354 672.771 766.476 709.663ZM1043.56 835.993L1011.04 817.762L953.84 785.562L917.234 764.787L1010.22 817.225L1043.28 835.814L1034.25 830.263L1043.56 835.993ZM1020.46 822.311C1016.56 820.198 1013.76 818.658 1012.12 817.762C1009.97 816.58 1008.86 815.935 1007.71 815.183C1007.35 815.183 1004.34 813.536 1001.84 812.103C997.287 809.452 995.066 808.163 990.625 805.548L970.782 794.409C976.119 797.382 980.059 799.567 983.103 801.25C986.434 803.184 988.762 804.509 990.625 805.548L997.681 809.524L1019.64 821.81L1014.16 818.443C1016.41 819.84 1018.56 821.129 1020.5 822.311H1020.46ZM996.248 808.306C993.132 806.479 990.267 804.832 987.939 803.471C977.444 797.346 976.978 796.988 980.453 798.85C981.241 799.28 982.494 799.961 984.106 800.82C984.106 800.82 984.894 801.322 986.685 802.36C988.261 803.292 991.234 804.975 994.422 806.838C993.132 806.014 991.126 804.689 991.27 804.724L1005.31 813.285L996.284 808.306H996.248ZM913.33 755.546C929.842 765.719 956.275 782.052 993.383 804.975C981.348 797.597 974.471 793.406 971.391 791.507C970.03 790.684 969.063 790.111 968.49 789.752C967.809 789.323 967.558 789.179 967.701 789.323C967.952 789.502 969.421 790.397 971.785 791.901C976.083 794.588 987.079 801.501 996.678 807.518C929.806 766.005 891.445 742.186 886.502 739.106C882.92 736.813 891.588 742.114 913.365 755.546H913.33ZM804.299 688.853C884.281 738.282 905.665 751.499 907.384 752.537C907.491 752.609 907.491 752.609 907.384 752.537C905.7 751.499 883.672 737.924 895.886 745.66C858.635 722.594 836.751 709.054 820.847 699.204C743.23 651.172 871.53 730.832 820.847 699.204C815.69 695.981 813.146 694.405 804.299 688.889V688.853ZM743.194 588.813C740.901 588.204 791.512 599.666 699.675 579.751C707.949 581.47 688.321 576.814 743.194 588.813ZM1052.52 742.043C1008.39 724.241 964.621 706.583 924.433 690.321L989.192 715.967L1009.68 724.42C1024.62 730.474 1040.77 737.028 1057.6 743.869C1075.84 751.248 1094.82 758.877 1113.8 766.542C1095.72 760.059 1077.63 753.54 1060.15 747.272C1029.24 736.133 999.974 725.566 974.829 716.504C941.554 704.398 913.724 694.226 894.597 687.277C936.54 702.428 992.881 722.773 1055.13 745.231C1071.22 750.997 1087.84 757.015 1104.74 763.068C1087.48 756.119 1069.96 749.063 1052.52 742.007V742.043ZM1009.18 729.327L937.507 703.682L852.761 672.878C858.027 674.776 972.931 716.254 1009.18 729.327ZM685.097 593.111L755.05 621.3L684.56 592.968L768.481 607.761L752.292 605.039L685.061 593.147L685.097 593.111Z" fill="#1C1711"/>
<path d="M494.259 1159.57C493.364 1164.26 493.149 1164.9 494.402 1157.38C493.901 1160.25 493.4 1163.15 492.898 1166.12C496.05 1142.23 499.453 1116.59 502.82 1091.23C504.611 1077.54 506.366 1063.93 508.121 1050.64L489.854 1185.82L497.411 1142.48C496.444 1147.82 495.226 1154.37 494.295 1159.57H494.259Z" fill="#1C1711"/>
</svg>
