<svg width="907" height="546" viewBox="0 0 907 546" fill="none" xmlns="http://www.w3.org/2000/svg">
<path d="M305.549 3.64124C305.549 3.64124 305.455 3.47762 305.365 3.39838C306.163 109.572 333.64 217.002 390.522 315.524C447.404 414.046 524.496 489.473 614.467 543.159C593.143 531.309 571.155 520.802 548.699 511.524C550.258 512.412 551.804 513.351 553.312 514.225C565.521 521.394 574.593 527.059 560.071 522.229L570.674 526.618L575.969 528.838C577.725 529.613 579.42 530.509 581.129 531.354C580.154 531.176 578.441 530.551 576.132 529.573C573.762 528.717 570.781 527.559 567.397 526.155C560.647 523.379 552.254 519.721 543.686 515.988C539.437 513.993 534.952 512.57 530.695 511.015C526.392 509.531 522.276 508.069 518.508 506.755C510.925 504.199 504.751 502.269 501.436 501.74L467.126 490.366C464.273 489.353 461.35 488.597 458.428 487.842L449.694 485.558L432.155 480.943C434.185 482.344 422.376 481.006 433.582 483.869C442.038 485.747 451.024 487.712 456.531 488.938C444.586 486.457 437.673 484.91 433.582 483.869C424.924 481.716 416.649 480.606 413.466 480.306C410.283 480.007 412.132 480.64 423.519 483.137C339.577 464.524 249.734 464.627 164.937 485.105L149.013 488.803L145.058 489.735L141.17 490.933L133.341 493.316L117.717 498.062L109.922 500.426C107.311 501.192 104.718 501.991 102.207 503.005C92.0278 506.832 81.8817 510.64 71.7545 514.481C66.6128 516.228 61.7833 518.667 56.8029 520.845L42.0212 527.504C37.1301 529.761 32.1446 531.854 27.2774 534.228L13.6461 541.444L5.47467 545.726L1.29078 547.923L0.767332 548.225C0.767332 548.225 1.03039 548.379 1.13865 548.491L2.1531 549.039L4.14931 550.154C11.063 553.969 17.9767 557.784 24.8716 561.567C34.4459 566.288 44.1548 570.714 53.7379 575.299C64.3001 579.843 58.6059 576.327 54.8287 574.015C58.2572 575.874 61.3006 577.518 64.0003 578.795C66.7605 579.949 69.1543 580.922 71.2662 581.709C75.5089 583.315 78.7132 584.256 81.4807 584.97C87.0486 586.378 91.0569 586.899 99.0816 589.767C106.039 592.903 113.261 595.363 120.372 598.235C127.525 600.953 134.608 603.929 141.849 606.421C160.226 609.767 146.323 605.408 147.812 605.115C158.351 607.579 168.857 610.061 179.261 612.516C189.816 614.403 200.319 616.276 210.753 618.103L218.555 619.529C221.153 619.948 223.773 620.18 226.398 620.496C231.597 621.115 236.796 621.733 241.976 622.318C247.124 622.923 252.271 623.527 257.385 624.151C262.514 624.723 267.645 624.77 272.692 625.126C313.302 628.372 352.127 625.582 386.764 620.674C409.02 618.423 381.827 624.135 411.112 620.006C401.05 620.713 401.319 620.121 406.984 618.901C409.806 618.274 413.992 617.515 418.898 616.645C423.829 615.892 429.332 614.241 434.996 613.021C446.304 610.243 458.157 607.804 465.4 605.541C471.557 603.513 474.518 602.37 471.329 602.816C470.608 602.927 469.873 603.09 469.217 603.163C470.121 602.99 470.79 602.865 471.329 602.816C478.192 601.557 487.216 599.357 496.946 596.792C502.371 595.535 507.783 593.501 513.154 591.621C518.557 589.723 523.895 587.862 528.934 586.087C533.991 584.345 538.749 582.688 542.946 581.268C547.043 579.601 550.598 578.202 553.381 577.206C558.967 575.246 561.538 574.939 559.047 577.424C566.417 574.172 571.752 571.702 575.516 569.835C575.189 570.023 574.965 570.24 574.624 570.48C571.882 572.456 568.781 574.639 565.422 577.058C561.975 579.397 558.69 582.471 554.926 585.473C547.559 591.601 539.273 598.479 530.538 605.79C522.293 613.647 513.568 621.955 504.763 630.353C470.194 664.617 439.793 704.891 428.174 719.144C436.37 709.615 436.353 710.192 432.671 715.676C430.804 718.411 428.081 722.382 424.985 726.917C424.207 728.064 423.43 729.211 422.606 730.428C421.885 731.673 421.131 732.936 420.397 734.233C418.928 736.826 417.444 739.47 415.994 742.095C420.336 736.318 424.593 730.545 429.485 725.192C424.076 732.37 419.725 740.247 414.932 747.811L407.884 759.251C405.558 763.08 403.11 766.849 401.117 770.878C398.669 775.78 397.081 778.921 396.058 780.777C395.054 782.664 394.635 783.299 394.546 783.22C390.205 791.265 394.446 780.704 383.159 801.046C368.092 834.561 368.091 836.524 362.366 855.923L364.597 850.797L356.181 874.147C349.767 891.371 376.593 812.643 354.801 868.358C354.868 868.625 354.33 870.942 353.357 874.469C352.332 877.983 351.445 882.944 350.137 888.235C347.696 898.89 344.062 911.107 341.387 918.713C349.871 889.435 347.58 892.72 343.662 903.312L340.554 913.568C339.524 916.997 338.856 920.524 338.013 923.976L333.105 944.865L338.984 931.702C337.761 936.987 336.524 942.324 335.268 947.629L333.429 955.625L332.087 963.727C330.316 974.562 328.358 985.375 326.677 996.289C325.526 1007.29 324.374 1018.29 323.228 1029.38C322.493 1034.9 322.405 1040.49 322.181 1046.07L321.733 1056.1L321.525 1059.97L321.44 1061.94L321.398 1062.93C321.328 1063.18 321.566 1062.92 321.683 1062.89L322.076 1062.66L328.609 1058.72L337.492 1053.33C341.796 1050.58 346.358 1048.21 350.435 1045.07C358.796 1039.15 367.171 1033.18 375.597 1027.23C377.69 1025.71 379.82 1024.27 381.894 1022.72L387.912 1017.81C391.913 1014.54 395.914 1011.27 399.948 1007.98C403.982 1004.69 407.983 1001.42 412.017 998.133C415.98 994.798 419.684 991.089 423.502 987.577L434.943 976.871L440.664 971.518C442.606 969.743 444.477 967.922 446.22 965.956C453.36 958.301 460.514 950.594 467.687 942.92C471.372 939.179 474.605 934.957 477.933 930.899L487.925 918.588C488.12 919.304 491.883 915.169 497.37 908.73C502.518 902.007 509.056 892.781 515.511 883.864C522.229 875.101 527.581 865.861 531.711 859.944C535.771 853.98 538.172 851.111 537.369 854.104L534.436 858.24C526.076 872.094 527.892 870.479 533.527 862.559C536.335 858.583 540.115 853.042 544.02 847.037C546.059 844.072 547.849 840.901 549.569 837.684C551.256 834.486 552.929 831.339 554.481 828.437C540.486 852.174 574.651 783.21 542.564 841.946C546.471 834.283 550.218 826.493 554.022 818.802L559.725 807.223C561.643 803.367 563.092 799.304 564.804 795.393C565.5 791.764 566.932 787.143 568.937 781.624C569.923 778.874 571.081 775.894 572.365 772.754C573.014 771.158 573.696 769.543 574.391 767.877C575.016 766.164 575.623 764.418 576.275 762.602C581.328 748.084 588.816 730.982 594.644 711.611C597.774 701.997 601.362 692.119 603.786 681.735C605.136 676.595 606.482 671.369 607.878 666.158L609.896 658.32L610.896 654.385L611.656 650.413C613.662 639.834 615.617 629.242 617.417 618.913C617.94 616.343 618.276 613.751 618.494 611.182C618.736 608.731 618.998 606.312 619.226 603.912C621.44 627.014 624.295 644.425 626.037 650.615L625.339 657.037C632.788 685.882 638.446 701.499 643.891 718.636C645.315 722.916 646.778 727.262 648.325 731.907C649.957 736.548 651.689 741.436 653.606 746.871C657.472 757.723 662.303 770.547 669.219 786.834C668.584 786.111 664.813 778.824 668.925 789.272C673.095 796.721 677.317 804.184 683.418 815.053C686.501 820.469 689.828 826.835 694.237 834.321C696.408 838.082 698.619 842.214 701.253 846.625C703.887 851.036 706.728 855.806 709.815 861.002L708.31 859.603C721.593 881.024 736.166 901.657 751.869 921.375C749.407 922.928 770.129 948.166 795.631 972.694C820.77 997.65 851.089 1020.92 858.233 1030.28C860.963 1032.06 865.393 1034.82 870.704 1038.43C875.949 1042.07 882.358 1046.22 889.101 1050.57C892.432 1052.79 895.919 1055.05 899.48 1057.14C902.552 1058.99 905.61 1060.88 908.631 1062.72C912.52 1064.92 916.052 1066.81 918.884 1068.31C918.758 1066.2 918.609 1064.28 918.527 1062.63C918.155 1062.36 917.79 1060.22 917.418 1056.55C917.799 1055.85 918.216 1058.01 918.527 1062.63C918.757 1062.8 919.05 1062.33 919.266 1060.28C919.102 1059.24 918.9 1058.14 918.68 1057C918.598 1056.48 918.497 1055.93 918.396 1055.38L918.28 1054.57L918.152 1052.99C917.739 1048.65 917.48 1044.04 917.121 1039.19C916.287 1029.51 915.74 1018.97 914.714 1008.35C912.831 987.108 910.126 965.424 906.445 949.755C903.955 939.548 902.739 936.762 902.471 937.658C902.268 938.516 902.794 943.053 903.222 947.647C900.082 927.174 891.931 899.606 882.752 876.078C878.286 864.263 873.427 853.505 869.65 844.696C865.624 835.986 862.55 829.3 861.32 825.735C848.723 798.249 858.535 814.565 856.138 806.485C845.728 786.414 845.345 788.772 844.522 789.16C843.601 789.605 842.573 787.974 828.432 761.292C832.403 767.111 838.717 778.425 836.598 773.848C831.23 763.645 824.442 748.941 816.878 734.555C813.178 727.314 808.986 720.357 805.111 713.872C801.059 707.533 796.995 701.854 793.325 697.387L801.614 710.308C788.74 693.449 773.743 673.367 760.535 657.441C747.407 641.426 736.091 629.685 732.278 628.746L733.842 632.815C708.505 606.535 701.866 602.212 695.907 597.104C692.832 594.649 689.645 592.302 683.753 587.461C680.846 584.996 677.118 582.09 672.341 578.349C669.943 576.463 667.296 574.371 664.329 572.028C661.316 569.755 657.95 567.25 654.246 564.46L655.161 564.761C654.559 564.323 653.976 563.918 653.394 563.513C654.68 564.079 655.966 564.645 657.253 565.21C662.295 567.446 667.336 569.681 673.439 572.394C676.5 573.767 679.819 575.209 683.575 576.879C687.298 578.567 691.61 579.916 696.374 581.745C700.99 583.092 719.587 589.539 724.821 591.881C725.438 591.438 731.46 592.802 740.387 595.193C749.323 597.448 761.035 601.415 773.608 603.925C779.855 605.377 786.238 606.838 792.382 608.263C795.487 608.956 798.513 609.739 801.477 610.339C804.468 610.837 807.375 611.339 810.147 611.832C821.246 613.754 830.291 615.292 834.787 616.054C802.886 611.27 817.782 614.707 826.696 617.15C831.467 617.405 835.854 617.75 840.175 618.133C841.244 618.171 842.331 618.241 843.4 618.278C843.793 618.356 844.122 618.472 844.516 618.549C846.594 619.051 848.794 619.612 851.13 620.183C852.292 620.384 853.577 620.645 854.792 620.86C857.23 621.153 859.7 621.428 862.119 621.688C867.785 621.906 873.165 622.158 878.001 622.375C879.336 622.346 880.535 622.308 881.65 622.275C882.757 622.377 883.83 622.499 884.969 622.583C885.198 622.451 885.408 622.286 885.651 622.102C888.33 621.907 889.262 621.631 887.254 621.176C889.143 620.217 892.002 619.351 897.584 618.745C901.72 618.276 907.336 617.956 915.132 617.86C919.045 617.912 923.476 617.578 928.554 617.307C933.618 617.087 939.324 616.846 945.756 616.578C937.793 617.293 925.291 617.926 930.428 618.362C935.701 618.806 947.672 617.782 951.696 617.422C956.885 617.872 940.274 618.87 946.13 619.72C950.467 619.222 954.691 618.833 958.818 618.5C962.934 617.999 966.947 617.47 970.979 616.974C978.997 616.052 986.992 615.318 995.478 614.605C999.746 614.365 1004.05 613.582 1008.56 612.939C1013.09 612.244 1017.79 611.538 1022.77 610.799C1027.71 609.994 1032.94 609.155 1038.46 608.282C1043.96 607.156 1049.69 605.678 1055.85 604.174C1040.41 608.639 1053.97 606.132 1059.87 605.861C1060.66 604.799 1065.32 603.504 1071.55 602.131C1074.65 601.386 1078.22 600.85 1081.79 599.925C1085.36 599 1089.04 598.051 1092.54 597.163C1106.58 593.595 1117.81 590.771 1107.9 591.434C1110.38 590.744 1112.88 590.086 1115.45 589.39C1116.73 589.042 1118.01 588.694 1119.29 588.347C1120.57 587.915 1121.83 587.45 1123.11 587.018C1128.21 585.205 1133.4 583.387 1138.7 581.545C1143.99 579.671 1149.38 577.739 1154.84 575.803C1157.6 574.91 1160.27 573.717 1162.94 572.524C1165.63 571.364 1168.33 570.153 1171.02 568.993C1176.45 566.602 1181.9 564.193 1187.39 561.765L1195.62 558.106C1198.35 556.875 1200.95 555.331 1203.65 553.951C1207.8 551.773 1211.95 549.594 1216.05 547.402L1220.59 544.996L1222.87 543.81L1223.99 543.168L1224.58 542.912L1224.87 542.742L1225 542.667L1224.86 542.573C1220.63 540.306 1216.4 538.039 1212.29 535.832C1208.88 534.007 1205.54 532.227 1202.24 530.429C1198.76 528.421 1195.07 526.934 1191.5 525.287C1184.39 522.025 1177.46 518.871 1170.81 515.818C1167.46 514.311 1164.23 512.728 1161.02 511.398C1157.76 510.138 1154.52 508.911 1151.42 507.693C1145.18 505.276 1139.27 502.974 1133.75 500.802C1128.25 498.611 1123.13 496.549 1118.29 495.114C1108.74 491.948 1101.05 489.28 1095.71 487.214C1093.28 486.176 1089.77 484.931 1085.62 483.709C1081.38 482.711 1076.48 481.703 1071.37 480.639C1066.25 479.627 1060.96 478.54 1055.84 477.528C1050.72 476.516 1045.88 475.385 1041.56 474.782L1044.17 473.711C1032.07 472.323 1023.66 471.288 1017.01 470.419C1010.36 469.549 1005.43 468.728 1000.17 468.452C994.917 468.04 989.442 467.625 981.671 467.009C977.814 466.75 973.361 466.442 968.145 466.096C962.915 465.801 956.82 466.048 949.693 466.02C973.304 465.21 963.619 463.998 939.816 461.604L929.987 461.958L925.092 462.168L920.198 462.682L900.635 464.687L892.941 462.543C884.894 462.959 876.432 464.093 867.725 464.803C859.21 465.619 850.399 465.996 841.617 466.879C834.608 469.094 818.124 472.2 801.477 475.401C791.821 477.792 782.1 480.22 774.129 482.205C770.146 483.24 766.632 484.179 763.781 484.909C760.955 485.755 758.827 486.679 757.588 487.176C748.811 488.144 737.614 491.642 727.035 495.003C721.677 496.526 716.772 498.835 712.173 500.313C707.63 501.889 703.554 503.064 700.281 503.515C695.082 505.993 688.149 508.644 680.822 512.045C684.898 510.87 687.957 510.804 687.95 511.245C687.999 511.783 685.033 512.841 677.803 515.882C676.568 516.464 675.628 516.876 674.427 517.439L677.545 516.947C672.13 519.506 666.716 522.065 661.549 524.525C655.949 526.536 649.723 528.823 643.731 531.061C639.995 532.826 636.474 534.51 633.019 536.156C638.86 532.522 644.666 528.602 650.274 524.187C656.397 519.605 662.599 514.934 668.899 510.207C672.08 507.934 675.015 505.236 678.007 502.636C680.999 500.037 683.972 497.404 686.997 494.786C692.976 489.502 699.082 484.363 705.037 478.962C710.724 473.324 716.481 467.732 722.244 462.224C734.126 451.526 744.654 439.691 755.914 429.047C749.336 435.636 740.344 445.145 738.427 448.171C747.217 438.691 756.008 429.21 764.575 419.947C772.676 410.254 780.571 400.811 788.09 391.847C802.059 373.053 814.753 356.129 822.27 341.497L819.595 342.605C824.315 334.385 828.986 326.76 833.071 319.255C836.913 311.629 840.587 304.317 844.141 297.25C845.943 293.724 847.713 290.216 849.455 286.811C851.23 283.388 852.587 279.77 854.155 276.291C857.241 269.32 860.279 262.419 863.365 255.448L862.282 253.194C864.744 248.24 866.859 242.309 869.23 235.837C871.567 229.385 874.109 222.379 876.753 215.096C877.405 213.279 878.072 211.412 878.738 209.544C879.302 207.649 879.846 205.721 880.391 203.793C881.512 199.918 882.634 196.043 883.75 192.084C885.918 184.203 888.475 176.316 890.422 168.431C892.247 160.487 894.012 152.664 895.699 145.235C896.559 141.511 897.443 137.905 898.28 134.368C899.188 130.878 899.571 127.386 900.255 124.113C902.7 110.97 905.014 100.17 907.075 93.6154C906.934 88.1579 908.493 72.9525 910.419 55.9652C911.029 51.7318 910.935 47.3376 911.248 42.9697L911.407 39.6942L911.491 38.5554C911.54 37.9601 911.589 37.3649 911.624 36.8213C911.703 35.5981 911.736 34.4455 911.806 33.3582C911.808 32.8335 911.843 32.2898 911.818 31.8683C911.379 32.1654 910.94 32.4626 910.566 32.722C910.419 32.2401 910.108 31.8526 909.601 31.5785C906.623 33.2973 906.133 33.5807 898.59 38.1968C895.722 40.0276 892.875 41.6709 890.292 43.4676C887.747 45.3297 885.332 47.1163 882.964 48.8324C873.633 55.7898 865.666 61.7852 857.759 67.6586C860.315 65.9651 862.824 64.3421 865.346 62.6675C858.734 67.8369 852.378 73.6002 845.888 78.83C839.417 84.0925 832.931 89.1021 826.808 93.6837C817.951 101.763 807.889 110.931 794.997 122.299C797.961 117.535 811.091 107.032 826.808 93.6837C838.686 84.035 848.246 75.8115 857.74 67.6259C851.067 72.6129 844.515 77.6603 838.066 82.7353C831.688 87.8568 825.07 92.6374 819.318 98.3137C813.438 103.845 807.638 109.287 801.871 114.711C799.057 117.469 796.046 120.036 793.431 122.985C790.796 125.902 788.176 128.767 785.522 131.651C780.3 137.414 775.143 143.139 769.999 148.812C767.355 151.56 765.138 154.672 762.743 157.625C760.399 160.592 758.055 163.559 755.711 166.526C751.056 172.441 746.326 178.225 741.821 184.097C737.546 190.141 733.285 196.134 729.089 202.089L728.425 202.298L720.068 214.493C717.387 218.614 714.988 222.921 712.416 227.154C707.425 235.661 702.205 243.996 697.459 252.624C698.952 249.015 699.655 248.042 699.296 248.554C698.938 249.066 697.837 251.315 696.338 254.536C693.32 260.945 688.459 271.035 684.116 278.776C683.057 280.87 681.924 283.138 680.73 285.528C679.659 287.979 678.527 290.551 677.334 293.246C674.963 298.583 672.36 304.274 669.677 310.053C663.945 321.431 659.388 333.787 654.869 343.941C652.683 349.826 650.169 355.596 648.312 361.596L642.688 379.584C654.151 339.297 639.788 381.738 637.463 383.604L634.511 395.34L632.314 407.25C629.215 416.54 634.72 391.773 630.12 409.04C629.378 413.044 628.106 418.925 626.604 425.767C625.93 429.209 624.878 432.826 624.36 436.614C623.758 440.407 623.147 444.336 622.537 448.265C621.348 456.103 620.173 463.891 619.191 470.651C618.969 472.306 618.812 473.923 618.701 475.469C618.385 472.73 618.036 470.01 617.686 467.289C617.99 470.385 618.327 473.461 618.65 476.589C618.521 478.103 618.438 479.547 618.383 480.887C617.801 478.519 617.252 476.132 616.585 473.769L617.594 466.601C615.107 447.408 611.776 428.266 607.485 409.199C606.084 406.998 603.068 396.789 599.868 387.167C595.77 374.704 591.531 363.282 592.896 371.086C590.781 362.058 590.201 359.166 588.89 353.948C588.209 351.332 587.342 348.169 585.77 343.406C584.049 338.687 581.791 332.358 578.261 323.449C573.063 312.407 575.465 319.437 578.925 330.568C580.58 336.154 582.867 342.684 584.471 348.561C585.1 350.859 585.737 353.02 586.261 354.986C582.055 341.277 577.413 327.646 572.218 314.116C571.803 311.433 571.536 309.233 571.562 307.691C571.581 303.493 573.648 304.655 578.61 315.441C573.664 302.945 568.32 290.591 562.522 278.282C566.299 287.091 561.092 277.014 554.247 263.346L554.504 261.977C554.9 262.663 555.297 263.35 555.712 264.07C550.078 252.8 544.111 241.634 537.728 230.578C481.715 133.561 403.924 56.9238 314.141 3.26027C314.024 3.28422 311.77 2.09974 312.581 2.37249C312.722 2.46555 312.948 2.5535 313.159 2.6931C312.299 2.18632 311.472 1.66065 310.613 1.15388C310.773 1.27965 310.927 1.32116 311.139 1.46075L309.932 0.805639C311.374 1.71738 312.184 2.51485 313.136 2.88065L313.109 2.98379L313.128 3.01654L305.538 7.39865L305.624 8.83187C305.715 10.3494 305.618 8.74758 305.538 7.39865C305.538 7.39865 305.52 7.6705 305.506 7.72209L305.604 9.6284C305.544 8.92123 305.712 12.0079 305.494 8.07815C305.585 9.59569 305.45 7.62393 305.513 8.11089L305.453 7.4037C305.453 7.4037 305.472 7.43646 305.458 7.48806C305.518 8.19523 305.51 8.63566 305.458 7.48806C305.458 7.48806 305.421 7.42258 305.453 7.4037L305.458 7.48806C305.458 7.48806 305.458 7.48799 305.421 7.42257C305.441 7.75981 305.452 8.23301 305.475 8.0455C305.502 8.77157 305.495 8.38267 305.421 7.42257C305.404 6.86513 305.4 7.08534 305.421 7.42257L305.379 6.44366L305.404 6.8652C305.404 6.8652 305.369 6.27504 305.349 5.9378C305.352 5.71759 305.323 5.51618 305.318 5.43188C305.318 5.43188 305.318 5.4319 305.384 5.39412L305.348 4.804C305.274 3.8439 305.348 4.80396 305.384 5.39412C305.373 5.2255 305.35 5.10851 305.372 4.92101C305.338 4.63537 305.318 4.29818 305.312 3.90935C305.293 3.87664 305.274 3.8439 305.236 3.77848C305.276 4.45295 305.297 4.79022 305.246 3.94714C305.227 3.91443 305.241 3.86279 305.236 3.77848L305.549 3.64124ZM545.8 520.481L554.37 523.689L569.107 531.535L545.749 520.467L545.8 520.481ZM612.474 536.46C612.382 534.637 612.303 532.764 612.211 530.942C611.948 530.788 611.685 530.635 611.403 530.449C611.531 530.898 606.889 526.862 612.134 529.373C611.849 523.213 611.499 517.091 611.013 510.961C611.459 516.417 611.74 512.068 612.112 511.504C612.267 516.91 612.098 521.15 612.289 529.414C612.88 529.683 613.58 530.064 614.402 530.505C614.555 526.841 614.735 523.073 614.994 519.216C614.593 524.943 614.097 524.009 613.819 519.372C613.215 514.094 612.843 503.929 611.855 493.379C610.183 472.275 606.528 449.701 606.619 460.813C605.364 435.37 604.103 443.687 603.375 427.316C606.596 444.907 609.409 462.473 612.093 479.285C614.1 493.565 615.917 507.214 616.998 519.891C616.789 522.324 616.626 524.686 616.444 527.015C616.151 530.891 615.901 534.612 615.645 538.249L614.239 538.232C614.24 536.269 614.339 534.249 614.405 532.248C613.808 531.895 613.122 531.462 612.385 531.016C612.434 532.688 612.489 534.445 612.558 536.454L612.474 536.46ZM618.823 505.448C618.421 507.774 618.033 510.048 617.691 512.252C617.68 507.548 617.617 502.83 617.587 498.094C618.102 500.195 618.488 502.676 618.856 505.43L618.823 505.448ZM596.346 543.808L592.037 538.838C595.054 540.891 602.262 544.536 607.705 547.238C607.541 547.332 607.312 547.465 607.149 547.559L596.346 543.808ZM575.504 567.094C577.58 566.157 579.643 565.271 581.686 564.353C583.654 563.304 585.608 562.307 587.544 561.277C587.674 561.201 587.773 561.144 587.904 561.069C587.516 561.38 587.096 561.71 586.708 562.021C585.666 562.709 584.185 563.695 582.462 564.865C581.15 565.011 578.46 565.867 575.518 567.042L575.504 567.094ZM632.545 420.418C634.384 415.519 631.299 418.259 633.832 409.426C635.206 403.268 636.185 398.996 636.862 396.163C637.712 393.404 638.194 392.123 638.399 391.874C638.847 391.441 637.804 395.226 637.063 400.365C635.322 410.572 632.263 425.596 632.526 420.386L632.545 420.418ZM621.562 471.811C621.797 469.801 621.821 469.918 621.695 471.211C621.829 470.611 621.939 470.198 622.073 469.598C623.792 461.016 624.82 456.149 625.428 453.574C626.389 448.439 627.439 443.08 628.459 437.518C627.319 443.628 626.737 447.758 626.174 450.787C625.991 452.812 624.07 463.386 626.174 450.787C626.218 450.108 625.974 451.121 625.428 453.574C624.259 459.482 623.111 464.899 622.073 469.598C621.917 470.386 621.834 470.695 621.65 471.586C621.383 473.616 621.406 476.83 621.454 478.198C621.782 474.912 622.39 471.508 623.28 467.156C622.838 469.941 622.496 472.145 622.241 473.818C622.038 475.506 621.907 476.715 621.817 477.465C621.589 479.036 621.5 478.956 621.468 478.146C621.025 481.76 620.63 484.779 620.342 487.301C620.16 485.4 619.927 483.485 619.745 481.583C620.244 478.897 620.838 475.544 621.543 471.779L621.562 471.811ZM619.558 482.695C619.574 483.252 619.675 483.804 619.691 484.362C619.62 484.011 619.496 483.646 619.424 483.295C619.48 483.088 619.502 482.901 619.539 482.662L619.558 482.695ZM614.351 469.52C615.229 476.558 615.56 481.513 614.853 482.707C612.046 462.128 607.777 441.74 610.823 447.09C610.635 445.934 610.485 444.843 610.278 443.654C611.956 453.283 613.589 462.459 614.351 469.52ZM606.1 421.381C607.109 427.21 608.316 433.229 609.518 439.164C607.312 428.619 604.858 419.307 606.1 421.381ZM595.922 399.825C596.916 404.266 597.578 408.812 598.422 413.297C596.966 408.206 595.608 403.059 593.918 398.016L595.922 399.825ZM343.08 32.6075C339.214 30.2169 335.473 27.6665 331.546 25.398C332.738 26.934 340.263 33.3184 338.663 32.8899C338.37 32.2307 334.734 29.1831 330.021 25.9295C327.671 24.277 325.077 22.5038 322.656 20.8047C321.979 20.2362 321.321 19.7004 320.77 19.2765L321.902 19.8009L322.512 20.1026L322.827 20.2698L323.738 20.7904L331.565 25.4307C330.603 24.067 334.758 25.8988 354.527 40.0424C350.832 37.4215 346.919 35.1014 343.099 32.6403L343.08 32.6075ZM320.275 98.8076L316.041 76.7414L315.034 68.1207C317.585 85.8374 321.223 103.32 325.277 120.692C323.436 113.425 321.933 106.137 320.242 98.8264L320.275 98.8076ZM324.147 105.513C321.056 97.4406 321.869 96.8842 321.807 93.3004L319.596 80.7076C321.351 87.6757 321.755 91.019 321.807 93.3004C323.439 102.171 325.356 111.008 327.32 119.774C324.587 108.617 323.022 103.415 324.128 105.48L324.147 105.513ZM327.69 115.504L325.075 103.494C324.243 96.3861 324.099 91.4534 324.423 91.4848C324.591 91.4746 324.92 92.724 325.476 95.4997C326.031 98.2755 326.931 102.554 328.181 108.723C327.25 104.768 327.691 108.177 328.416 113.21C329.057 118.248 330.435 124.867 330.605 127.429C329.623 123.46 328.556 119.497 327.658 115.523L327.69 115.504ZM336.727 166.591C335.934 164.084 334.842 160.833 333.667 156.757C332.609 152.658 331.318 147.777 329.84 142.045C336.701 165.865 332.693 148.422 330.104 134.871C335.555 157.761 339.229 170.773 339.153 172.605C339.157 173.519 338.347 171.588 336.727 166.591ZM466.126 150.456C463.957 147.303 461.796 144.014 465.895 148.016C478.479 164.825 488.192 177.796 497.303 190.025C499.96 193.419 502.49 196.668 504.964 199.819C507.34 203.027 509.579 206.226 511.762 209.327C506.941 202.865 502.143 196.52 497.303 190.025C488.468 178.727 478.065 166.677 466.223 152.362C470.197 156.828 468.197 153.665 466.093 150.474L466.126 150.456ZM369.245 270.588C366.868 264.808 364.294 259.141 362.151 253.314C362.215 252.971 362.905 254.318 363.927 256.693C365.015 259.03 366.501 262.359 368.152 265.899C369.77 269.457 371.506 273.295 373.03 276.69C374.703 280.041 376.196 282.93 377.197 284.663C374.464 280.005 371.731 275.346 369.212 270.607L369.245 270.588ZM417.22 349.829C416.332 348.292 415.627 346.693 414.838 345.099C406.527 331.536 395.626 314.845 386.776 299.064C382.197 291.284 378.434 283.557 375.079 276.99C371.938 270.342 369.664 264.589 368.437 260.5C371.229 266.695 374.476 274.284 378.804 282.384C380.925 286.436 383.095 290.723 385.47 295.064C387.944 299.349 390.494 303.765 393.067 308.298C403.669 326.208 415.769 344.823 427.181 360.433L417.239 349.862L417.22 349.829ZM464.709 410.248C459.195 404.098 453.472 398.113 448.182 391.747C454.314 398.892 460.992 405.547 467.394 412.405L464.709 410.248ZM574.89 336.953L578.587 342.146C581.187 348.539 583.338 355.06 585.775 361.547C582.267 353.28 578.81 345.026 574.89 336.953ZM456.369 124.338C457.243 125.098 458.608 126.404 460.849 128.774C463.024 131.181 466.029 134.724 470.296 139.848L470.14 138.369C475.035 144.657 479.544 151.257 484.164 157.748C479.166 151.736 474.332 145.63 469.045 139.873C463.903 133.988 458.714 128.174 453.301 122.577C454.664 123.578 454.554 122.857 456.336 124.357L456.369 124.338ZM447.305 122.768C451.527 127.134 456.562 132.077 461.493 137.822C466.467 142.888 471.696 148.242 479.134 158.254C481.706 161.348 481.448 161.279 480.629 160.617C485.764 166.942 490.508 173.799 495.532 180.536C500.262 187.444 505.062 194.398 509.492 201.392C514.596 209.174 520.095 217.339 525.866 226.654C515.88 209.131 520.397 215.594 523.82 220.465C525.541 222.917 526.951 224.982 526.096 223.425C525.227 221.921 522.322 216.663 514.569 205.047C520.477 213.542 522.317 215.445 524.881 218.98C526.154 220.731 527.686 222.856 529.965 226.425C531.088 228.219 532.451 230.354 534.098 232.979C535.647 235.662 537.427 238.821 539.566 242.601C543.026 250.634 541.138 248.497 537.672 243.477C535.965 240.973 533.791 237.736 531.73 234.696C529.604 231.693 527.455 228.877 525.962 227.123C539.545 249.591 546.097 262.905 551.153 273.55L556.372 284.1L554.449 280.544C558.676 289.225 562.36 298.175 566.208 307.031L571.534 320.486C573.343 324.98 575.036 329.498 576.611 334.04C576.776 334.25 576.917 334.343 577.077 334.469C575.72 328.493 574.454 322.9 573.464 318.238C573.214 316.899 572.97 315.645 572.782 314.488C576.846 326.665 581.118 339.202 584.62 349.348C585.602 352.182 586.518 354.75 587.372 357.136C587.877 359.068 588.329 360.683 588.563 361.769C586.112 355.028 584.234 349.963 582.84 346.189C581.362 342.419 580.198 339.951 579.436 338.253C577.847 334.897 577.486 334.8 577.044 334.488C577.231 335.34 577.426 336.056 577.594 336.875L576.579 334.059C575.651 332.981 573.906 329.278 565.914 311.432C563.094 303.072 560.681 296.702 558.481 290.776C556.15 284.926 553.855 279.666 551.101 273.536C542.529 257.027 533.579 240.693 523.601 224.997C523.808 225.357 523.946 225.67 524.177 226.147C526.038 229.521 527.861 232.83 529.557 235.994C531.155 239.215 532.696 242.337 534.138 245.212C533.408 244.325 531.664 240.927 529.726 237.117C527.769 233.275 525.6 228.989 524.145 226.166C519.822 218.15 514.759 209.909 509.441 201.378C505.163 194.951 500.85 189.067 496.857 183.435C492.733 177.879 488.587 172.814 484.626 167.992C473.704 154.062 478.73 159.141 480.629 160.617C477.304 156.519 474.086 152.533 470.977 148.658C467.69 144.93 464.563 141.327 461.493 137.822C457.991 134.174 454.33 130.705 449.826 126.153C450.793 127.601 451.025 128.078 448.527 124.81C449.012 125.271 449.393 125.705 449.826 126.153C449.194 125.21 448.308 123.977 447.337 122.749C446.777 122.156 445.987 121.392 445.408 120.767C445.401 120.378 446.291 121.39 447.337 122.749L447.305 122.768ZM339.615 167.89C340.084 169.233 341.123 172.165 340.892 169.725C343.137 178.373 344.958 183.341 346.056 186.981C343.212 175.103 351.757 204.711 346.056 186.981C346.366 188.197 346.486 188.782 347.001 190.884C341.841 175.676 340.096 169.706 339.582 167.909C339.482 167.661 339.416 167.394 339.378 167.329C339.354 167.212 339.378 167.329 339.582 167.909L339.615 167.89ZM427.983 105.924C424.522 102.95 420.929 100.052 417.454 97.1306C413.946 94.2277 410.452 91.2732 406.785 88.549C410.926 91.5662 414.881 94.8653 418.864 98.0612C421.897 100.671 424.996 103.243 427.983 105.924ZM416.126 91.3553C415.514 90.749 414.705 89.9514 413.665 88.9816C414.724 89.9841 415.566 90.7628 416.126 91.3553ZM390.895 68.8079C393.782 71.2404 396.599 73.6263 399.078 75.7281L398.823 75.4388C405.969 81.9984 410.725 86.2308 413.608 88.8835C410.489 85.9742 405.485 81.5366 399.078 75.7281L405.96 84.0973C394.987 73.5541 392.233 70.5213 390.895 68.8079C390.147 68.1929 389.592 67.6847 388.844 67.0696C389.788 67.5713 390.221 68.0192 390.895 68.8079ZM391.129 65.6632L388.081 63.9342C385.4 61.5569 382.606 59.2879 379.799 57.0706C375.588 54.0069 371.442 50.9054 367.184 47.9122L354.321 39.1578C360.979 43.5129 357.14 39.8853 356.931 39.221L368.524 47.9671L379.799 57.0706C383.654 59.8173 387.382 62.7239 391.129 65.6632ZM340.229 20.3409C340.229 20.3409 340.35 20.0967 338.949 19.0302C344.598 22.9213 343.358 22.2851 340.229 20.3409C340.476 21.0707 330.535 15.0345 339.959 21.7617C350.83 29.485 354.074 30.7962 357.509 33.0435C363.177 38.1011 367.016 41.7288 369.985 44.6809C372.419 47.1577 374.204 49.2672 375.956 51.3956C377.302 52.6686 377.81 53.2472 377.105 52.7819C376.705 52.3152 376.356 51.8623 375.956 51.3956C371.11 46.7794 354.803 32.5122 340.116 22.4122C338.975 21.7193 337.833 21.0265 336.678 20.3852C315.887 6.13369 333.235 16.3107 340.197 20.3598L340.229 20.3409ZM315.536 8.4731C324.493 14.4669 324.614 15.3565 322.587 14.5645C320.442 13.7965 315.84 11.5685 312.516 10.0422C312.664 11.6579 312.826 13.222 312.991 14.5658C312.732 12.2291 312.499 10.3141 312.252 9.58432C314.411 10.3007 314.291 9.71556 313.824 8.98212C313.427 8.29521 312.781 7.40335 315.504 8.49201L315.536 8.4731Z" fill="#1C1711"/>
</svg>
