<svg width="585" height="1180" viewBox="0 0 585 1180" fill="none" xmlns="http://www.w3.org/2000/svg">
<path d="M584.921 554.801C581.126 557.807 570.454 561.762 560.572 565.4C559.544 565.242 558.437 565.005 557.331 564.768C560.651 562.711 563.734 560.575 565.79 558.598C567.213 558.598 567.371 558.202 566.738 557.649C567.924 556.225 568.477 554.88 567.766 553.852C569.663 552.982 569.584 552.191 565.315 552.112C566.817 552.586 567.292 553.219 567.766 553.852C566.817 554.326 565.236 554.88 563.339 555.355C559.781 553.061 557.094 550.688 572.272 552.349C576.699 553.377 580.889 554.168 585 554.801L584.921 554.801ZM540.018 569.197C544.524 568.485 549.03 567.852 553.615 567.141C554.801 566.349 555.987 565.638 557.331 564.768C553.931 564.135 550.453 563.66 546.974 563.186C543.022 565.479 539.859 567.694 540.018 569.197ZM-590 549.185C-577.035 547.682 -564.465 546.1 -552.054 544.597C-544.78 546.891 -537.112 549.343 -537.744 552.823C-520.51 543.806 -488.572 556.541 -460.112 542.778C-453.313 543.411 -465.409 545.942 -461.614 547.207C-454.499 543.015 -445.487 540.879 -428.411 539.772L-430.229 540.879C-382.954 532.495 -362.084 532.574 -308.484 522.845L-313.227 520.076C-301.685 518.099 -299.076 518.494 -293.542 518.099C-287.692 513.669 -295.677 515.647 -303.82 517.545C-311.962 519.206 -320.342 520.788 -315.045 516.438C-306.666 518.653 -286.586 513.669 -267.217 508.607C-257.572 505.839 -248.007 503.307 -240.18 501.409C-232.354 499.432 -226.108 498.482 -222.867 499.669C-205.633 493.737 -229.349 497.454 -212.194 491.284L-206.819 491.68L-203.656 487.171C-192.352 483.216 -185.632 483.533 -184.446 485.036C-187.213 486.222 -191.877 488.832 -194.723 490.177C-195.514 490.335 -196.462 490.652 -197.174 490.731C-197.174 491.284 -196.225 490.889 -194.723 490.177C-178.912 487.013 -154.721 470.481 -149.741 468.346C-155.275 470.798 -160.571 473.487 -166.184 475.623C-144.128 463.125 -119.858 448.255 -98.4338 429.666C-76.7726 411.315 -59.1432 388.772 -47.6012 367.099L-51.0796 369.235C-41.9882 352.94 -38.3517 346.612 -33.9245 340.126C-29.2603 333.719 -24.9913 326.521 -17.0857 307.933C-17.0857 308.407 -17.2439 308.961 -17.3229 309.436C-15.8999 301.288 -12.6587 291.006 -8.54777 280.881C-9.89171 291.164 1.41317 264.191 -0.721296 277.559C4.10109 258.1 4.97072 253.275 4.73354 249.874C4.5754 246.473 3.62679 244.574 4.18014 231.207L8.6863 226.223C8.37008 216.969 7.10525 215.941 11.2951 196.64C9.79311 212.935 18.7263 185.408 17.5406 203.838C33.5888 164.605 24.2602 142.22 37.0672 125.293C32.561 105.123 25.9204 159.701 26.1576 148.944C21.8095 157.17 23.2325 132.412 26.3156 119.835C28.5292 106.863 40.7038 99.5067 45.4471 66.6014C44.8937 69.8446 45.4471 70.161 44.9727 73.404C48.6093 62.3302 46.4748 50.7026 50.3485 37.493C53.4316 68.9744 59.3608 43.5837 61.4162 76.5681L53.985 63.0421L58.0169 80.523L53.1945 77.5172C59.2818 96.2636 59.7561 102.433 61.7325 121.496C63.6298 116.671 68.8475 122.762 72.2469 139.373C72.2469 151.158 67.4245 133.678 72.5631 157.17C69.1637 152.345 65.1319 147.045 66.6339 136.05C65.2109 135.259 63.2345 131.226 61.8116 130.355C61.7325 143.09 66.9501 161.362 69.0846 169.905C68.5312 166.583 67.8197 162.628 67.9779 160.492L80.6267 193.556C80.5477 199.251 78.3341 195.296 76.3577 191.262C78.255 198.143 81.3383 202.494 84.1842 212.539C80.5477 210.641 77.5435 212.144 72.484 197.985L84.1842 229.783C83.5518 232.314 85.5282 247.501 83.1565 243.625C84.0261 248.292 85.6863 253.275 87.6626 258.496C89.8762 263.716 92.5641 269.174 95.252 274.79C100.312 286.101 106.873 297.729 110.431 309.989C110.035 309.673 109.719 309.515 109.482 309.515L102.92 302.475C108.217 315.605 107.506 309.119 109.482 309.515L110.668 310.78L110.431 309.989C111.379 311.018 113.039 313.153 115.806 317.82C118.178 323.278 120.313 328.657 122.447 334.115C124.661 339.493 127.348 344.714 129.957 350.093C135.017 360.929 142.448 371.37 152.251 381.97L157.943 398.422C165.532 407.044 163.398 401.428 162.528 397.394C162.133 395.337 162.054 393.676 163.556 394.309C165.058 394.942 168.141 397.868 174.94 404.275C184.505 413.372 185.296 415.982 184.505 417.327C183.636 418.671 180.869 418.83 183.794 422.626C195.652 429.904 215.89 440.74 233.915 457.193C226.721 453.554 221.662 449.757 215.574 445.249C219.764 450.074 224.428 454.108 229.093 458.458C218.104 454.662 209.882 448.966 205.692 446.673C201.502 444.3 201.265 445.012 207.036 452.21C209.25 450.39 213.835 452.605 220.159 455.848C226.484 459.012 234.073 464.153 241.979 468.662C249.963 472.933 257.869 477.284 264.351 479.815C270.913 482.109 275.814 482.821 277.554 480.685L287.515 487.883C284.432 486.301 283.641 486.697 280.637 485.115C290.123 492.629 295.104 492.075 300.796 491.838C306.567 491.364 312.891 491.522 326.568 496.821C335.976 500.935 342.379 504.731 335.264 503.703L327.833 502.121C331.311 502.991 333.604 503.466 335.264 503.703C342.774 505.522 350.364 506.709 357.874 507.974C363.092 509.715 362.538 510.901 358.585 510.031L355.818 509.319C356.925 509.635 357.795 509.873 358.585 510.031L372.657 513.828L389.575 517.704L389.259 517.941C386.65 518.178 385.464 518.495 387.599 519.127L389.259 517.941C394.477 517.466 405.94 517.941 411.473 517.862C419.695 521.263 406.967 518.02 408.786 519.839L427.996 521.421C435.032 525.851 418.984 525.06 406.177 521.817C413.687 528.936 417.798 529.173 424.439 529.331C431.158 529.568 440.408 529.806 458.67 536.45L440.724 534.393C450.922 542.462 465.231 543.332 484.679 550.451C480.173 547.919 446.258 533.523 467.049 534.868C472.583 536.846 480.094 538.507 491.478 538.19C490.924 541.987 501.834 542.936 515.273 544.914L513.534 549.739C528.317 550.53 527.527 547.84 536.46 546.891C549.346 549.264 553.694 552.586 556.619 555.671C555.512 556.146 554.327 556.699 552.904 557.411L545.789 552.824L544.603 555.276L508 557.411C483.098 567.457 462.227 579.164 422.541 590.396C431.633 584.147 423.253 583.356 422.699 578.452C434.795 580.904 453.768 569.672 475.113 566.745C463.966 568.327 465.943 565.558 468.631 564.214C456.298 568.248 444.044 571.966 431.87 576.316C431.87 572.203 423.253 575.13 413.055 575.683C422.225 581.537 386.255 587.311 371.788 593.955C370.128 591.661 372.974 587.864 391.789 583.83C369.653 583.119 367.835 599.967 346.569 600.837C351.075 599.492 353.605 599.176 354.949 597.356C352.735 598.464 349.81 599.65 346.569 600.837C335.185 605.029 320.481 608.826 324.433 605.424L328.861 603.842C325.145 605.029 320.876 606.295 316.37 607.877C311.943 609.617 307.199 611.515 302.298 613.493C292.495 617.21 282.534 622.431 273.364 627.256C255.26 637.38 241.504 648.138 241.504 652.409C240.714 651.856 240.556 643.313 241.504 641.098C233.204 652.488 225.693 664.037 219.211 675.823C214.626 679.54 210.119 683.337 205.771 687.292C204.19 686.501 202.53 685.631 201.186 684.603C197.471 681.834 195.731 677.484 204.744 667.28C205.06 667.122 205.376 666.884 205.692 666.726C210.04 667.517 214.388 668.308 218.578 669.178C220.397 662.534 222.136 655.257 224.587 648.692C217.867 658.579 212.965 662.297 205.613 666.647L205.218 666.647C205.218 666.647 204.902 666.963 204.665 667.201C201.423 669.336 198.024 672.026 193.992 675.585C189.96 679.224 185.217 683.574 180.632 690.456C184.822 687.055 195.415 686.896 190.988 692.354C182.213 697.179 179.209 699.078 176.047 701.53C172.726 703.903 169.564 706.988 159.919 714.897C165.848 709.598 167.271 721.7 160.315 731.271C160.315 728.898 152.409 727 154.148 722.728C151.065 733.09 147.429 742.819 145.373 753.181C147.587 745.825 139.523 748.119 133.989 752.944C135.491 751.995 132.25 757.769 128.218 764.73C124.581 771.849 120.392 780.312 119.048 784.188L126.4 773.431C122.447 781.024 120.154 787.036 119.127 792.335C118.178 797.635 118.099 802.144 118.02 806.573C118.02 811.003 117.941 815.432 117.229 820.653C116.676 825.953 115.411 832.043 112.644 839.795C112.17 835.444 105.213 826.664 98.5723 842.563C99.5209 846.993 102.446 856.88 104.422 869.062C104.58 869.853 104.66 870.723 104.739 871.514C101.576 882.904 98.4932 894.769 95.5681 907.108C93.4336 890.418 91.9316 871.355 92.6431 858.541C87.1883 870.169 88.3741 861.073 83.8679 879.424C79.9152 885.277 82.7612 868.429 84.3423 862.971C79.678 877.051 75.8043 891.288 71.7724 905.526C77.3853 904.814 69.717 939.539 74.4603 938.748C76.1995 922.928 77.3064 906.95 79.678 891.051C85.1328 890.576 87.5835 921.267 80.8639 951.166C77.3064 958.443 72.7211 943.573 70.8238 943.81C71.8515 948.161 68.6893 973.314 66.9501 975.845L66.6339 962.398C61.2581 979.009 68.6893 991.27 60.1513 1010.73C58.7283 1017.69 50.1903 1030.66 53.1154 1032.4C57.7797 1026.07 66.3176 1023.86 73.1954 1024.81C72.0096 1032.64 70.7447 1040.55 69.5588 1048.62L67.6616 1047.27L67.0291 1051.86L69.0845 1052.02C67.8987 1060.01 66.7128 1068.15 65.6061 1076.46C60.8627 1078.04 58.333 1056.37 53.5897 1064.44C52.7201 1064.04 51.6133 1066.1 50.3484 1073.37C51.5343 1068.71 52.6411 1066.1 53.5897 1064.44C54.9337 1065.07 55.8823 1071.71 56.0404 1074.48C53.7478 1081.68 52.0086 1070.76 50.4275 1086.9C55.3289 1090.3 45.6841 1119.49 53.906 1095.13C53.6688 1102.09 53.0363 1106.04 52.1667 1109.92C49.1626 1105.09 45.526 1086.19 42.1267 1074.88C37.9367 1079.62 45.447 1105.41 49.0045 1118.3C46.7119 1118.62 44.1031 1116.17 41.2571 1111.58C36.83 1077.41 32.2447 1045.45 27.5014 1015.71C26.869 1006.3 24.3392 990.953 21.4932 973.947C19.4378 962.715 17.3033 950.771 15.2479 939.381C13.0343 927.99 11.1369 917.233 10.0302 908.136C8.0538 904.023 5.44497 898.012 3.94296 896.272C-7.28293 850.948 -20.4062 812.347 -36.5334 779.205C-35.9801 779.205 -35.4267 779.047 -35.1104 778.335C-37.6402 774.064 -40.4071 770.029 -43.3322 765.995C-43.8065 765.125 -44.2808 764.255 -44.7552 763.385C-43.4903 763.86 -40.4071 767.024 -41.9092 762.911C-43.016 763.069 -44.9133 761.566 -47.1268 759.193C-51.7121 751.046 -56.6135 743.294 -61.6731 735.859C-61.7521 735.621 -61.9102 735.463 -61.9893 735.226C-62.1474 735.068 -62.3054 734.909 -62.4636 734.751C-66.8907 728.344 -71.4759 722.254 -76.2983 716.321C-76.6145 715.768 -76.9307 715.293 -77.405 714.581C-78.3537 713.711 -79.2233 712.683 -80.172 711.654C-164.682 612.385 -310.302 582.565 -590 549.501L-590 549.185ZM492.663 546.575L503.02 551.242L504.285 550.213C502.387 548.552 499.146 547.84 492.663 546.575ZM314.947 497.059L316.133 502.279L319.295 503.466L314.947 497.059ZM169.564 417.327C172.963 421.519 177.707 425.316 181.976 429.033C183.241 430.299 184.585 431.565 186.166 432.83C184.822 431.565 183.399 430.299 181.976 429.033C173.517 420.412 172.173 412.502 169.564 417.327ZM98.177 828.563C98.256 834.1 105.371 813.613 105.213 819.308C104.818 821.444 104.422 823.738 104.185 826.19C104.976 822.393 105.213 820.495 105.213 819.308C107.901 806.02 111.933 799.85 104.58 803.647C99.3628 813.771 100.311 815.511 101.023 816.935C101.814 818.359 102.604 819.466 98.177 828.563ZM42.3638 1059.37C43.945 1060.96 49.8741 1085.16 46.3956 1062.22C44.8145 1060.56 41.178 1042.6 42.3638 1059.37ZM31.4542 1015.16L36.3556 1014.92L33.0353 1006.69C33.0353 1011.68 32.2448 1012.15 31.3751 1015.16L31.4542 1015.16ZM-15.1885 828.088L-14.3979 833.071L-10.8404 844.383L-15.1885 828.167L-15.1885 828.088ZM466.338 534.393C458.037 531.546 454.084 528.619 447.523 531.783C450.764 534.71 461.199 534.235 466.338 534.393ZM521.519 563.897C527.606 563.897 532.903 563.265 537.567 562.236C530.847 561.841 524.997 562.078 521.519 563.897ZM557.014 566.666C558.912 566.349 560.967 566.112 562.865 565.796C562.074 565.638 561.283 565.479 560.493 565.321C559.307 565.717 558.121 566.191 557.014 566.587L557.014 566.666ZM47.8978 17.481C45.8423 12.8142 44.5774 8.701 46.1586 2.373C45.8423 1.1866 45.5262 0.474684 45.2099 7.48804e-05C43.787 16.6109 46.2376 29.1085 45.6842 41.7644L47.8978 17.481ZM46.0794 1104.78C47.1071 1111.82 48.6882 1115.69 50.0322 1118.94C50.4274 1117.04 50.7437 1115.38 51.139 1113.79C48.9254 1111.1 47.8977 1090.22 46.0794 1104.78ZM50.4276 23.097C50.1114 26.34 49.9532 29.7413 50.9809 33.1425L53.6689 32.668C52.7202 28.8713 51.5343 25.7863 50.3485 23.097L50.4276 23.097ZM51.3762 1179.92C52.0086 1176.05 52.562 1172.01 53.1944 1167.66C52.562 1168.69 52.3248 1169.01 53.2734 1167.11C53.2734 1167.34 53.2734 1167.5 53.1944 1167.66C53.3525 1167.42 53.5897 1167.11 53.7478 1166.79C54.6174 1159.91 55.408 1153.19 56.1986 1146.54C54.3803 1135.39 51.0599 1126.37 48.293 1130.01C48.7673 1126.21 49.2416 1123.29 49.6369 1120.68C48.0558 1121.47 48.1349 1131.35 47.3443 1133.73C49.5579 1151.6 50.2693 1165.13 51.2971 1180L51.3762 1179.92Z" fill="#1C1711"/>
</svg>
